<?xml version="1.0" encoding="utf-8"?>
<!-- Generator: Adobe Illustrator 23.0.3, SVG Export Plug-In . SVG Version: 6.00 Build 0)  -->
<svg version="1.1" id="Layer_1" xmlns="http://www.w3.org/2000/svg" xmlns:xlink="http://www.w3.org/1999/xlink" x="0px" y="0px"
	 viewBox="0 0 1280 381.21" style="enable-background:new 0 0 1280 381.21;" xml:space="preserve">
<style type="text/css">
	.st0{fill:#363636;}
	.st1{fill:#00CDE5;}
	.st2{fill:#353636;}
	.st3{fill:#010101;}
	.st4{fill:#353737;}
	.st5{clip-path:url(#SVGID_2_);}
	.st6{clip-path:url(#SVGID_4_);fill:#0A0C0C;}
	.st7{clip-path:url(#SVGID_4_);fill:#01CBE3;}
	.st8{clip-path:url(#SVGID_4_);fill:#353637;}
	.st9{clip-path:url(#SVGID_4_);fill:none;stroke:#000000;stroke-width:0.0903;stroke-miterlimit:10;}
	.st10{clip-path:url(#SVGID_4_);fill:#9B8FE3;}
	.st11{clip-path:url(#SVGID_4_);fill:#FDFDFD;}
	.st12{clip-path:url(#SVGID_4_);fill:#BF1876;}
	.st13{clip-path:url(#SVGID_4_);fill:#1C3BB4;}
	.st14{clip-path:url(#SVGID_4_);fill:#21BB4C;}
	.st15{clip-path:url(#SVGID_4_);fill:#D16034;}
	.st16{clip-path:url(#SVGID_4_);fill:#9142AE;}
	.st17{clip-path:url(#SVGID_4_);fill:#C58484;}
	.st18{clip-path:url(#SVGID_4_);fill:#C68484;}
	.st19{fill:#353637;}
</style>
<g>
	<g>
		<path d="M1273.38,283.54c-5.18-19.99-12.72-38.62-28.6-50.41c1.72-20.53-4.83-37.5-13.33-54.1c5.14-8.71,6.43-17.71,3.71-27.89
			c-2.33-8.69-6.92-16.15-10.37-24.2c-2.74-6.38-7.58-8.91-15.06-8.79c-29.97,0.47-59.95,0.19-89.92,0.19
			c-2.92,0-5.91-0.44-8.88,1.51c-1.79,3.29-4.3,6.54-6.3,9.99c-3.2,5.53-8.76,10.23-7.76,17.58c0.58,4.26,1.44,8.49,2.31,12.7
			c4.67,22.79,9.38,45.57,14.12,68.54h-39.42c-2.6-16.12-5.26-31.96-7.68-47.85c-2.79-18.34-4.72-36.89-16.93-52.2
			c-4.67-5.86-9.41-10.57-17.92-10.23c-6.23,0.25-12.67,0.84-18.76-1.22c-8.15,4.39-10.34,13.12-15.37,19.92
			c-8.63-10.21-19.67-16.2-32.43-18.35c-13.91-2.34-28.06-1.7-42.12-1.4c-12.42,0.26-24.82,1.01-36.22,1.5
			c-3.31,2.26-3.43,5.34-5.32,7.25c-10.71-11.58-24.11-7.02-36.53-7.34c-1.75,2.98-2.97,5.07-4.2,7.19
			c-2.79-2.53-5.45-4.95-7.86-7.14c-1.41-0.09-2.31-0.19-3.21-0.19c-30.2-0.09-60.41,0.2-90.59-0.52
			c-8.06-0.19-14.95-0.93-17.87,9.19c-8.86-12.47-21.83-7.17-32.64-9.92c-9.12,2.67-9.06,13.35-15.77,18.62
			c-14.82-18.85-35.41-19.09-56.42-18.58c-22.05,0.53-39.93,9.81-54.99,25.34c-6.05-8.73-8.86-19.58-20.18-24.07
			c-8.4,0.12-17.44-1.33-26.43,0.57c-4.93,9.69-13.49,16.92-14.78,29.27c-1.59-2.53-2.37-3.88-3.26-5.16
			c-9.18-13.17-21.29-22.65-37.36-24.53c-23.26-2.72-46.67,0.3-70.5-0.25c-6.66,8.49-13.43,16.95-16.12,27.73
			c-11.01,44.09-21.9,88.21-32.8,132.33c-3.5,14.14,2.73,24.31,17.39,25.07c20.58,1.07,41.26,2.05,61.89,0.91
			c20.86-1.14,40.37-6.9,57.72-19.37c2.3,13.15,9.8,18.21,23.39,18.73c7.03,0.27,14.08-0.09,21.12,0.09
			c6.26,0.16,12.12-0.84,17.57-4.13c5.95-3.59,7.34-9.65,8.65-16.53c8.67,10.45,19.67,15.44,31.62,18.65
			c6.43,1.73,8.6,2.11,16.95,3.97c4.64,0.93,5.22,0.68,6.59,0.68c5.48,0.25,10.12,0.25,16.36,0h4.09
			c13.73-1.16,27.42-2.52,39.63-8.16c5.79,3.39,10.57,6.62,16.52,6.71c11.13,0.17,22.27,0.45,33.38-0.07
			c11.17-0.52,19.58-8.59,19.98-19.45c0.75-20.18,2.38-40.3,3.06-60.48c0.35-10.35,1.19-20.7,1.83-31c3.62-1.29,6.37-1.75,8.96,0.01
			c1.57,2.47,1.4,5.03,1.27,7.48c-0.69,13.59-1.67,27.17-1.38,40.81c0.29,13.62-0.28,27.26,0.2,40.87
			c0.49,13.91,8.8,21.79,22.5,21.9c8.4,0.07,16.8,0.03,25.21,0.01c17.06-0.04,24.39-7.33,24.43-24.54
			c0.07-25.89-0.01-51.78,0.05-77.67c0.01-3.09-0.66-6.39,1.65-9.12c2.93-1.15,5.71-1.49,8.54,1.01c0.8,7.44,1.91,15.03,2.03,22.78
			c0.35,22.68,0.83,45.36,2.81,67.97c1.06,12.14,8.91,19.29,21.11,19.55c5.45,0.12,10.9-0.04,16.35,0.04
			c24.05,0.34,48.11-0.3,72.17,0.49c17.4,0.58,34.93,1.07,52.06-3.79c6.14-1.74,11.56-5.07,18.43-7.74
			c7.35,12.45,19.52,11.08,31.43,11.07c67.45-0.08,134.89-0.04,202.34-0.04c2.5,0,5,0.07,7.49-0.08
			C1265.23,304.65,1275.84,297.56,1273.38,283.54z M447,209.89c-0.01,0.41,0.07,0.81-0.09,1.09c-0.33,5.72-1.92,11.38-6.94,13.02
			c-0.01,0.01-0.02,0.01-0.02,0.02c-2.14,1.56-5.17,3.1-8.1,3.63c-0.53,0.19-1.09,0.29-1.67,0.33c-0.33,0.07-0.67,0.09-1.01,0.1
			c-0.6,0.1-1.21,0.18-1.79,0.19c-1.92,0.34-4.4,0.22-5.06-1.63c-0.16-0.44-0.64-1.09-0.63-1.58c-0.03-0.13-0.37-0.32-0.39-0.46
			c-0.24-1.34,0.94-2.71,1.2-4.16c0-0.07-0.02-0.13-0.01-0.2c0.07-2.08,0.58-4.11,1.19-6.11c0.69-3.4,1.5-6.77,2.45-10.12
			c0.67-2.34,1.22-5.03,2.3-7.35c0.43-1.69,1.08-3.24,2.34-4.2c0.94-0.72,2.14-1.05,3.23-0.95c0.17,0,0.35,0.01,0.53,0.03
			c0.18-0.02,0.37-0.04,0.56-0.04c0.05,0,0.1,0.01,0.16,0.01c0.47-0.08,0.94-0.12,1.4-0.1c0.67,0.03,1.33,0.13,1.96,0.29
			c0.2,0.01,0.42,0.03,0.63,0.05c0.9,0.08,1.82,0.2,2.68,0.4c1.84-0.08,3.3,0.18,4.18,1.18c0.42,0.4,0.9,0.89,1.1,1.43
			c0.45,0.73,0.28,1.85,0.26,2.66C448.13,201.63,447.04,207.19,447,209.89z M630.44,194.39c-0.29,0.71-0.7,1.34-1.22,1.86
			c-0.49,0.91-1.17,1.69-1.87,2.45c-0.36,0.87-0.88,1.68-1.39,2.48c-0.8,2.46-2.19,4.91-2.81,7.17c-1.56,5.73-2.33,11.71-2.71,17.64
			c0.04,0.29,0.28,0.56,0.27,0.89c-0.01,0.11-0.02,0.25-0.03,0.36c-0.02,0.38-0.1,0.81-0.21,1.22c0.04,0.58,0.14,1.22,0.15,1.8
			c0.02,0.99-0.92,2.3-1.85,2.46c-0.42,0.07-0.18,0.46-0.56,0.6c-0.09,0.04-0.57,0.01-0.66,0.04c-0.02,0.01-0.43,0.23-0.46,0.24
			c-0.4,0.2-0.33,0.24-0.7,0.22c-0.38,0.04-0.72,0.08-1.09,0.03c-0.02,0-0.8,0.1-0.82,0.1c-0.65,0.13-0.91,0.11-1.58,0.12
			c-0.3,0.01-0.94-0.07-1.25-0.11c-1.72,0.16-3.48,0.05-5.13-0.59c-0.84-0.13-1.89-0.18-2.64-0.49c-0.24-0.06-1.71-0.65-1.94-0.7
			c-1.67-0.36-2.14-1.92-2.27-3.62c-0.02-0.28-0.73-1.32-0.72-1.6c-0.72-2.8,1.28-5.85,1.43-8.17c0.5-7.64,2.23-15.64,7.53-21.41
			c1.1-1.34,2.44-2.49,3.87-3.58c0.34-0.26,0.72-0.43,1.11-0.54c0.51-0.32,1.07-0.59,1.68-0.79c0.11-0.04,0.22-0.06,0.32-0.09
			c0.05-0.02,0.09-0.05,0.14-0.07c1.86-1.01,3.95-1.55,6.06-1.43c0.84-0.14,1.71-0.17,2.46-0.19c0.96-0.03,1.98-0.01,2.95,0.19
			c0.82,0.02,1.66,0.2,2.51,0.57C630.12,191.91,630.93,193.16,630.44,194.39z"/>
		<path class="st0" d="M835.52,129.6c2.41,1.48,2.17,4.99,5.23,6.47c3.25-2.3,3.98-6.67,6.82-9.39c4.01,6.05,3.4,13.16,3.45,19.7
			c0.25,31.09,2.98,62.08,3.07,93.17c0.02,6.76,0.88,13.5,2.35,20.58c8.85,1.31,17.3,1.22,25.21,0.2c2.01-1.97,2.13-3.84,1.96-5.63
			c-1.68-17.84-2.07-35.77-3.24-53.64c-1.24-19-2.2-38.03-3.28-57.04c-0.18-3.1-0.47-6.43,2.03-9.02c0.82,0.67,1.65,1.34,2.47,2
			c3.99-2.38,3.89-7.51,7.21-10.23c3.7,0.94,3.02,4.12,3.12,6.61c1.29,31.94,4.38,63.77,5.75,95.71c0.3,7,1.18,14,1.34,21.04
			c0.08,3.38,0.63,6.75,2.08,9.46c2.62,1.87,5.18,1.52,7.65,1.53c20.43,0.02,40.86,0.17,61.29-0.05c10.6-0.11,20.77-2.38,29.57-8.73
			c8.06-5.82,12.26-13.74,12.51-23.76c0.45-18.18-5.37-32.98-22.3-41.9c-1.41-0.74-2.7-1.7-3.12-3.41c0.54-1.59,1.82-2.56,3.01-3.61
			c7.77-6.87,10.14-15.22,7.16-25.21c-0.81-2.71-2.45-5.53-0.49-8.47c1.75-0.03,2.93-0.91,3.84-2.38
			c4.02-6.53,8.09-13.03,12.14-19.54c2.85,2.29,2.51,5.72,2.94,8.76c5.69,39.73,11.07,79.51,16.93,119.22
			c0.39,2.67,0.39,5.48,2.46,8.4c30.87,0.67,61.74,0.62,93.68,0.59c-2.18-10.25-0.27-20.12-9.17-26.51
			c-1.2-16.02-6.19-31.32-8.89-47.07c-1.98-11.52-4.89-22.88-7.2-34.35c-1.25-6.2-1.01-12.12,4.34-16.8
			c3.05-2.67,4.02-7.06,7.35-9.59c3.73,2.4,3.85,6.51,4.59,10.19c7.59,37.78,15.61,75.47,23.27,113.24
			c0.67,3.29,0.86,6.78,4.23,10.92c33.72,0.04,68.51,0.03,103.3-0.37c2.28-1.52,2.05-4.39,3.84-5.85
			c6.11,4.27,8.39,10.95,10.55,17.51c6.48,19.66,1.56,26.19-19.37,26.19c-67.91,0-135.82,0-203.73,0
			c-17.46,0-19.57-1.61-24.07-18.98c-9.84,11.23-22.73,16.03-36.48,18.24c-14.29,2.31-28.73,2.94-43.28,1.16
			c-7.61-0.93-15.42-0.38-23.14-0.4c-19.08-0.04-38.16,0.01-57.23-0.03c-10.95-0.02-15.69-4.71-16.4-15.46
			c-1.58-23.97-2.12-47.97-2.94-71.97c-0.28-8.25-0.58-16.64-1.39-25.34c-8.5,0-16.52,0-24.41,0c-1.69,2.61-1.03,5.17-1.03,7.6
			c-0.03,29.75,0.03,59.51,0.01,89.26c-0.01,10.83-4.75,15.66-15.78,15.88c-8.63,0.17-17.26,0.17-25.89,0
			c-10.34-0.21-15.59-5.24-15.65-15.55c-0.14-21.58-0.55-43.18,0.36-64.72c0.45-10.62,0.59-21.18,0.98-32.31c-8.7,0-16.72,0-25.17,0
			c-1.65,8.73-1.26,17.63-1.61,26.3c-0.55,13.58-1.98,27.13-1.84,40.74c0.11,10.64-1.64,21.21-1.44,31.9
			c0.15,7.95-6.02,13.32-14.92,13.6c-9.53,0.3-19.08,0.16-28.61,0.03c-7.33-0.1-12.11-4.13-15.05-11.43
			c-10.53,7-21.96,10.24-33.86,12.14c-23.09,3.69-45.48,2.03-66.96-8.03c-9.27-4.34-14.82-12.28-20.96-20.52
			c-2.82,4.68-2.35,9.73-3.35,14.33c-1.92,8.83-6.68,13.34-15.88,13.52c-9.08,0.18-18.17,0.22-27.25-0.01
			c-11.69-0.3-16.47-7.96-15.22-19.62c0.57-5.34,0.57-4.41,0.19-7.02c-14.65,14.72-32.29,23.19-52.51,25.97
			c-12.76,1.76-24.99,2.29-38.08,1.71c-8.84-0.4-17.64-0.93-31.06-0.99c-14.4-0.07-19.99-6.92-16.62-20.61
			c10.46-42.59,21.04-85.16,31.45-127.77c2.24-9.16,8.99-15.55,13.43-23.35c2.62,3.26,0.68,6.58-0.1,9.72
			c-9.43,37.91-18.93,75.8-28.34,113.71c-0.75,3.03-2.15,6.03-1.15,9.35c2.23,2.22,5.09,1.56,7.72,1.57
			c16.58,0.06,33.16,0.04,49.74,0.03c34.26-0.03,61.18-19.63,71.54-52.4c5.1-16.14,8.62-32.52,4.62-49.57
			c-0.51-2.19-0.96-4.5,0.69-6.52c3.71,1.27,3.78,6.03,8.43,8.19c1.64-13.01,5.1-25.09,14.78-34.2c3.14,3.8,0.91,7.88,0.31,11.69
			c-6,37.83-12.86,75.52-19.04,113.32c-0.43,2.64-1.31,5.3,0.07,8.74c8.66,1.03,17.5,1.2,26.26-0.22c2.82-5.65,3.04-11.4,3.85-16.94
			c4.85-33.19,10-66.33,14.93-99.51c0.64-4.34-0.8-9.2,2.67-12.98c4.92,6.09,8.01,13.33,12.02,19.59c2.83,1.34,3.77-1.59,5.72-1.76
			c1.5,2.74-0.45,4.77-1.5,6.92c-10.14,20.77-13.26,42.87-11.48,65.62c1.59,20.36,14.52,34.69,34.72,39.49
			c20.35,4.84,40.51,3.61,60.4-2.72c0.43-0.14,0.86-0.29,1.29-0.45c14.56-5.41,19.02-11.19,19.3-26.59
			c0.13-7.29,1.35-14.46,1.44-21.7c0.15-11.85-4.02-16.04-15.76-16.44c-3.61-0.12-7.28,0.36-10.8-0.89
			c-12.27-7.31-26.04-6.64-35.69,1.85c-5.78,5.09-7.2,12.21-8.87,19.25c-1.56,6.57-0.32,13.51-2.78,19.94
			c-3.19,1.44-4.46-1.23-6.04-2.96c-5.29-5.78-7.71-12.92-8.25-20.49c-1.05-14.71,0.75-29.01,8.04-42.21
			c8.51-15.41,22.37-20.33,38.94-19.7c13.35,0.51,24.74,5.23,32.36,16.64c7.08-2.45,9.31-7.3,9.84-13.32
			c0.19-2.17-0.97-4.57,1.11-6.41c1.68,0.6,1.31,3.52,4.17,3.26c1.94-8.03,7.06-14.46,12.04-20.97c3.64,5.42,2.09,11.43,1.67,17.18
			c-1.41,19.46-2.47,38.94-3.68,58.41c-1.05,16.76-2.4,33.5-3.03,50.28c-0.08,2.23-0.92,4.49,0.65,7.48
			c8.2,1.5,16.82,1.23,25.12,0.12c3.13-4.31,2.93-8.7,3-12.98c0.61-36.08,3.53-72.07,4.2-108.14c0.05-2.47,0.01-5.07,2.27-6.84
			c1.12,1.58,2.25,3.16,3.54,4.99c4.2-3.73,5.35-9.04,8.43-13.08c2.58,2.81,2.09,6.34,2.2,9.7c0.34,10.74,2.07,12.44,13.01,12.58
			c4.99,0.06,9.99-0.05,14.99,0.05c2.72,0.05,5.48,0.03,8.02,1.83c2.74,3.1,2.01,7.1,2.14,10.88c1.02,30.2-1.92,60.34-1.34,90.53
			c0.06,3.15-0.39,6.37,0.96,9.37c5.28,2.32,18.62,2.61,26,0.54c2.06-2.97,1.41-6.47,1.42-9.8c0.05-29.97,0.01-59.95,0.05-89.92
			c0.01-3.81-0.5-7.77,2.27-11.86c10.82-3.96,22.92,0.25,34.06-2.49C836.89,140.47,832.26,134.45,835.52,129.6z"/>
		<path class="st1" d="M996.38,145.99c1.04,3.69,2.33,7.33,3.07,11.08c2.22,11.26-1.65,19.98-11.87,26.38
			c14.74,6.07,22.71,17.02,25.72,32.35c4.63,23.63-6.36,40.77-29.92,45.74c-9.64,2.03-19.37,1.92-29.12,1.91
			c-4.31-0.01-8.62-0.01-12.93-0.01c-14.04,0-28.08,0-42.61,0c-2.21-13.44-2.25-26.31-3.12-39.08c-2.12-31.44-3.93-62.91-5.91-94.36
			c-0.07-1.09-0.58-2.15-0.88-3.22c0.21-1.88,1.22-2.65,3.14-2.71c23.21-0.84,46.45-3.19,69.62,0.11
			C976.22,126.26,988.74,132.4,996.38,145.99z"/>
		<path class="st1" d="M494.49,152.72c-8.27-18.87-23.57-27.07-43.3-28.82c-18.8-1.66-37.55,0.64-56.33,0.37
			c-2.11-0.03-4.09,0.31-5.09,2.55c-0.25,1.55-0.4,3.12-0.77,4.64c-10.27,41.33-20.57,82.66-30.84,123.99
			c-0.57,2.31-1.96,4.59-0.28,7.7c20.83,0,41.93,0.85,62.94-0.19c33.89-1.69,57.56-18.49,69.23-50.87
			C497.01,192.76,499.71,173.01,494.49,152.72z M448.29,209.49c-0.01,0.42-0.77,1.57-0.93,1.86c-0.33,5.72-1.48,12.29-6.5,13.92
			c-0.01,0.01-0.92-0.01-0.93,0c-2.49,1.82-5.94,3.53-9.28,3.71c-3.42,0.86-9.42-0.33-9.28-4.64c0.07-2.15,0.22-4.2,0.93-6.5
			c0.34-1.84,0.42-4.72,0.93-6.5c1.21-4.2,2.37-6.99,3.71-11.14c0.43-2.75,1.69-6.81,3.71-8.35c1.28-0.98,3.32-1.5,4.64-0.93
			c1.4-0.3,3.09-0.37,4.64,0c0.72-0.07,1.18-1.14,1.86-0.93c0.05,0,0.87,0,0.93,0C451.16,189.6,448.36,204.78,448.29,209.49z"/>
		<path class="st1" d="M1254.02,254.85c-0.63,2.43,1.53,4.86-0.31,7.7c-36.34,0-72.97,0-110.45,0c-2.12-10.12-4.31-20.46-6.44-30.8
			c-6.9-33.49-13.76-66.99-20.67-100.48c-0.32-1.54-0.9-3.03-1.36-4.55c-0.14-3.09,2-2.92,4.11-2.92
			c30.83,0.01,61.67,0.04,92.5-0.04c2.62-0.01,4.31,0.85,5.42,3.11c1.71,1.93,2.04,4.5,2.77,6.79c2.97,9.33-1.86,16.47-11.7,16.83
			c-14.72,0.54-29.46,0.1-44.19,0.2c-2.91,0.02-5.91-0.39-9.3,1.43c-0.12,7.05,1.86,13.81,4.71,20.96
			c21.33,2.04,42.61-0.66,62.44,1.48c2.63,2.81,1.24,5.31,2.9,6.87c1.91,5.66,5.5,10.96,3.92,18.66
			c-20.56,2.5-41.35-0.17-62.66,1.58c0.36,10.67,3.79,19.88,5.66,28.48c3.65,2.64,6.67,2.24,9.57,2.26
			c10.19,0.06,20.39,0,30.58,0.03c8.3,0.02,16.72-0.83,24.52,3.15C1245.33,238.92,1251.16,245.5,1254.02,254.85z"/>
		<path class="st1" d="M670.78,144.47c2.89,10.64-1.48,17.89-11.1,23.14c-7.95-14.91-21.76-19.11-37.16-18.27
			c-20.75,1.13-32.16,10.99-37.6,31.18c-3.15,11.69-4.44,23.6-1.39,35.59c1.72,6.76,5,12.56,10.87,16.63
			c5.06,0.19,9.26,3.5,14.3,3.84c4.79,0.33,9.48-0.07,14.14-1.18c9.92-2.12,10.82-3.23,12.02-12.53c1.25-9.67,1.59-19.43,3.06-29.08
			c0.81-1.84,1.73-3.54,4.24-2.95c4.07,0.08,8.15,0.18,12.22,0.24c11.43,0.16,16.41,4.7,16.07,16.25
			c-0.39,13.13-1.71,26.24-2.62,39.35c-5.56,5.75-11.97,10.02-19.33,12.56c-21.59,7.45-43.61,8.28-65.58,2.31
			c-19.56-5.32-31.14-18.75-33.14-38.78c-2.53-25.28,0.92-49.79,14.09-72.2c0.33-0.57,0.42-1.28,0.63-1.92
			c20.44-23.73,56.39-32.87,85.83-21.89C659.38,130.12,666.63,135.49,670.78,144.47z"/>
		<path class="st1" d="M1119.19,234.53c1.99,0.19,3.99,0.38,6.57,0.62c1.83,8.94,3.62,17.76,5.56,27.23c-33.23,0-65.97,0-99.62,0
			c-1.51-10.43-3.08-21.12-4.61-31.81c-4.76-33.46-9.51-66.93-14.23-100.4c-0.29-2.02-0.34-4.07-0.51-6.11
			c6.04-0.02,12.09,0.04,18.13-0.07c6.29-0.11,10.67,2.67,13.28,8.35c5.13,11.1,5.57,23.23,7.54,35
			c3.21,19.26,6.38,38.52,9.39,57.81c0.31,2.01,0.52,4.08,2.06,5.92c1.88,1.79,5,1.58,7.07,3.45
			C1086.28,234.53,1102.74,234.53,1119.19,234.53z"/>
		<path class="st1" d="M835.52,129.6c1.56,6.17,1.78,12.4,1.29,19.42c-12.82,0-25.19,0-37.98,0c0,38.08,0,75.43,0,113.36
			c-10.72,0-21.23,0-32.11,0c0-37.36,0-74.89,0-113.38c-7.36,0-15,0.02-22.64-0.01c-12.33-0.04-15.12-2.85-15.14-15.3
			c-0.01-3.18,0.14-6.35,0.21-9.53c27.34-0.12,54.68-0.24,82.02-0.36c4.3-0.02,8.59,0.07,12.89,0
			C828.94,123.73,832.92,125.27,835.52,129.6z"/>
		<path class="st1" d="M546.76,130.81c0.63,13.06-2.72,25.68-4.51,38.45c-4.22,30.11-8.94,60.15-13.48,90.21
			c-0.13,0.87-0.47,1.72-0.83,3.01c-10.79,0-21.54,0-32.81,0c3.74-22.19,7.47-44.08,11.11-65.98c3.87-23.26,7.65-46.53,11.47-69.79
			c0.41-0.77,0.63-1.97,1.26-2.26C526.31,121.06,541.48,124.6,546.76,130.81z"/>
		<path class="st1" d="M717.2,132.26c-1.69,43.29-3.37,86.59-5.08,130.27c-11.29,0-21.83,0-32.48,0c-1.38-3.51-0.02-6.81,0.17-10.11
			c1.48-24.91,3.07-49.82,4.42-74.73c0.93-16.98,2.93-33.9,2.74-50.93c0.39-0.79,0.57-2,1.19-2.29
			C696.2,120.61,712.1,124.94,717.2,132.26z"/>
		<path class="st1" d="M879.13,135c1.61,30.12,3.2,60.24,4.82,90.36c0.66,12.2,1.37,24.4,2.08,37.12c-10.99,0-21.5,0-32.68,0
			c-1.93-45.3-3.85-90.55-5.78-135.79c0.29-0.81,0.37-2.11,0.91-2.35C858.65,119.82,874.48,125.39,879.13,135z"/>
		<path class="st0" d="M1236.04,235.58c-21.7-1.71-43.45-0.01-66.02-1.06c-2.62-11.5-5.24-23.05-8.05-35.39c22.44,0,43.9,0,65.42,0
			c0.21-6.56-3.81-11.65-3.48-17.61c-0.61-0.71-0.52-1.32,0.28-1.81c9.86,11.77,12.38,26.48,15.91,40.68
			c1.42,5.73-1.62,10.37-6.94,13.26C1234.25,234.38,1235.14,234.98,1236.04,235.58z"/>
		<path class="st0" d="M1224.19,179.71c-0.09,0.6-0.19,1.2-0.28,1.81c-0.77-1.82-1.54-3.64-2.47-5.84c-21.25,0-42.51,0-64.15,0
			c-3.24-8.5-4.2-17.19-6.45-25.85c4.58-1.49,8.66-0.76,12.64-0.79c13.6-0.1,27.2-0.02,40.8-0.04c12.92-0.02,16.65-4.93,13.41-17.46
			c-0.4-1.53-0.58-3.11-0.86-4.66c7.99,11.79,15.71,23.65,14.03,38.94C1230.25,171.27,1226.99,175.36,1224.19,179.71z"/>
		<path class="st2" d="M1069.82,234.53c-2.91,0.34-5.81,0.51-9.7-0.46c-5.42-33.7-10.89-67.71-16.36-101.72
			c10.08,11.26,13.33,25.03,15.49,39.54C1062.36,192.83,1065.16,213.84,1069.82,234.53z"/>
		<path class="st3" d="M635.11,186.1c-4.9-1.32-9.91-0.8-14.87-0.68c-9.28,0.22-16.97,6.31-20.7,14.83
			c-4.59,10.47-5.29,21.37-5.09,32.49c8.75,6.92,18.61,6.57,28.74,4.37c2.26-0.79,4.05-2,4.11-4.71
			c0.29-13.1,3.02-25.47,10.75-36.39c0.5-0.7,0.7-1.66,1.12-2.46c0.54-1.43,1.48-2.41,3.03-2.71
			C640.74,187.91,638,186.88,635.11,186.1z M603.5,231.67c-1.67-0.36-2.73-1.55-2.86-3.26c-0.02-0.28-0.08-0.62-0.11-0.89
			c-0.32-2.71-0.27-6.42-0.12-8.74c0.5-7.64,2.23-15.64,7.53-21.41c1.1-1.34,2.19-2.27,3.61-3.36c0.34-0.26,0.95-0.61,1.32-0.78
			c0.66-0.31,1.23-0.54,1.72-0.77c0.1-0.05,0.22-0.06,0.32-0.09c0.05-0.02,0.09-0.06,0.14-0.07c1.98-0.76,4.08-1.15,6.06-1.43
			c0.97-0.11,1.71-0.17,2.46-0.19c0.96-0.03,1.98-0.01,2.95,0.19c0.82,0.02,1.66,0.2,2.51,0.57c1.11,0.48,1.92,1.73,1.42,2.96
			c-0.29,0.71-0.74,1.3-1.22,1.86c-0.72,0.85-1.39,1.54-1.87,2.45c-0.47,0.87-0.91,1.47-1.39,2.48c-1.12,2.34-2.19,4.91-2.81,7.17
			c-1.56,5.73-2.33,11.71-2.71,17.64c0.04,0.29,0.06,0.6,0.04,0.93c-0.01,0.11-0.01,0.22-0.02,0.32c-0.02,0.38-0.04,0.75-0.1,1.21
			c0,0.66-0.01,1.13,0,1.71c0.02,0.99-0.95,1.94-1.87,2.1c-0.42,0.07-0.6,0.14-0.85,0.2c-0.09,0.02-0.49,0.16-0.58,0.19
			c-0.02,0.01-0.23,0.08-0.34,0.1c-0.32,0.11-0.47,0.08-0.89,0.15c-0.38,0.04-0.62,0.07-0.98,0.09c-0.02,0-0.58,0.07-0.6,0.07
			c-0.59,0.09-0.89,0.12-1.56,0.14c-0.3,0.01-0.61-0.05-0.93-0.06c-1.39-0.06-3.5-0.27-5.17-0.71"/>
		<path class="st0" d="M929.07,234.71c-1.06-12.65-2.06-24.73-3.18-38.09c14.88,0.69,29.51-2.73,43.49,3.56
			c7.3,3.28,11.53,12.24,10.31,20.38c-1.11,7.4-5.97,12.4-14.82,13.56C953.21,235.66,941.46,234.58,929.07,234.71z"/>
		<path class="st0" d="M924.43,173.06c-2.02-8.42-1.42-16.64-2.81-25.84c12.01,0.36,23.65-1.62,35.1,1.82
			c6.94,2.09,10.28,7.15,9.75,13.71c-0.46,5.65-4.26,9.69-11.67,10.16C944.92,173.53,934.95,173.06,924.43,173.06z"/>
		<path class="st0" d="M414.46,234.4c-5.83,0.52-11.66,0.67-18.35-0.24c6.44-28.07,12.79-55.74,19.25-83.88
			c11.69-0.23,22.93-1.2,34.02,1.9c9.33,2.61,14.71,8.8,15.63,18.36c1.65,17.2-1.96,33.27-11.47,47.83
			c-0.96,1.47-2.47,2.57-3.73,3.84c-2.4-2.63-1.17-5.6-0.6-8.39c1.09-5.36,1.76-10.72,1.35-16.19c-0.37-4.95-2.96-8.12-7.88-8.75
			c-4.63-0.59-9.25-2.58-13.99-0.72c-2.75,2.59-2.95,6.12-3.68,9.38c-2.18,9.72-4.49,19.41-6.72,29.12
			C417.63,229.53,416.98,232.44,414.46,234.4z"/>
		<path class="st3" d="M451.85,192.05c-6.88-8.18-16.62-5.79-25.93-6.42c-3.92,16.71-7.69,32.74-11.45,48.77
			c13.31,0.37,25.81-1.63,35.35-12.19C450.85,212.39,454.28,202.75,451.85,192.05z M423.67,214.18c0.69-3.41,1.5-6.79,2.46-10.15
			c0.67-2.34,1.38-4.87,2.27-7.34c0.52-1.53,1.12-3.24,2.37-4.2c0.94-0.72,2.23-1.02,3.23-0.95l7.91,0.65c2.03,0.19,3.2,0.64,4,1.49
			c0.42,0.4,0.72,0.9,0.97,1.38c0.35,0.73,0.5,1.54,0.58,2.4c0.67,4.17-0.06,6.55-0.1,9.25c-0.01,0.41-0.35,2.28-0.58,4.42
			c-0.72,5.03-3.14,10.43-6.81,12.88c-0.01,0.01-0.02,0.01-0.02,0.02c-2.14,1.56-5.17,3.1-8.1,3.63c-0.53,0.19-1.09,0.29-1.67,0.33
			c-0.33,0.07-0.67,0.09-1.01,0.1c-0.6,0.1-1.21,0.18-1.79,0.19c-2.31-0.22-4,0.04-4.66-1.81c-0.16-0.44-0.22-0.93-0.32-1.41
			c-0.11-0.96-0.11-2.02,0.14-4.04L423.67,214.18z"/>
		<path class="st3" d="M435.09,191.53"/>
		<path class="st4" d="M623.15,237.11c4.41-4.87,3.31-11.36,3.36-16.72c0.1-11.33,6.5-18.82,12.62-26.84
			c-0.92,12.72-1.84,25.44-2.74,37.86C632.21,234.93,627.94,236.62,623.15,237.11z"/>
	</g>
</g>
<g>
	<g>
		<defs>
			<rect id="SVGID_1_" x="-0.89" y="7.54" width="369.83" height="369.83"/>
		</defs>
		<clipPath id="SVGID_2_">
			<use xlink:href="#SVGID_1_"  style="overflow:visible;"/>
		</clipPath>
		<g class="st5">
			<defs>
				<rect id="SVGID_3_" x="-0.89" y="7.54" width="369.83" height="369.83"/>
			</defs>
			<clipPath id="SVGID_4_">
				<use xlink:href="#SVGID_3_"  style="overflow:visible;"/>
			</clipPath>
			<path class="st6" d="M91.52,203.41c-0.07,0.01-0.15,0.02-0.22,0.03c-0.03,0.53-0.05,1.06-0.08,1.59
				c-0.04,0.65-0.34,1.18-0.76,1.55c0.05,0.15,0.11,0.31,0.16,0.46c0.14-0.79,0.7-1.37,1.38-1.64c-0.14-0.55-0.28-1.1-0.42-1.65
				C91.55,203.62,91.54,203.52,91.52,203.41"/>
			<path class="st6" d="M358.83,168.51c-6.15-39.57-25-72.82-51.68-101.81C278,35.01,241.54,17.33,198.66,13.33
				c-36.96-3.44-71.22,5.21-102.83,24.39C74.51,50.66,57.84,68.41,43.27,88.49C14.45,128.21,1.99,172.17,9,220.87
				c6.75,46.86,28.84,85.38,66.25,114.65c31.61,24.73,67.86,36.74,107.86,37.42c23.58,0.4,46.3-4.43,68.05-13.31
				c41.05-16.77,71.41-45.45,91.42-84.81c12.96-25.49,18.13-53.02,18.43-81.5C361.45,184.93,360.11,176.73,358.83,168.51
				 M176.1,278.59c-0.56,1.78-1.17,3.55-1.81,5.31c1.24-0.12,2.62,0.73,2.48,2.14c-0.4,4.06-2.52,8.25-4.12,11.93
				c-0.8,1.83-2.33,6.19-4.65,7.8c-0.65,1.5-1.3,3-1.96,4.5c-0.67,1.5-2.2,1.33-3.2,0.49c-0.55,0.69-1.13,1.34-1.77,1.94
				c-1.32,1.24-3.88,0.43-3.76-1.56c0.02-0.42,0.07-0.83,0.14-1.24c-0.37,0.41-0.75,0.81-1.14,1.21c-1.73,1.76-4.88-0.57-3.46-2.67
				c0.47-0.69,0.92-1.4,1.37-2.12c-0.1-0.04-0.2-0.1-0.3-0.16c-0.04-0.03-0.08-0.05-0.11-0.08c-0.65,0.39-1.48,0.49-2.23,0.08
				c-0.09-0.05-0.18-0.1-0.27-0.15c-0.22-0.06-0.45-0.15-0.66-0.31c-0.15-0.11-0.29-0.22-0.44-0.33c-1.58-0.97-3.07-2.07-4.49-3.26
				c-0.43,0.36-0.98,0.58-1.56,0.57c-0.58,0.87-1.71,1.32-2.87,0.69c-1.68-0.91-3.27-1.93-4.81-3.04c-0.25,0.03-0.5,0.03-0.75-0.01
				c-0.6-0.11-1.19-0.27-1.76-0.47c-0.66,0.63-1.63,0.89-2.51,0.25c-3.42-2.47-6.6-5.19-9.7-8.01c-2.34,2.46-4.9,4.67-7.74,6.61
				c-1.91,1.3-4-1.19-3.01-3.01c0.55-1.01,1.14-2,1.76-2.96c-0.52,0.28-1.03,0.56-1.56,0.82c-2.33,1.19-4.21-1.55-2.67-3.46
				c1.1-1.37,2.23-2.72,3.39-4.06c-0.02-0.04-0.04-0.09-0.06-0.14c-0.38,0.21-0.75,0.43-1.13,0.63c-0.82,0.43-1.81,0.23-2.51-0.3
				c-0.57,0.41-1.13,0.82-1.7,1.23c-1.48,1.05-2.87-0.1-3.14-1.5c-2.05,1.39-4.77-1.5-2.8-3.36c0.02-0.02,0.05-0.05,0.07-0.07
				c-1.12-0.05-2.04-0.96-2.07-2.07c-0.21-0.65-0.08-1.4,0.59-2.07c0.39-0.39,0.78-0.78,1.17-1.16c-0.14-0.12-0.28-0.24-0.41-0.36
				c-0.14,0.1-0.29,0.21-0.43,0.31c-1.5,1.03-3.44-0.51-3.33-2.09c-0.14,0.07-0.27,0.15-0.41,0.22c-2.28,1.16-4.2-1.49-2.72-3.39
				c-0.54-0.54-1.07-1.1-1.58-1.66c-0.54-0.25-0.96-0.72-1.16-1.29c-0.92-1.04-1.83-2.1-2.74-3.15c-0.64-0.71-1.27-1.43-1.89-2.16
				c-0.96,0.47-2.18,0.34-2.75-0.85c-0.84-1.75-1.68-3.51-2.5-5.27c-0.22-0.23-0.41-0.51-0.53-0.87c-0.12-0.34-0.23-0.68-0.35-1.02
				c-5.66-12.29-10.68-25.02-13.23-38.31c-0.21-1.08,0.21-1.88,0.85-2.32c-0.78-0.25-1.4-0.91-1.4-2.01c0-1.38,0.02-2.75,0.04-4.13
				c-0.14-0.61-0.29-1.23-0.43-1.84c-0.15-0.67-0.03-1.24,0.25-1.68c-0.44-2.71-0.83-5.42-1.19-8.14c0,0,0,0,0-0.01h0
				c-0.03-0.2-0.05-0.39-0.08-0.59c-0.08-0.6,0.1-1.07,0.42-1.43c-0.38-0.18-0.71-0.47-0.93-0.85c-2.51-4.36-0.41-10.43,0.33-15.04
				c1.09-6.89,2.59-13.59,4.81-20.22c2.16-6.44,4.61-12.88,7.71-18.94c1.31-2.57,2.78-5.05,4.36-7.47c-0.45-0.59-0.56-1.4-0.01-2.25
				c1.76-2.72,3.85-5.26,6.13-7.67c-0.44-0.73-0.45-1.72,0.3-2.61c5.62-6.7,12.03-12.75,18.77-18.31
				c6.62-5.46,13.68-10.67,21.47-14.34c1.32-0.62,2.72,0.12,3.19,1.2c0.89,0.35,1.56,1.32,1.53,2.28c1.08-0.7,2.15-1.39,3.23-2.08
				c2.09-1.33,4.62,1.89,2.67,3.46c-1.01,0.81-2.01,1.62-3.01,2.43c0.46,0.77,0.53,1.78-0.07,2.51c0.02,0.39-0.07,0.79-0.31,1.17
				c-0.02,0.04-0.05,0.07-0.07,0.11c0.51,0.83,0.57,1.93-0.27,2.68c-0.71,0.63-1.42,1.26-2.14,1.89c0.09,0.23,0.15,0.48,0.19,0.74
				c0.12,0.97,0.01,2.11,0.12,3.16c0.57,0.34,0.97,0.94,0.95,1.81c-0.01,0.5-0.08,0.96-0.25,1.37c0.43,0.59,0.55,1.41,0.07,2.29
				c-2.59,4.74-5.29,9.44-7.97,14.13c0.96-0.7,2.01-1.25,3.15-1.45c2.78-0.5,3.96,3.75,1.17,4.25c-1.97,0.35-3.79,2.62-5.13,4.22
				c-2.27,2.72-4.21,5.73-6.09,8.72c-3.41,5.42-6.32,11.19-9.93,16.47c-0.77,1.13-1.91,1.27-2.78,0.83c-0.96,1.9-1.9,3.81-2.84,5.72
				c-0.44,0.9-1.19,1.21-1.93,1.11c-0.59,2.96-1.6,5.81-3.54,8.44c0,0.01-0.01,0.01-0.01,0.01c0.1,4.24,0.17,8.49,0.17,12.73
				c0,0.58-0.18,1.04-0.47,1.39c0,0.16,0,0.32,0,0.49c0,0.96-0.63,1.64-1.4,1.96v0.38c0,1.17-0.9,1.92-1.89,2.11
				c-0.07,2.33-0.21,4.66-0.43,6.99c0.93-0.09,1.9,0.37,2.24,1.55c2.19,7.65,4.58,15.23,7.09,22.78c0.81-0.32,1.82-0.22,2.47,0.41
				c1.03,1,2.08,2.1,2.97,3.3c0.79,0.66,1.53,1.4,2.18,2.2c0.73-0.04,1.35,0.43,1.72,1.1c0.98-0.48,2.32-0.16,2.92,0.85
				c0.31,0.53,0.61,1.08,0.89,1.64c0.57,0.13,1.1,0.43,1.45,0.9c0.67,0.91,1.33,1.98,1.91,3.13c0.92,0.97,1.8,1.98,2.64,3.03
				c0.71,0,1.39,0.32,1.75,1.06c0.08,0.16,0.16,0.33,0.25,0.52c1.24-1.64,3.98-1.76,5.73-1.15c1.18,0.41,2.31,1.12,3.34,2.01
				c2.32-0.13,4.78,0.18,6.31,0.27c4.19,0.23,8.93,0.25,13,1.4c0.43,0.12,0.76,0.33,1.01,0.58c2.6-0.37,5.21-0.65,7.85-0.74
				c3.78-0.46,7.57-0.83,11.37-1.03c2.5-0.13,2.98,3.77,0.59,4.33c-0.45,0.11-0.9,0.2-1.36,0.3c0.35,0.09,0.7,0.27,1.01,0.58
				c1.54,1.57,1.38,4.06,1.25,6.09c-0.07,1.05-0.09,2.11-0.11,3.17c0.25,0.25,0.44,0.56,0.54,0.95c1.31,5.19,2.44,10.42,3.66,15.64
				C178.64,277.51,177.37,278.57,176.1,278.59 M218.29,91.79c-0.06,0.07-0.11,0.15-0.17,0.22c-0.18,0.3-0.38,0.58-0.61,0.84
				c-0.46,0.69-0.89,1.4-1.33,2.1c-0.38,0.74-0.79,1.47-1.24,2.18c-0.15,0.35-0.29,0.71-0.42,1.08c-0.42,1.27-1.6,1.68-2.62,1.47
				c-2.91-0.11-7.26-2.86-9.61-4.38c-2.2-1.05-4.3-2.31-6.59-3.19c-3.01-1.16-6.08-2.17-9.22-2.89c-3.28-0.75-6.52-1.05-9.87-1.09
				c-1.44-0.02-2.85-0.07-4.27,0.11c-0.51,0.07-1.01,0.17-1.52,0.22c-0.55,0.09-1.09,0.18-1.63,0.29c-1.28,0.47-2.58,0.83-3.92,1.1
				c-1.14,0.51-2.35,0.84-3.53,1.38c-1.94,0.89-3.47,2.44-5.75,2.36c-0.51-0.02-0.96-0.21-1.31-0.49c-0.01,0-0.02,0-0.04-0.01
				c-0.73-0.11-1.2-0.59-1.42-1.19c-0.52-0.63-0.78-1.44-0.85-2.25c-0.52-1.78-0.61-3.58,0.76-4.96c0.09-0.11,0.2-0.21,0.32-0.29
				c0.05-0.04,0.1-0.09,0.15-0.13c0.34-0.26,0.76-0.35,1.17-0.31c1.28-0.48,2.92-0.73,4.43-0.9c0.38-0.09,0.77-0.18,1.15-0.25
				c0.21-0.04,0.42-0.08,0.64-0.12c1.58-0.56,3.29-0.77,4.94-0.93c1.33-0.13,2.69-0.28,4.05-0.38c4.54-0.87,9.09-1.02,13.64-0.82
				c1.09-0.04,2.18-0.03,3.28,0.02c2.53-0.05,5.05,0.08,7.61,0.37c1.04,0.12,2.08,0.23,3.12,0.34c0.27-0.06,0.56-0.08,0.88-0.04
				c3.51,0.49,7.04,0.76,10.45,1.8c0.15,0.05,0.29,0.11,0.42,0.17c0.55,0.11,1.11,0.22,1.66,0.33c1.43,0.27,2.9,0.48,4.27,0.98
				c1.04,0.16,2.09,0.53,2.92,1.09c1.02,0.52,1.77,1.4,1.72,2.64C219.91,89.66,219.12,90.76,218.29,91.79 M299.61,199.5
				c-0.54,6.16-1.07,12.33-2.35,18.38c-0.1,0.55-0.22,1.1-0.37,1.64c-0.06,0.25-0.12,0.51-0.18,0.76c-0.04,0.16-0.09,0.31-0.16,0.45
				c-0.39,1.35-0.8,2.7-0.97,4.09c-0.1,0.82-0.56,1.4-1.14,1.74c-0.93,0.95-2.81,0.69-3.46-0.5c-0.96-1.76-1.97-3.49-2.77-5.31
				c-0.57-1.07-1.11-2.15-1.76-3.09c-0.83-1.22-1.69-2.43-2.49-3.66c-0.81-0.93-1.56-1.93-2.21-2.97c-0.82-0.97-1.57-1.99-2.05-3.18
				c-0.6-1.48-0.52-2.8-0.32-4.17c-0.07-2.28,0.29-4.65,0.55-6.92c0.11-6.04-0.89-12.08-2.51-17.9c-0.89-1.96-1.77-3.92-3.08-5.7
				c-0.48-0.65-1.19-1.45-1.87-2.31c-1.23-1.28-2.32-2.65-3.11-4.04c-0.98-1.72-1.07-3.62-1.22-5.54c-0.11-1.4-0.21-2.8-0.35-4.2
				c-0.62-2.08-0.7-4.25-1.1-6.4c-0.46-2.5-1.3-4.94-2.33-7.26c-1.46-3.29-3.66-6.21-4.94-9.55c-0.42-0.79-0.81-1.58-1.19-2.35
				c-1.83-3.73-3.76-7.45-5.38-11.28c-0.8-1.31-1.58-2.64-2.44-3.89c-0.72-0.83-1.46-1.65-2.08-2.56c-1.56-2.27-1.81-5.03-1.41-7.69
				c-0.05-0.78,0.02-1.55,0.42-2.16c-0.04-1.85,2.62-3.12,3.92-1.43c0.23,0.08,0.45,0.2,0.67,0.37c2.25,1.77,4.52,3.51,6.72,5.31
				c0.55,0.09,1.08,0.39,1.48,0.98c0.15,0.23,0.32,0.45,0.49,0.68c1.09,0.94,2.15,1.9,3.17,2.9c0.04,0.03,0.07,0.06,0.11,0.09
				c0.84,0.75,1.65,1.52,2.43,2.31c1.13,1,2.18,2.06,3.19,3.16c1.66,1.55,3.04,3.3,4.45,5.15c1.42,1.88,2.97,3.66,4.25,5.63
				c2.55,3.13,4.85,6.48,6.85,10.06c3.15,5.64,5.8,11.67,8.16,17.68c1.01,2.58,1.87,5.19,2.65,7.85c0.4,1.34,0.98,2.93,1.02,4.43
				c0.95,3.1,1.58,6.28,1.63,9.59c0.7,3.57,1.14,7.18,1.18,10.79c0.03,2.28-0.06,4.57-0.19,6.85c-0.02,0.72-0.04,1.44-0.06,2.16
				C299.59,198.77,299.65,199.1,299.61,199.5"/>
			<path class="st7" d="M341.74,135.06c-2.76-10.74-6.75-21.1-13.06-30.39l-0.08-0.29c0.55-0.64-0.04-0.77-0.42-0.99
				c-0.29-0.54-0.15-1.31-0.86-1.62c-0.09-0.46-0.41-0.76-0.72-1.08c-0.47-0.68-0.96-1.35-1.4-2.05
				c-36.64-57.68-88.78-85.49-157.26-80.26c-36.32,2.77-67.7,17.85-94.56,42.38c-13.22,12.08-23.71,26.32-32.91,41.58
				c-0.41,0.38-0.78,0.78-0.8,1.38l-0.07,0.28c-0.38,0.39-0.75,0.79-0.77,1.39l-0.08,0.29c-1.5,1.84-2.57,3.95-3.58,6.07
				c-13.5,28.33-17.53,58.19-13.89,89.14c1.9,16.2,6.5,31.7,13.26,46.62c13.55,29.91,34.15,53.72,61.79,71.21
				c32.81,20.77,68.86,29.01,107.35,24.25c42.5-5.25,78.27-24.19,105.65-57.26C346.09,241.31,356.04,190.64,341.74,135.06
				 M165.89,282.53c-0.15,0.48-0.44,0.85-0.79,1.12c0.47,1.69,0.58,3.38,0.58,5.21c0,0.86-0.44,1.47-1.05,1.82
				c-0.04,0.45-0.1,0.9-0.18,1.36c-0.03,0.14-0.07,0.27-0.12,0.4c0.12,0.82,0.26,1.64,0.41,2.46c0.27,1.51-0.83,2.55-1.99,2.73
				c-0.11,0.58-0.42,1.13-0.89,1.45c-0.04,1-0.73,1.94-2.05,2.06c-0.24,0.23-0.55,0.41-0.93,0.51c-0.12,0.03-0.25,0.06-0.38,0.09
				c-0.34,0.75-1.02,1.36-1.94,1.43c-3.49,0.26-6.94-0.06-10.38-0.66c-1.21-0.21-1.68-1.25-1.56-2.26c-0.15,0-0.3-0.01-0.46-0.05
				c-4.68-1-9.12-2.94-13.21-5.41c-0.62-0.37-0.94-0.88-1.05-1.4c-2.81-1.26-5.65-2.46-8.53-3.57c-2.81-0.87-5.59-1.82-8.34-2.87
				c-1.62-0.62-1.84-2.45-1.1-3.53c-3.42-2.29-6.67-4.81-9.63-7.67c-0.01-0.01-0.03-0.02-0.04-0.03c-0.56-0.47-1.1-0.96-1.63-1.45
				c-0.75,0.56-1.8,0.64-2.69-0.27c-1.75-1.78-3.33-3.7-4.68-5.78c-0.13-0.16-0.25-0.31-0.38-0.47c-0.56,0.05-1.13-0.14-1.57-0.67
				c-1.8-2.16-3.57-4.36-5.21-6.66c-0.12-0.12-0.22-0.26-0.32-0.42c-0.06-0.09-0.11-0.19-0.17-0.28c-0.96-1.38-1.86-2.8-2.67-4.27
				c-2.11-3.08-4.1-6.23-5.8-9.57c-0.16-0.32-0.25-0.63-0.28-0.93c-0.82-1.49-1.59-3-2.32-4.55c-0.38-0.81-0.28-1.58,0.08-2.17
				c-0.27-0.77-0.53-1.54-0.76-2.32c-1.1,0.01-2.31-0.71-2.5-2.1c-0.13-0.95-0.22-1.9-0.3-2.85c-0.14-1.12-0.29-2.23-0.43-3.35
				c-0.93,0.03-1.84-0.45-2.07-1.57c-0.72-3.51-1.04-7.05-1.26-10.61c-0.84-4.38-1.47-8.85-1.21-13.29
				c-0.18-1.64-0.35-3.29-0.49-4.93c-0.1-1.16,0.56-1.84,1.4-2.04c0.09-0.75,0.2-1.49,0.3-2.24c-1.08-0.25-1.97-1.23-1.62-2.65
				c0.81-3.22,1.63-6.44,2.71-9.58c0.17-0.93,0.3-1.86,0.38-2.8c0.06-0.76,0.43-1.31,0.93-1.66c-0.05-0.29-0.05-0.61,0.02-0.97
				c0.22-1.1,0.47-2.19,0.75-3.27c-0.15-0.39-0.19-0.86-0.05-1.39c0.84-3.21,1.8-6.39,2.82-9.54c-0.38-0.45-0.53-1.1-0.26-1.89
				c1.28-3.71,2.99-7.24,4.65-10.79c0.04-0.08,0.08-0.15,0.12-0.22c1.45-3.19,2.95-6.37,4.51-9.51c-0.11-0.36-0.11-0.76,0.05-1.18
				c0.88-2.32,2.15-4.37,3.56-6.34c0.59-2.42,2.5-3.93,4.23-5.6c0.39-0.37,0.85-0.55,1.32-0.58c0.21-0.21,0.41-0.42,0.62-0.63
				c0.05-0.18,0.13-0.35,0.24-0.52c5.77-8.74,14.41-15.45,23.27-20.97c-0.01-0.37,0.09-0.75,0.31-1.11
				c0.12-0.18,0.24-0.36,0.36-0.53c0.07-0.4,0.27-0.78,0.65-1.08c0.41-0.33,0.82-0.66,1.23-0.98c1.33-1.2,2.84-2.21,4.29-3.37
				c0.59-0.48,1.25-0.59,1.86-0.48c0.35-0.3,0.71-0.6,1.1-0.86c1.11-0.76,2.99-0.03,3.24,1.32c0.49,2.73,2,5.02,3.03,7.55
				c1.08,2.63,1.11,4.88,0.11,7.56c-1.81,4.87-3.98,9.55-6.8,13.9c0.03,0.55-0.14,1.11-0.6,1.57c-1.96,1.95-3.98,3.93-6.47,5.19
				c-0.57,0.29-1.16,0.31-1.68,0.15c-1.68,1.17-3.4,2.25-5.37,2.92c-0.52,0.18-1,0.14-1.41-0.04c-0.05,0.04-0.1,0.07-0.15,0.11
				c-1.28,1.51-2.55,3.02-3.84,4.51c-0.52,0.76-1.04,1.52-1.56,2.28c-1.57,6.06-3.25,12.1-4.56,18.22
				c-0.22,3.32-0.45,6.69-2.59,9.36c-0.2,0.25-0.47,0.42-0.76,0.52c-0.21,0.69-0.46,1.38-0.76,2.06c-0.62,1.43-3.19,1.45-3.8,0
				c-0.2-0.46-0.35-0.93-0.47-1.39c-0.57-0.32-1.03-0.85-1.17-1.52c-0.2-0.16-0.36-0.37-0.49-0.63c-0.5,2.88-1.13,5.74-1.77,8.61
				c-0.01,0.07-0.04,0.12-0.06,0.18c0.02,0.06,0.05,0.11,0.07,0.17c0.4,1.35,0.84,2.68,1.29,4.01c0.37,0.26,0.64,0.65,0.72,1.17
				c0.11,0.65,0.21,1.3,0.32,1.96c0.91,2.76,1.75,5.54,2.27,8.42c0.17,0.97-0.35,1.87-1.08,2.39c0.04,1.03,0.05,2.06,0.01,3.1
				c-0.06,1.46-1.23,2.2-2.35,2.13c0.09,2.71,0.12,5.43,0.04,8.14c3.52,6.06,6.66,12.32,9.79,18.59c0.39,0.78,0.33,1.5,0.03,2.07
				c0.02,0.01,0.03,0.01,0.05,0.02c3.37,1.88,6.48,4.15,9.38,6.68c0.36,0.31,0.56,0.68,0.65,1.05c0.07,0.17,0.14,0.33,0.21,0.5
				c0,0,0,0,0,0c0,0,0,0,0,0.01c0.64,1.53,1.26,3.07,1.8,4.62c0.1,0.2,0.19,0.41,0.29,0.61c0.15,0.33,0.22,0.65,0.23,0.95
				c0.74,2.39,1.29,4.82,1.51,7.36c0.02,0.23-0.01,0.45-0.07,0.65c0.2,0.09,0.39,0.22,0.58,0.39c1.01,0.9,2.05,1.77,3.11,2.62
				c2.37,1.82,4.89,3.38,7.56,4.71c0.45-0.55,1.21-0.88,2.2-0.69c0.07,0.01,0.14,0.03,0.2,0.04c0.41-0.79,1.25-1.29,2.39-0.91
				c4.14,1.39,8.24,2.88,12.27,4.57c0.39-0.33,0.91-0.52,1.44-0.55c-0.13-1.49-0.25-2.99-0.36-4.48c-0.2-2.86,4.13-2.78,4.41,0
				c0.17,1.7,0.32,3.4,0.49,5.11c0-0.07,0-0.14,0-0.21c0.05-1.63,1.46-2.32,2.67-2.08c0.31-1.2,1.35-1.8,2.35-1.76
				c0.15-0.65,0.33-1.29,0.54-1.93c0.36-1.12,1.28-1.6,2.18-1.55c0.1-0.92,0.21-1.84,0.34-2.76c0,0,0,0,0,0h0
				c0.03-0.2,0.05-0.39,0.08-0.59c0.3-2.03,3.08-1.97,4.02-0.56c1.26-1.19,4.02,0.04,3.69,2.3c-0.01,0.06-0.02,0.13-0.03,0.19
				c1.2-0.14,2.46,0.59,2.41,2.1c0.8,0.25,1.44,0.93,1.44,2.02c0,0.68,0,1.37-0.01,2.06c0.47,0.36,0.81,0.92,0.87,1.69
				C168.03,268.24,168.06,275.72,165.89,282.53 M218.29,91.79c-0.06,0.07-0.11,0.15-0.17,0.22c-0.18,0.3-0.38,0.58-0.61,0.84
				c-0.46,0.69-0.89,1.4-1.33,2.1c-0.38,0.74-0.79,1.47-1.24,2.18c-0.15,0.35-0.29,0.71-0.42,1.08c-0.42,1.27-1.6,1.68-2.62,1.47
				c-2.91-0.11-7.26-2.86-9.61-4.38c-2.2-1.05-4.3-2.31-6.59-3.19c-3.01-1.16-6.08-2.17-9.22-2.89c-3.28-0.75-6.52-1.05-9.87-1.09
				c-1.44-0.02-2.85-0.07-4.27,0.11c-0.51,0.07-1.01,0.17-1.52,0.22c-0.55,0.09-1.09,0.18-1.63,0.29c-1.28,0.47-2.58,0.83-3.92,1.1
				c-1.14,0.51-2.35,0.84-3.53,1.38c-1.94,0.89-3.47,2.44-5.75,2.36c-0.51-0.02-0.96-0.21-1.31-0.49c-0.01,0-0.02,0-0.04-0.01
				c-0.73-0.11-1.2-0.59-1.42-1.19c-0.52-0.63-0.78-1.44-0.85-2.25c-0.52-1.78-0.61-3.58,0.76-4.96c0.09-0.11,0.2-0.21,0.32-0.29
				c0.05-0.04,0.1-0.09,0.15-0.13c0.34-0.26,0.76-0.35,1.17-0.31c1.28-0.48,2.92-0.73,4.43-0.9c0.38-0.09,0.77-0.18,1.15-0.25
				c0.21-0.04,0.42-0.08,0.64-0.12c1.58-0.56,3.29-0.77,4.94-0.93c1.33-0.13,2.69-0.28,4.05-0.38c4.54-0.87,9.09-1.02,13.64-0.82
				c1.09-0.04,2.18-0.03,3.28,0.02c2.53-0.05,5.05,0.08,7.61,0.37c1.04,0.12,2.08,0.23,3.12,0.34c0.27-0.06,0.56-0.08,0.88-0.04
				c3.51,0.49,7.04,0.76,10.45,1.8c0.15,0.05,0.29,0.11,0.42,0.17c0.55,0.11,1.11,0.22,1.66,0.33c1.43,0.27,2.9,0.48,4.27,0.98
				c1.04,0.16,2.09,0.53,2.92,1.09c1.02,0.52,1.77,1.4,1.72,2.64C219.91,89.66,219.12,90.76,218.29,91.79 M299.61,199.5
				c-0.54,6.16-1.07,12.33-2.35,18.38c-0.1,0.55-0.22,1.1-0.37,1.64c-0.06,0.25-0.12,0.51-0.18,0.76c-0.04,0.16-0.09,0.31-0.16,0.45
				c-0.39,1.35-0.8,2.7-0.97,4.09c-0.1,0.82-0.56,1.4-1.14,1.74c-0.93,0.95-2.81,0.69-3.46-0.5c-0.96-1.76-1.97-3.49-2.77-5.31
				c-0.57-1.07-1.11-2.15-1.76-3.09c-0.83-1.22-1.69-2.43-2.49-3.66c-0.81-0.93-1.56-1.93-2.21-2.97c-0.82-0.97-1.57-1.99-2.05-3.18
				c-0.6-1.48-0.52-2.8-0.32-4.17c-0.07-2.28,0.29-4.65,0.55-6.92c0.11-6.04-0.89-12.08-2.51-17.9c-0.89-1.96-1.77-3.92-3.08-5.7
				c-0.48-0.65-1.19-1.45-1.87-2.31c-1.23-1.28-2.32-2.65-3.11-4.04c-0.98-1.72-1.07-3.62-1.22-5.54c-0.11-1.4-0.21-2.8-0.35-4.2
				c-0.62-2.08-0.7-4.25-1.1-6.4c-0.46-2.5-1.3-4.94-2.33-7.26c-1.46-3.29-3.66-6.21-4.94-9.55c-0.42-0.79-0.81-1.58-1.19-2.35
				c-1.83-3.73-3.76-7.45-5.38-11.28c-0.8-1.31-1.58-2.64-2.44-3.89c-0.72-0.83-1.46-1.65-2.08-2.56c-1.56-2.27-1.81-5.03-1.41-7.69
				c-0.05-0.78,0.02-1.55,0.42-2.16c-0.04-1.85,2.62-3.12,3.92-1.43c0.23,0.08,0.45,0.2,0.67,0.37c2.25,1.77,4.52,3.51,6.72,5.31
				c0.55,0.09,1.08,0.39,1.48,0.98c0.15,0.23,0.32,0.45,0.49,0.68c1.09,0.94,2.15,1.9,3.17,2.9c0.04,0.03,0.07,0.06,0.11,0.09
				c0.84,0.75,1.65,1.52,2.43,2.31c1.13,1,2.18,2.06,3.19,3.16c1.66,1.55,3.04,3.3,4.45,5.15c1.42,1.88,2.97,3.66,4.25,5.63
				c2.55,3.13,4.85,6.48,6.85,10.06c3.15,5.64,5.8,11.67,8.16,17.68c1.01,2.58,1.87,5.19,2.65,7.85c0.4,1.34,0.98,2.93,1.02,4.43
				c0.95,3.1,1.58,6.28,1.63,9.59c0.7,3.57,1.14,7.18,1.18,10.79c0.03,2.28-0.06,4.57-0.19,6.85c-0.02,0.72-0.04,1.44-0.06,2.16
				C299.59,198.77,299.65,199.1,299.61,199.5"/>
			<path class="st8" d="M38.75,105.68c-3.18,8.1-7.25,15.85-9.65,24.25c-18.89,66.1-4.02,123.49,45.81,170.82
				c26.34,25.02,58.63,38.23,94.96,41.56c78.98,7.24,152.94-45.02,172.01-122.08c9.57-38.7,5.71-76.17-11.78-112.12
				c-0.54-1.11-0.94-2.29-1.41-3.44c3.62,1.75,4.53,5.61,6.2,8.66c10.19,18.6,16.58,38.48,19.36,59.54
				c1.23,9.31,2.23,18.69,2.17,28.02c-0.09,13.26-2.65,26.26-6.02,39.15c-6.87,26.22-19.58,49.3-37.01,69.76
				c-9.52,11.18-20.84,20.5-33.11,28.74c-12.38,8.32-25.47,15.15-39.56,19.8c-13.76,4.54-27.86,7.59-42.42,8.98
				c-25.3,2.4-49.69-1.49-73.31-9.79c-21.03-7.39-39.82-18.94-56.49-34.04c-17.3-15.68-30.5-34.15-40.52-55.09
				c-7.35-15.35-11.42-31.65-14.2-48.32c-1.78-10.66-2.32-21.48-1.63-32.24c1.4-21.8,6.12-42.86,15.2-62.85
				c2.69-5.93,5.78-11.63,9.06-17.25C36.96,106.79,37.38,105.7,38.75,105.68"/>
			<path class="st8" d="M328.19,103.42c-0.81-0.28-0.92-0.95-0.92-1.67C328.23,101.94,328.36,102.6,328.19,103.42"/>
			<path class="st8" d="M40.47,102.35c0.05,0.64-0.21,1.1-0.8,1.38C39.63,103.09,39.91,102.64,40.47,102.35"/>
			<path class="st8" d="M39.6,104.01c0.07,0.64-0.17,1.11-0.77,1.39C38.77,104.75,39.06,104.31,39.6,104.01"/>
			<path class="st8" d="M327.33,101.8c-0.56-0.16-0.75-0.56-0.73-1.11C326.85,101.07,327.09,101.44,327.33,101.8"/>
			<path class="st8" d="M328.6,104.38c-0.15-0.33-0.3-0.67-0.45-1C328.74,103.52,328.97,103.81,328.6,104.38"/>
			<path class="st6" d="M303.75,173.08c-6.38-32.95-24.42-58.71-51.83-77.92c-2.62-1.84-4.42-3.75-5.2-7.04
				c-2.48-10.38-10.02-13.61-19.54-8.59c-1.93,1.02-3.68,1.55-5.9,0.77c-22.8-7.98-45.84-7.9-69.03-1.85
				c-4.48,1.17-8.08-0.56-10.04-4.95c-0.62-1.39-0.85-2.95-1.61-4.27c-1.82-3.2-3.16-6.84-7.06-8.27c-0.45-0.24-1.23-0.4-1.31-0.73
				c-1.91-8.03-8.99-12.24-13.5-18.34c-0.12-0.16-0.74,0.04-1.48,0.09c0.68,8.62-0.53,17.33,3.06,25.53
				c-1.95,2.52-1.08,5.29-0.63,7.98c0.8,4.75,2.19,9.34,4.66,13.05c-1,2.1-2.46,2.73-3.72,3.54c-21.12,13.63-37.36,31.49-47.82,54.5
				c-10.99,24.17-13.03,49.24-7.94,75.08c2.08,10.55,6.04,20.4,11.26,29.77c0.32,0.26,0.68,0.5,0.67,0.98
				c0.82,0.23,0.56,1.17,1.02,1.63c23.26,33.33,55.38,51.68,95.62,55.35c25.97,2.37,50.54-2.96,73.47-15.91
				c17.46-9.86,32.16-22.5,43.23-39.26c0.09-0.5,0.41-0.85,0.79-1.14l-0.02,0.04c0.46-0.45,0.26-1.32,0.99-1.59
				c0.26-0.55,0.02-1.39,0.92-1.55c-0.12-0.56,0.29-0.77,0.67-1.01C305.78,224.88,308.83,199.3,303.75,173.08 M166,271.41
				c-0.02,0.49-0.05,0.99-0.09,1.48c-0.03,0.36-0.13,0.67-0.27,0.94c-0.18,1.52-0.42,3.04-0.69,4.56c-0.18,1.6-0.12,4.7-0.91,6.76
				c-0.06,0.53-0.14,1.05-0.27,1.56c0.06,0.46,0,0.94-0.2,1.36c-0.3,2.68-0.76,5.33-1.33,7.96c-0.3,2.54-1.17,5.1-3.69,5.98
				c-0.66,0.23-1.23,0.15-1.68-0.13c-2.87,0.62-6-1-8.81-1.99c-4.35-1.54-8.85-2.42-12.94-4.57c-0.53-0.22-1.04-0.44-1.52-0.64
				c-3.37-1.41-6.64-3.07-9.86-4.8c-2.23-1.21-4.46-2.45-6.62-3.78c-2.65-1.23-5.08-3.1-7.3-4.87c-3.49-2.79-7.01-5.63-10.29-8.7
				c-0.77-0.65-1.5-1.39-2.19-2.12c-0.12-0.12-0.24-0.23-0.35-0.35c-0.1-0.1-0.18-0.2-0.25-0.31c-0.53-0.59-1.04-1.16-1.53-1.67
				c-3.43-3.62-6.53-7.5-9.38-11.57c-0.92-1.22-1.77-2.51-2.6-3.79c-2.53-3.89-4.74-7.98-6.5-12.28c-1.81-4.41-3.17-9.01-4.49-13.59
				c-0.58-1.99-1.12-4.01-1.55-6.04c-0.18-0.76-0.41-1.68-0.48-2.58c-0.17-1.1-0.3-2.2-0.37-3.31c-0.69-4.19-1.15-8.41-1.18-12.64
				c-0.13-1.53-0.05-3.09-0.12-4.64c-0.16-2.35-0.13-4.7,0.27-7.02c0-0.99,0.05-1.97,0.22-2.93c0.05-0.96,0.12-1.9,0.21-2.79
				c0.14-2.5,0.34-4.99,0.87-7.43c0.5-3.37,1.16-6.72,1.93-10.06c0.54-2.35,1.02-4.72,1.89-6.99c0.18-0.47,0.39-0.93,0.6-1.39
				c0.06-0.24,0.12-0.47,0.17-0.71c0.27-1.22,0.61-2.43,1.21-3.51c0.1-0.28,0.2-0.55,0.31-0.82c1.12-2.87,2.36-5.73,3.71-8.49
				c2.55-5.23,5.27-10.75,9.08-15.25c0.6-0.87,1.22-1.72,1.85-2.58c1.77-2.74,4.22-5.12,6.32-7.59c1.27-1.5,2.81-3.23,4.47-4.68
				c1.44-1.58,3.06-2.96,4.56-4.52c0.24-0.24,0.49-0.41,0.75-0.51c1.16-1.07,2.33-2.13,3.52-3.17c0.24-0.21,0.49-0.35,0.74-0.44
				c3.21-2.59,6.42-5.15,9.73-7.61c0.25-0.18,0.49-0.3,0.73-0.36c0.48-0.35,0.97-0.7,1.46-1.05c0.28-0.2,0.59-0.3,0.92-0.31
				c0.93-0.32,1.88-0.3,2.65,0.53c0.11,0.12,0.2,0.25,0.29,0.39c0.15,0.21,0.28,0.46,0.36,0.76c0.2,0.71,0.44,1.4,0.61,2.1
				c0.15,0.35,0.27,0.71,0.33,1.08c0.01,0.04,0.01,0.08,0.02,0.11c0.1,0.29,0.21,0.58,0.31,0.88c0.02,0.05,0.04,0.1,0.05,0.15
				c0.09,0.24,0.17,0.48,0.25,0.72c0.02,0.06,0.05,0.12,0.08,0.18c0.33,0.56,0.7,1.09,1.01,1.67c0.99,1.87,1.23,3.96-0.38,5.36
				c-1,2.24-2.56,4.3-3.68,6.49c-1.28,2.51-2.49,5.05-3.84,7.52c-0.11,0.2-0.23,0.36-0.36,0.49c-0.05,0.6-0.37,1.19-1.07,1.58
				c-1.99,1.13-4.03,2.22-6.12,3.17c-1.69,1.55-3.84,2.56-5.63,4c-2.04,1.64-4.02,3.63-5.74,5.7c-1.05,1.63-1.96,3.36-2.8,5.11
				c-0.23,0.48-0.56,0.78-0.92,0.95c-0.18,0.45-0.37,0.89-0.56,1.34c-1.23,3.33-2.31,6.74-2.5,10.2c-0.07,1.37,0.2,3.37,0.07,5.17
				c0.18,2.32,0.17,4.62-0.99,6.73c-0.81,1.48-2.97,1.38-3.8,0c-0.04-0.07-0.08-0.15-0.12-0.22c-0.74-0.92-0.84-2.38-1.26-3.54
				c-0.21-0.18-0.43-0.34-0.67-0.44c-0.93-0.4-1.76,0.09-2.6,0.49c-0.18,0.26-0.34,0.54-0.49,0.83c-1.67,5.04-1.75,10.41-0.41,15.66
				c0.02,0.08,0.03,0.15,0.04,0.22c0.8,1.96,1.84,3.84,2.59,5.82c0.13,0.22,0.25,0.44,0.36,0.67c0.23,0.24,0.42,0.46,0.49,0.6
				c0.49,0.9,0.7,2.02,0.7,3.03c0,2.01-1.14,3.22-2.18,4.64c-0.58,1.01-1.29,1.98-2.05,2.88c-0.55,2.15-0.83,4.33-0.28,6.54
				c0.01,0.05,0.02,0.1,0.03,0.16c0.28,0.88,0.61,1.74,0.9,2.61c1.87,3.26,4.54,6.09,6.1,9.54c1.66,3.66,2.2,7.62,3.56,11.36
				c0.78,0.72,1.6,1.41,2.44,2.07c1.36,0.54,2.7,1.05,3.99,1.68c1.59,0.39,3.05,1.19,3.91,2.65c1.39,1.35,2.34,3.02,2.15,4.71
				c0.13,0.57,0.22,1.16,0.27,1.75c0.01,0.18,0.01,0.35-0.02,0.51c0.14,1.12,0.24,2.24,0.56,3.32c0.51,1.72,1.26,3.36,2.19,4.89
				c1.9,3.16,4.55,5.63,7.88,7.21c0,0,0,0,0,0c1.75,0.41,3.49,0.71,5.22,1.04c0.48-0.11,0.93,0,1.3,0.26
				c0.17,0.03,0.33,0.07,0.5,0.11c1.2,0.16,2.45,0.6,3.27,0.8c0.54,0.13,1.09,0.26,1.64,0.39c2.03,0.29,4.06,0.52,6.11,0.58
				c2.56,0.07,5.09-0.18,7.6-0.61c2.75-1.16,5.8-3.38,8.63-4.77c0.08-0.04,0.16-0.08,0.24-0.12c0.77-0.51,1.61-0.92,2.43-1.29
				c0.81-0.37-0.43,0.18,0.06-0.04c0.11-0.05,0.23-0.1,0.34-0.15c0.38-0.17,0.76-0.33,1.15-0.47c0.68-0.24,1.43-0.42,2.16-0.42
				c1.14,0.01,1.94,0.48,2.44,1.2c0.65,0.6,1.1,1.42,1.36,2.29c0.05,0.14,0.1,0.27,0.15,0.41c0.04,0.09,0.09,0.18,0.12,0.29
				c0.16,0.45,0.31,0.89,0.47,1.33c0.15,0.23,0.26,0.51,0.31,0.85c0.01,0.04,0.01,0.08,0.02,0.11c0.52,1.56,0.91,3.1,0.84,4.79
				C166.41,268,166.47,270.03,166,271.41 M218.29,91.79c-0.06,0.07-0.11,0.15-0.17,0.22c-0.18,0.3-0.38,0.58-0.61,0.84
				c-0.46,0.69-0.89,1.4-1.33,2.1c-0.38,0.74-0.79,1.47-1.24,2.18c-0.15,0.35-0.29,0.71-0.42,1.08c-0.42,1.27-1.6,1.68-2.62,1.47
				c-2.91-0.11-7.26-2.86-9.61-4.38c-2.2-1.05-4.3-2.31-6.59-3.19c-3.01-1.16-6.08-2.17-9.22-2.89c-3.28-0.75-6.52-1.05-9.87-1.09
				c-1.44-0.02-2.85-0.07-4.27,0.11c-0.51,0.07-1.01,0.17-1.52,0.22c-0.55,0.09-1.09,0.18-1.63,0.29c-1.28,0.47-2.58,0.83-3.92,1.1
				c-1.14,0.51-2.35,0.84-3.53,1.38c-1.94,0.89-3.47,2.44-5.75,2.36c-0.51-0.02-0.96-0.21-1.31-0.49c-0.01,0-0.02,0-0.04-0.01
				c-0.73-0.11-1.2-0.59-1.42-1.19c-0.52-0.63-0.78-1.44-0.85-2.25c-0.52-1.78-0.61-3.58,0.76-4.96c0.09-0.11,0.2-0.21,0.32-0.29
				c0.05-0.04,0.1-0.09,0.15-0.13c0.34-0.26,0.76-0.35,1.17-0.31c1.28-0.48,2.92-0.73,4.43-0.9c0.38-0.09,0.77-0.18,1.15-0.25
				c0.21-0.04,0.42-0.08,0.64-0.12c1.58-0.56,3.29-0.77,4.94-0.93c1.33-0.13,2.69-0.28,4.05-0.38c4.54-0.87,9.09-1.02,13.64-0.82
				c1.09-0.04,2.18-0.03,3.28,0.02c2.53-0.05,5.05,0.08,7.61,0.37c1.04,0.12,2.08,0.23,3.12,0.34c0.27-0.06,0.56-0.08,0.88-0.04
				c3.51,0.49,7.04,0.76,10.45,1.8c0.15,0.05,0.29,0.11,0.42,0.17c0.55,0.11,1.11,0.22,1.66,0.33c1.43,0.27,2.9,0.48,4.27,0.98
				c1.04,0.16,2.09,0.53,2.92,1.09c1.02,0.52,1.77,1.4,1.72,2.64C219.91,89.66,219.12,90.76,218.29,91.79 M299.61,199.5
				c-0.54,6.16-1.07,12.33-2.35,18.38c-0.1,0.55-0.22,1.1-0.37,1.64c-0.06,0.25-0.12,0.51-0.18,0.76c-0.04,0.16-0.09,0.31-0.16,0.45
				c-0.39,1.35-0.8,2.7-0.97,4.09c-0.1,0.82-0.56,1.4-1.14,1.74c-0.93,0.95-2.81,0.69-3.46-0.5c-0.96-1.76-1.97-3.49-2.77-5.31
				c-0.57-1.07-1.11-2.15-1.76-3.09c-0.83-1.22-1.69-2.43-2.49-3.66c-0.81-0.93-1.56-1.93-2.21-2.97c-0.82-0.97-1.57-1.99-2.05-3.18
				c-0.6-1.48-0.52-2.8-0.32-4.17c-0.07-2.28,0.29-4.65,0.55-6.92c0.11-6.04-0.89-12.08-2.51-17.9c-0.89-1.96-1.77-3.92-3.08-5.7
				c-0.48-0.65-1.19-1.45-1.87-2.31c-1.23-1.28-2.32-2.65-3.11-4.04c-0.98-1.72-1.07-3.62-1.22-5.54c-0.11-1.4-0.21-2.8-0.35-4.2
				c-0.62-2.08-0.7-4.25-1.1-6.4c-0.46-2.5-1.3-4.94-2.33-7.26c-1.46-3.29-3.66-6.21-4.94-9.55c-0.42-0.79-0.81-1.58-1.19-2.35
				c-1.83-3.73-3.76-7.45-5.38-11.28c-0.8-1.31-1.58-2.64-2.44-3.89c-0.72-0.83-1.46-1.65-2.08-2.56c-1.56-2.27-1.81-5.03-1.41-7.69
				c-0.05-0.78,0.02-1.55,0.42-2.16c-0.04-1.85,2.62-3.12,3.92-1.43c0.23,0.08,0.45,0.2,0.67,0.37c2.25,1.77,4.52,3.51,6.72,5.31
				c0.55,0.09,1.08,0.39,1.48,0.98c0.15,0.23,0.32,0.45,0.49,0.68c1.09,0.94,2.15,1.9,3.17,2.9c0.04,0.03,0.07,0.06,0.11,0.09
				c0.84,0.75,1.65,1.52,2.43,2.31c1.13,1,2.18,2.06,3.19,3.16c1.66,1.55,3.04,3.3,4.45,5.15c1.42,1.88,2.97,3.66,4.25,5.63
				c2.55,3.13,4.85,6.48,6.85,10.06c3.15,5.64,5.8,11.67,8.16,17.68c1.01,2.58,1.87,5.19,2.65,7.85c0.4,1.34,0.98,2.93,1.02,4.43
				c0.95,3.1,1.58,6.28,1.63,9.59c0.7,3.57,1.14,7.18,1.18,10.79c0.03,2.28-0.06,4.57-0.19,6.85c-0.02,0.72-0.04,1.44-0.06,2.16
				C299.59,198.77,299.65,199.1,299.61,199.5"/>
			<path class="st9" d="M303.75,173.08c-6.38-32.95-24.42-58.71-51.83-77.92c-2.62-1.84-4.42-3.75-5.2-7.04
				c-2.48-10.38-10.02-13.61-19.54-8.59c-1.93,1.02-3.68,1.55-5.9,0.77c-22.8-7.98-45.84-7.9-69.03-1.85
				c-4.48,1.17-8.08-0.56-10.04-4.95c-0.62-1.39-0.85-2.95-1.61-4.27c-1.82-3.2-3.16-6.84-7.06-8.27c-0.45-0.24-1.23-0.4-1.31-0.73
				c-1.91-8.03-8.99-12.24-13.5-18.34c-0.12-0.16-0.74,0.04-1.48,0.09c0.68,8.62-0.53,17.33,3.06,25.53
				c-1.95,2.52-1.08,5.29-0.63,7.98c0.8,4.75,2.19,9.34,4.66,13.05c-1,2.1-2.46,2.73-3.72,3.54c-21.12,13.63-37.36,31.49-47.82,54.5
				c-10.99,24.17-13.03,49.24-7.94,75.08c2.08,10.55,6.04,20.4,11.26,29.77c0.32,0.26,0.68,0.5,0.67,0.98
				c0.82,0.23,0.56,1.17,1.02,1.63c23.26,33.33,55.38,51.68,95.62,55.35c25.97,2.37,50.54-2.96,73.47-15.91
				c17.46-9.86,32.16-22.5,43.23-39.26c0.09-0.5,0.41-0.85,0.79-1.14l-0.02,0.04c0.46-0.45,0.26-1.32,0.99-1.59
				c0.26-0.55,0.02-1.39,0.92-1.55c-0.12-0.56,0.29-0.77,0.67-1.01C305.78,224.88,308.83,199.3,303.75,173.08z M166,271.41
				c-0.02,0.49-0.05,0.99-0.09,1.48c-0.03,0.36-0.13,0.67-0.27,0.94c-0.18,1.52-0.42,3.04-0.69,4.56c-0.18,1.6-0.12,4.7-0.91,6.76
				c-0.06,0.53-0.14,1.05-0.27,1.56c0.06,0.46,0,0.94-0.2,1.36c-0.3,2.68-0.76,5.33-1.33,7.96c-0.3,2.54-1.17,5.1-3.69,5.98
				c-0.66,0.23-1.23,0.15-1.68-0.13c-2.87,0.62-6-1-8.81-1.99c-4.35-1.54-8.85-2.42-12.94-4.57c-0.53-0.22-1.04-0.44-1.52-0.64
				c-3.37-1.41-6.64-3.07-9.86-4.8c-2.23-1.21-4.46-2.45-6.62-3.78c-2.65-1.23-5.08-3.1-7.3-4.87c-3.49-2.79-7.01-5.63-10.29-8.7
				c-0.77-0.65-1.5-1.39-2.19-2.12c-0.12-0.12-0.24-0.23-0.35-0.35c-0.1-0.1-0.18-0.2-0.25-0.31c-0.53-0.59-1.04-1.16-1.53-1.67
				c-3.43-3.62-6.53-7.5-9.38-11.57c-0.92-1.22-1.77-2.51-2.6-3.79c-2.53-3.89-4.74-7.98-6.5-12.28c-1.81-4.41-3.17-9.01-4.49-13.59
				c-0.58-1.99-1.12-4.01-1.55-6.04c-0.18-0.76-0.41-1.68-0.48-2.58c-0.17-1.1-0.3-2.2-0.37-3.31c-0.69-4.19-1.15-8.41-1.18-12.64
				c-0.13-1.53-0.05-3.09-0.12-4.64c-0.16-2.35-0.13-4.7,0.27-7.02c0-0.99,0.05-1.97,0.22-2.93c0.05-0.96,0.12-1.9,0.21-2.79
				c0.14-2.5,0.34-4.99,0.87-7.43c0.5-3.37,1.16-6.72,1.93-10.06c0.54-2.35,1.02-4.72,1.89-6.99c0.18-0.47,0.39-0.93,0.6-1.39
				c0.06-0.24,0.12-0.47,0.17-0.71c0.27-1.22,0.61-2.43,1.21-3.51c0.1-0.28,0.2-0.55,0.31-0.82c1.12-2.87,2.36-5.73,3.71-8.49
				c2.55-5.23,5.27-10.75,9.08-15.25c0.6-0.87,1.22-1.72,1.85-2.58c1.77-2.74,4.22-5.12,6.32-7.59c1.27-1.5,2.81-3.23,4.47-4.68
				c1.44-1.58,3.06-2.96,4.56-4.52c0.24-0.24,0.49-0.41,0.75-0.51c1.16-1.07,2.33-2.13,3.52-3.17c0.24-0.21,0.49-0.35,0.74-0.44
				c3.21-2.59,6.42-5.15,9.73-7.61c0.25-0.18,0.49-0.3,0.73-0.36c0.48-0.35,0.97-0.7,1.46-1.05c0.28-0.2,0.59-0.3,0.92-0.31
				c0.93-0.32,1.88-0.3,2.65,0.53c0.11,0.12,0.2,0.25,0.29,0.39c0.15,0.21,0.28,0.46,0.36,0.76c0.2,0.71,0.44,1.4,0.61,2.1
				c0.15,0.35,0.27,0.71,0.33,1.08c0.01,0.04,0.01,0.08,0.02,0.11c0.1,0.29,0.21,0.58,0.31,0.88c0.02,0.05,0.04,0.1,0.05,0.15
				c0.09,0.24,0.17,0.48,0.25,0.72c0.02,0.06,0.05,0.12,0.08,0.18c0.33,0.56,0.7,1.09,1.01,1.67c0.99,1.87,1.23,3.96-0.38,5.36
				c-1,2.24-2.56,4.3-3.68,6.49c-1.28,2.51-2.49,5.05-3.84,7.52c-0.11,0.2-0.23,0.36-0.36,0.49c-0.05,0.6-0.37,1.19-1.07,1.58
				c-1.99,1.13-4.03,2.22-6.12,3.17c-1.69,1.55-3.84,2.56-5.63,4c-2.04,1.64-4.02,3.63-5.74,5.7c-1.05,1.63-1.96,3.36-2.8,5.11
				c-0.23,0.48-0.56,0.78-0.92,0.95c-0.18,0.45-0.37,0.89-0.56,1.34c-1.23,3.33-2.31,6.74-2.5,10.2c-0.07,1.37,0.2,3.37,0.07,5.17
				c0.18,2.32,0.17,4.62-0.99,6.73c-0.81,1.48-2.97,1.38-3.8,0c-0.04-0.07-0.08-0.15-0.12-0.22c-0.74-0.92-0.84-2.38-1.26-3.54
				c-0.21-0.18-0.43-0.34-0.67-0.44c-0.93-0.4-1.76,0.09-2.6,0.49c-0.18,0.26-0.34,0.54-0.49,0.83c-1.67,5.04-1.75,10.41-0.41,15.66
				c0.02,0.08,0.03,0.15,0.04,0.22c0.8,1.96,1.84,3.84,2.59,5.82c0.13,0.22,0.25,0.44,0.36,0.67c0.23,0.24,0.42,0.46,0.49,0.6
				c0.49,0.9,0.7,2.02,0.7,3.03c0,2.01-1.14,3.22-2.18,4.64c-0.58,1.01-1.29,1.98-2.05,2.88c-0.55,2.15-0.83,4.33-0.28,6.54
				c0.01,0.05,0.02,0.1,0.03,0.16c0.28,0.88,0.61,1.74,0.9,2.61c1.87,3.26,4.54,6.09,6.1,9.54c1.66,3.66,2.2,7.62,3.56,11.36
				c0.78,0.72,1.6,1.41,2.44,2.07c1.36,0.54,2.7,1.05,3.99,1.68c1.59,0.39,3.05,1.19,3.91,2.65c1.39,1.35,2.34,3.02,2.15,4.71
				c0.13,0.57,0.22,1.16,0.27,1.75c0.01,0.18,0.01,0.35-0.02,0.51c0.14,1.12,0.24,2.24,0.56,3.32c0.51,1.72,1.26,3.36,2.19,4.89
				c1.9,3.16,4.55,5.63,7.88,7.21c0,0,0,0,0,0c1.75,0.41,3.49,0.71,5.22,1.04c0.48-0.11,0.93,0,1.3,0.26
				c0.17,0.03,0.33,0.07,0.5,0.11c1.2,0.16,2.45,0.6,3.27,0.8c0.54,0.13,1.09,0.26,1.64,0.39c2.03,0.29,4.06,0.52,6.11,0.58
				c2.56,0.07,5.09-0.18,7.6-0.61c2.75-1.16,5.8-3.38,8.63-4.77c0.08-0.04,0.16-0.08,0.24-0.12c0.77-0.51,1.61-0.92,2.43-1.29
				c0.81-0.37-0.43,0.18,0.06-0.04c0.11-0.05,0.23-0.1,0.34-0.15c0.38-0.17,0.76-0.33,1.15-0.47c0.68-0.24,1.43-0.42,2.16-0.42
				c1.14,0.01,1.94,0.48,2.44,1.2c0.65,0.6,1.1,1.42,1.36,2.29c0.05,0.14,0.1,0.27,0.15,0.41c0.04,0.09,0.09,0.18,0.12,0.29
				c0.16,0.45,0.31,0.89,0.47,1.33c0.15,0.23,0.26,0.51,0.31,0.85c0.01,0.04,0.01,0.08,0.02,0.11c0.52,1.56,0.91,3.1,0.84,4.79
				C166.41,268,166.47,270.03,166,271.41z M218.29,91.79c-0.06,0.07-0.11,0.15-0.17,0.22c-0.18,0.3-0.38,0.58-0.61,0.84
				c-0.46,0.69-0.89,1.4-1.33,2.1c-0.38,0.74-0.79,1.47-1.24,2.18c-0.15,0.35-0.29,0.71-0.42,1.08c-0.42,1.27-1.6,1.68-2.62,1.47
				c-2.91-0.11-7.26-2.86-9.61-4.38c-2.2-1.05-4.3-2.31-6.59-3.19c-3.01-1.16-6.08-2.17-9.22-2.89c-3.28-0.75-6.52-1.05-9.87-1.09
				c-1.44-0.02-2.85-0.07-4.27,0.11c-0.51,0.07-1.01,0.17-1.52,0.22c-0.55,0.09-1.09,0.18-1.63,0.29c-1.28,0.47-2.58,0.83-3.92,1.1
				c-1.14,0.51-2.35,0.84-3.53,1.38c-1.94,0.89-3.47,2.44-5.75,2.36c-0.51-0.02-0.96-0.21-1.31-0.49c-0.01,0-0.02,0-0.04-0.01
				c-0.73-0.11-1.2-0.59-1.42-1.19c-0.52-0.63-0.78-1.44-0.85-2.25c-0.52-1.78-0.61-3.58,0.76-4.96c0.09-0.11,0.2-0.21,0.32-0.29
				c0.05-0.04,0.1-0.09,0.15-0.13c0.34-0.26,0.76-0.35,1.17-0.31c1.28-0.48,2.92-0.73,4.43-0.9c0.38-0.09,0.77-0.18,1.15-0.25
				c0.21-0.04,0.42-0.08,0.64-0.12c1.58-0.56,3.29-0.77,4.94-0.93c1.33-0.13,2.69-0.28,4.05-0.38c4.54-0.87,9.09-1.02,13.64-0.82
				c1.09-0.04,2.18-0.03,3.28,0.02c2.53-0.05,5.05,0.08,7.61,0.37c1.04,0.12,2.08,0.23,3.12,0.34c0.27-0.06,0.56-0.08,0.88-0.04
				c3.51,0.49,7.04,0.76,10.45,1.8c0.15,0.05,0.29,0.11,0.42,0.17c0.55,0.11,1.11,0.22,1.66,0.33c1.43,0.27,2.9,0.48,4.27,0.98
				c1.04,0.16,2.09,0.53,2.92,1.09c1.02,0.52,1.77,1.4,1.72,2.64C219.91,89.66,219.12,90.76,218.29,91.79z M299.61,199.5
				c-0.54,6.16-1.07,12.33-2.35,18.38c-0.1,0.55-0.22,1.1-0.37,1.64c-0.06,0.25-0.12,0.51-0.18,0.76c-0.04,0.16-0.09,0.31-0.16,0.45
				c-0.39,1.35-0.8,2.7-0.97,4.09c-0.1,0.82-0.56,1.4-1.14,1.74c-0.93,0.95-2.81,0.69-3.46-0.5c-0.96-1.76-1.97-3.49-2.77-5.31
				c-0.57-1.07-1.11-2.15-1.76-3.09c-0.83-1.22-1.69-2.43-2.49-3.66c-0.81-0.93-1.56-1.93-2.21-2.97c-0.82-0.97-1.57-1.99-2.05-3.18
				c-0.6-1.48-0.52-2.8-0.32-4.17c-0.07-2.28,0.29-4.65,0.55-6.92c0.11-6.04-0.89-12.08-2.51-17.9c-0.89-1.96-1.77-3.92-3.08-5.7
				c-0.48-0.65-1.19-1.45-1.87-2.31c-1.23-1.28-2.32-2.65-3.11-4.04c-0.98-1.72-1.07-3.62-1.22-5.54c-0.11-1.4-0.21-2.8-0.35-4.2
				c-0.62-2.08-0.7-4.25-1.1-6.4c-0.46-2.5-1.3-4.94-2.33-7.26c-1.46-3.29-3.66-6.21-4.94-9.55c-0.42-0.79-0.81-1.58-1.19-2.35
				c-1.83-3.73-3.76-7.45-5.38-11.28c-0.8-1.31-1.58-2.64-2.44-3.89c-0.72-0.83-1.46-1.65-2.08-2.56c-1.56-2.27-1.81-5.03-1.41-7.69
				c-0.05-0.78,0.02-1.55,0.42-2.16c-0.04-1.85,2.62-3.12,3.92-1.43c0.23,0.08,0.45,0.2,0.67,0.37c2.25,1.77,4.52,3.51,6.72,5.31
				c0.55,0.09,1.08,0.39,1.48,0.98c0.15,0.23,0.32,0.45,0.49,0.68c1.09,0.94,2.15,1.9,3.17,2.9c0.04,0.03,0.07,0.06,0.11,0.09
				c0.84,0.75,1.65,1.52,2.43,2.31c1.13,1,2.18,2.06,3.19,3.16c1.66,1.55,3.04,3.3,4.45,5.15c1.42,1.88,2.97,3.66,4.25,5.63
				c2.55,3.13,4.85,6.48,6.85,10.06c3.15,5.64,5.8,11.67,8.16,17.68c1.01,2.58,1.87,5.19,2.65,7.85c0.4,1.34,0.98,2.93,1.02,4.43
				c0.95,3.1,1.58,6.28,1.63,9.59c0.7,3.57,1.14,7.18,1.18,10.79c0.03,2.28-0.06,4.57-0.19,6.85c-0.02,0.72-0.04,1.44-0.06,2.16
				C299.59,198.77,299.65,199.1,299.61,199.5z"/>
			<path class="st8" d="M293.45,249.01c-0.04-3.47,2.02-6.23,3.13-9.31c4.27-11.87,7-23.94,7.82-36.67
				c1.4-21.71-2.95-42.01-12.69-61.2c-10.29-20.29-25.47-36.24-44.82-48.66c-1.95-4.73-1.08-11.21-7.61-13.97
				c-6.18-2.61-10.86,0.97-15.05,3.22c-25.81-9.34-50.96-8.98-76.54-1.63c-1.98-1.62-4.09-3.35-6.43-5.28
				c-0.49-5.76-4.18-10.11-7.71-14.55c9.72-4.99,20.22-7.67,30.91-9.06c45.03-5.88,83.69,7.3,114.87,40.42
				c21.07,22.39,32.34,49.38,34.18,80.18c1.58,26.51-4.53,51.14-17.99,73.98C294.96,247.43,294.61,248.57,293.45,249.01"/>
			<path class="st8" d="M120.31,67.52c0.11,7.53,0.81,14.9,6.12,21.2c-2.23,3.54-6.03,4.91-9.11,7
				C93.94,111.6,77.8,132.95,68.93,159.7c-3.31,9.98-4.97,20.27-5.4,30.89c-0.82,20.31,2.84,39.52,11.9,57.7
				c0.51,1.01,0.92,2.02,0.69,3.18c-7.91-10.36-13.17-22.11-16.47-34.55c-13.54-51.04-1.25-95.18,36.49-132.08
				C103.26,77.88,111.22,71.85,120.31,67.52"/>
			<path class="st8" d="M273.37,298.81c0.65,8.27-6.66,9.66-11.77,13.85c-2.44-4.48-4.69-8.62-7.13-13.1
				c2.93-1.92,5.44-3.85,8.2-5.32c3.86-2.05,5.71-0.93,6.37,3.52c1.18,0.02,2.29,0.84,3.54,0.3c0,0,0.38,0.11,0.38,0.11
				c0,0,0.28,0.27,0.28,0.27C273.25,298.44,273.37,298.81,273.37,298.81"/>
			<path class="st8" d="M71.17,275.53c-4.61,1.63-7.98-0.23-10.68-3.84c-1.73-2.31-3.38-4.68-5.35-7.43
				c3.79-2.86,7.47-5.64,11.42-8.62c3.94,5.6,9.62,10.32,6.23,18.27c0,0-0.07,0.34-0.06,0.34c-0.1,0.21-0.23,0.4-0.39,0.57
				c0,0-0.25,0.24-0.25,0.25c-0.17,0.17-0.36,0.3-0.57,0.4C71.52,275.47,71.17,275.53,71.17,275.53"/>
			<path class="st8" d="M302.07,259.59c-2.84,2.31-6.58,3.86-6.29,8.57c4.64-0.77,6.08-8.5,12.32-5.37
				c1.27,6.3-2.35,10.11-6.29,13.66c-1.14,1.03-2.74,2.72-4.66,0.15c3.15-2.35,6.57-4.48,7.5-9.28c-4.76,1.02-6.42,8.08-12.03,5.51
				c-2.08-4.48-0.01-9.86,5.03-13.64C299.17,258.05,300.61,257.21,302.07,259.59"/>
			<path class="st8" d="M172.05,333.97c-6.33-0.13-8.84-2.22-8.75-7.28c0.12-6.08,2.38-8.27,8.34-8.09c6.27,0.18,8.71,2.62,8.54,8.5
				C180.03,332.16,177.75,334.09,172.05,333.97"/>
			<path class="st8" d="M286.76,291.38c-2.6-3.35-5.21-6.7-8.05-10.35c3.54-3.15,6.97-6.2,10.49-9.34c1.62,2.43-1.28,3.39-2.25,5.03
				c-0.87,1.47-3.57,2.21-2.12,5.18c3.04-1.49,4.22-4.4,6.56-6.04c0.94,0.01,1.36,0.68,1.86,1.59c-1.93,2.17-3.83,4.31-5.64,6.34
				c0.04,1.53,1.23,1.9,1.86,2.68c3.49-1.5,4.43-6.36,9.03-6.21c-2.78,4.46-6.43,8.08-10.29,11.5c-0.21,0.18-0.97-0.27-1.48-0.42
				L286.76,291.38z"/>
			<path class="st8" d="M76.93,278.09c6.21-1.86,10.82,0.34,14,5.74c0.92,1.57,1.99,3.52-1.08,4.74c-1.47-3.07-2.8-6.21-6.65-7.07
				c-2.4,0.54-4.21,2-4.48,4.62c-0.27,2.68,1.46,4.31,3.71,5.36c1.74-0.06,2.03-1.87,3.32-2.47c1.97,0.59,2.65,2.14,2.84,4.05
				c-0.05,0.15-0.09,0.3-0.13,0.46c-0.21,0.42-0.42,0.85-0.64,1.27c-0.13,0.29-0.29,0.57-0.47,0.83c-0.2,0.25-0.45,0.46-0.73,0.62
				c-0.16,0.03-0.32,0.06-0.47,0.09c-3.16-0.49-5.61-2.27-7.82-4.42c-3.63-3.54-4.95-7.52-2.14-12.2c-0.01-0.16-0.01-0.31-0.02-0.47
				c0.07-0.31,0.2-0.6,0.38-0.86C76.68,278.28,76.81,278.18,76.93,278.09"/>
			<path class="st8" d="M213.7,324.77c-0.52,1.28-0.16,2.16,0.07,2.94c3.5,1.57,7.08-2.98,10.88,0.58
				c-4.86,1.91-9.44,2.67-14.6,3.61c-0.83-4.75-1.65-9.42-2.53-14.44c4.42-0.99,8.61-1.92,13.24-2.96c-0.81,5.5-7.08,2.34-8.37,6.47
				c2.92,1.56,5.43-1.02,8.05-0.4C220.54,322.5,220.54,322.5,213.7,324.77"/>
			<path class="st8" d="M113.7,301.18c2.36,0.07,3.72,0.91,4.85,2.36v15.63c-5-0.36-5.3-6.96-10.88-6.59
				c-1.3,0.97-3.01,0.05-4.95-1.79C106.41,307.56,110.07,304.35,113.7,301.18"/>
			<path class="st8" d="M235.91,311.34c-0.04,0.69-0.09,1.37-0.15,2.29c-2.97,0.44-6.47-0.61-8.82,2.92
				c-0.69,2.2-0.73,4.92,1.88,6.2c3.81,1.87,6.46-0.89,8.83-3.32c1.37,0.4,1.74,1.12,1.25,2.23c-1.4,3.17-8.27,5.86-12.03,4.71
				c-3.19-0.97-5.25-5.25-4.45-9.26c0.98-4.92,7.46-7.66,13.55-5.72L235.91,311.34z"/>
			<path class="st8" d="M162.07,322.29c-2.9-1.72-5.79-4.54-9.21-1.61c-1.7,1.46-2.02,3.89-0.87,5.73
				c2.38,3.81,6.08,2.69,10.51,1.32c-1.42,4.52-4.37,4.1-6.99,3.86c-5.95-0.54-9.14-3.87-8.39-8.51c0.9-5.62,4.3-7.84,10.18-6.67
				C161.51,317.27,162.85,318.82,162.07,322.29"/>
			<path class="st8" d="M235.96,311.39c0.97-0.73-0.61-1.91,0.52-2.62c11.09-5.86,11.09-5.86,13.04-3.45
				c-1.23,0.86-2.45,1.71-3.97,2.77c1.43,3.4,2.86,6.8,4.29,10.2c-0.64,1.52-2.3,1.37-3.64,2.48c-1.64-3.75-3.17-7.25-4.69-10.73
				c-1.98,0.46-3.79,0.88-5.6,1.3C235.91,311.34,235.96,311.39,235.96,311.39"/>
			<path class="st8" d="M95.31,305.59c1.96-3.13,3.92-6.26,5.78-9.24c-0.42-2.17-4.66-2.56-2.36-5.71
				c7.84,3.93,11.33,7.12,10.78,9.84c-1.84,0.48-2.71-1.82-4.78-1.53c-0.82,1.33-1.75,2.84-2.68,4.35
				c-0.93,1.52-1.87,3.04-2.81,4.57C97.45,307.93,96.46,306.85,95.31,305.59"/>
			<path class="st8" d="M185.4,319.93c0.21,3.9,0.41,7.47,0.61,11.02c2.66,1.28,5.36-0.13,7.87,0.6c-0.21,2.74-3.36,3.44-12.07,2.63
				V320C182.88,319.29,183.93,319.61,185.4,319.93"/>
			<path class="st8" d="M272.59,298.06c-0.38-3.03-3.26-4.68-4.16-7.53c0.31-1.34,1.43-1.79,2.76-2.23c3.14,2.07,4.24,6.01,7.2,8.39
				c3.22-1.2,4.7-5.02,8.37-5.31c0,0-0.05-0.05-0.05-0.05c-0.15,3.19-2.71,4.6-4.75,6.36c-1.75,1.52-3.6,2.93-5.24,4.25
				c-1.22-1.14-2.29-2.14-3.35-3.13l0.07,0.07c-0.28-0.31-0.58-0.6-0.89-0.88L272.59,298.06z"/>
			<path class="st8" d="M119.23,319.77c1.9-4.5,3.72-8.79,5.51-13.01c1.41,0.01,2.33,0.54,3.3,1.41c-0.26,3.91-2.75,7.13-3.52,11.14
				c2.45,1.1,4.93,2.21,7.42,3.32C130.42,325.22,128.75,324.83,119.23,319.77"/>
			<path class="st8" d="M195.66,333.54c-0.33-4.87-0.65-9.51-0.96-14.11c1.33-0.86,2.45-0.76,3.57-0.07
				c1.55,3.49,0.46,7.41,1.81,10.86c2.75,0.83,5.26-0.69,7.83-0.41C207.94,332.73,204.67,333.72,195.66,333.54"/>
			<path class="st8" d="M72.79,273.91c2.48,0.32,2.91-2.6,5.03-3.11c1.42,0.39,1.84,1.67,2.25,3.14c-1.03,1.36-2.08,2.75-3.14,4.15
				c0,0,0.06-0.07,0.06-0.07c-0.52,0.46-0.37,1.25-0.85,1.73c0,0,0.05-0.05,0.05-0.05c-2.69-0.02-3.27,2.87-5.4,3.86
				c-1.45-0.42-1.98-1.89-2.9-2.76c0.14-2.56,3.7-2.64,3.28-5.28l-0.04,0.05c0.33-0.26,0.59-0.59,0.88-0.88l-0.05,0.05
				c0.3-0.29,0.62-0.56,0.88-0.88L72.79,273.91z"/>
			<path class="st8" d="M88.6,293.05c3.1-0.69,3.41-4.17,5.78-5.72c1.4,0.01,1.95,1.15,2.82,2.51c-2.02,4-5.03,7.5-7.62,11.23
				c-2.63-0.73-3.43-2.46-3.42-4.74c0,0-0.04,0.06-0.04,0.06c0.33-0.26,0.6-0.58,0.89-0.88l-0.05,0.06
				c0.69-0.77,0.88-1.88,1.71-2.55L88.6,293.05z"/>
			<path class="st8" d="M253.9,301.36c2.09,3.96,4.09,7.73,6.07,11.47c-0.81,1.46-2.17,1.78-3.72,2.45
				c-2.06-4.03-4.11-8.05-6.22-12.19C250.59,301.24,251.96,301.09,253.9,301.36"/>
			<path class="st8" d="M291.87,251.57c-0.16-0.83-0.12-1.54,0.98-1.6C292.84,250.71,292.63,251.31,291.87,251.57"/>
			<path class="st8" d="M290.89,253.13c-0.07-0.79,0.1-1.43,1.01-1.6C291.9,252.27,291.66,252.86,290.89,253.13"/>
			<path class="st8" d="M76.74,252.41c1,0.13,1.09,0.85,1.07,1.65C77.1,253.74,76.76,253.18,76.74,252.41"/>
			<path class="st8" d="M76.11,251.44c0.54,0.14,0.76,0.48,0.68,1.03C76.56,252.12,76.33,251.78,76.11,251.44"/>
			<path class="st8" d="M290.13,254.23c0.26-0.38,0.52-0.76,0.79-1.14C290.65,253.47,290.39,253.85,290.13,254.23"/>
			<path class="st8" d="M292.8,250c-0.12-0.57,0.13-0.89,0.67-1.03C293.53,249.5,293.34,249.86,292.8,250"/>
			<path class="st10" d="M231.99,138.11c-1.04-13.93,3.11-26.47,10.8-39.24c-0.72,9.1-0.09,17.16,1.55,25.07
				c2.97,14.31-0.23,28.04-3.05,41.91c-2.52,12.35-4.99,24.8-2.82,37.51c1.44,8.4,3.91,16.47,9.8,23.01
				c0.98,1.09,1.76,2.52,4.12,2.9c1.36-4.57-2.17-9.31,0.26-14.26c5.48,4.83,8.88,10.32,8.72,17.55
				c-0.18,8.22-2.89,15.76-6.67,22.94c-6.06,11.51-12.89,22.7-14.14,35.73c-15.03,12.17-65.64,19.78-73.98,11.18
				c0.09-9.16,1.8-18.29,3.07-27.46c1.11-8.03,0.16-15.04-3.63-22.56c4.8-5.9,11.71-8.58,18.75-10.3
				c11.78-2.88,23.18-6.44,33.64-12.7c4.65-2.78,8.07-6.29,8.23-12.08c-0.4-0.32-0.15-1.77-1.31-0.75
				c-2.82,6.73-8.41,10.49-14.68,13.36c-7.18,3.29-14.59,5.84-22.39,7.45c-9.99,2.07-18.99,6.73-27.72,11.93
				c-5.47,3.26-11.08,6.27-16.64,9.37c-2.45,1.37-5.08,1.55-7.62,0.48c-4.14-1.74-8.41-2.5-12.9-2.74c-4.2-0.22-7.42-2.38-9.58-7.37
				c3.84,1.74,6.6,3.58,9.93,4.13c11.14,1.85,18.75-4,25.61-11.49c3.73-4.07,6.32-8.97,9.19-13.64c3.44-5.6,5.04-12.97,13.98-13.08
				c-6.48-1.73-12.15-0.98-17.04,3.33c-3.03,2.68-5.43,5.88-7.69,9.23c-5.86,8.65-12.11,10.42-21.33,5.54
				c-6.69-3.54-13.28-4.98-20.74-2.76c-5.15,1.53-7.62-0.55-8.32-6.27c-0.5-4.12-1.22-7.98-5.3-10.17c-1.88-0.9-2.89-2.37-2.96-4.47
				c-1.69-7.23-0.79-9.26,5.11-11.32c-0.11,1.66-0.27,3.26-0.31,4.88c-0.02,0.65,0.21,1.31,0.47,2.71c1.98-2.26,1.46-4.83,2.7-6.7
				c3.4-5.11,8.14-8.2,13.91-9.88c4.42-1.29,8.6-3.11,12.44-5.63c5.45-3.56,8.41-9.5,6.55-14.35c-1.64-4.27-3.63-8.59-8.09-10.92
				c-0.45-0.49-0.69-1.06-0.64-1.73c1.19-1.32,1.83-3.15,4.32-4.23c4.6,4.86,9.73,9.78,17.53,9.13c1.09-0.09,2.22-0.34,2.6-1.65
				c-8.73-7.5-11.19-16.01-6.68-23.56c1.85,0.88,2.04,2.84,2.68,4.37c2.88,6.79,7.15,8.47,14.96,6.46
				c9.34-2.41,16.18-11.69,16.6-21.42c0.07-1.71,0.32-3.3,1.97-4.94c6-0.75,11.67,1,16.5,5.04c4.87,4.08,10.2,4.47,15.5,1.89
				c4.36-2.12,8.04-3.01,11.73,1.7c0.72-2.15,0-3.48-0.35-4.83c-2.43-9.31-3.07-18.5,1.01-27.64c2.25-5.05,5.67-9.04,9.84-12.4
				c2.04-1.64,4.8-2.75,7.37-1.21c2.82,1.68,3.19,4.68,2.95,7.71c-0.59,7.33-4.23,13.67-6.67,20.39
				c-3.19,8.81-5.17,17.71-2.18,27.02c0.41,0.28,0.52,0.87,1.1,1.1C231.83,138.89,231.94,138.5,231.99,138.11"/>
			<path class="st11" d="M137.97,81.11c7.12-0.64,10.81,6.81,8.34,16.36c10.73,0.66,14.81,8.92,10.48,21.3
				c1.3,0.57,1.97-0.62,2.86-1.06c0.86-0.42,1.62-1.03,2.34-1.49c7.67,2.72,10.28,11.04,5.61,17.46c-3.38,4.65-6.98,9.1-13.24,9.76
				c-6.5,0.68-9.84-1.96-10.73-8.47c-0.28-2.03-0.04-4.13-0.04-5.96c1.41-1.78,3.68-1.98,4.86-4.24c-5.06,0.24-9.98,0.22-11.86-5.71
				c-1.49-4.72-2.37-9.38,0.61-13.91c-6-1.45-7.5-8.44-5.7-18.33c-7.12-5.4-7.37-12.92-6.41-21.41c-4.97-3.68-3.66-9.54-4.19-15.76
				c4.34,4.22,8.14,7.79,8.39,13.71C136.36,67.04,138.26,73.38,137.97,81.11"/>
			<path class="st12" d="M248.84,138.7v-14.21c1.42,2.77,2.45,4.77,3.48,6.77c7.9,12.55,7.68,26.13,4.9,39.95
				c-1.11,5.54-2.33,11.07-4.02,16.49c-1.79,5.71-0.39,11.85-2.33,17.55c-1.63,4.23-2.7,8.6-2.7,13.59
				c-1.77-0.96-1.66-2.48-2.21-3.58c-3.27-9.14-2.61-18.66-1.79-27.96c0.99-11.13,1.98-22.31,4.4-33.31
				C249.66,149.02,248.93,143.8,248.84,138.7"/>
			<path class="st12" d="M160.99,103.94c-1.11-1.88-2.48-3.7-1.14-6.55c3.16-1.76,6.91-2.86,10.86-3.41
				c5.65,0.52,10.32,3.43,14.05,7.23c6.47,6.58,14.38,9.5,23.11,11.13c1.86,0.35,4.25-0.14,5.36,2.2c0.22,1.51,0.45,3.02,0.68,4.53
				c-4.52,3.22-9.41,1.3-14,0.59c-6.56-1.01-12.76-3.35-18.66-6.57c-5.8-3.17-11.6-6.47-18.19-7.87
				C162.22,105.03,161.5,104.64,160.99,103.94"/>
			<path class="st13" d="M276.7,264.24c-0.73,0.78-1.17,1.91-2.94,2.02c-6.02-7.99-8.28-17.38-8.82-27.34
				c-0.25-4.53,0.44-9.13-1.15-13.54c-0.48-4.85,0.32-9.65,0.9-14.42c1.41-11.55,0.04-23.16,1.18-34.7
				c0.11-1.11,0.26-2.19,0.76-3.19c0.18-0.48,0.35-0.95,0.62-1.67c2.96,1.84,4.33,4.48,5.29,7.41c0.43,0.59,0.48,1.3,0.5,1.98
				c0.49,15.59,0.88,31.16-1.87,46.64c-1.97,11.06,0.05,21.72,4.11,32.07C275.9,261.04,276.72,262.52,276.7,264.24"/>
			<path class="st12" d="M117.05,133.98c0.84-0.68,1.59-1.53,3.05-1.53c0.97,1.64,0.16,3.49,0.54,5.16
				c0.49,4.02-0.55,7.53-2.95,10.84c-3.92,5.39-5.91,11.43-5.44,18.22c0.39,5.73-1.27,11.18-2.72,16.64c-0.44,1.66-1.37,2.99-2.75,4
				c-2.56,1.53-5.12,3.07-7.62,4.57c-3.1-0.76-5.39-2.25-6.49-5.21c10.25-4.68,12.02-13.83,12.28-23.65
				c0.1-3.87,0.23-7.72,0.98-11.53c0.77-3.89,2.18-7.36,5.41-9.95C113.85,139.53,115.13,136.5,117.05,133.98"/>
			<path class="st14" d="M250.87,205.24c-0.85-5.97-0.42-11.9,0.88-17.75c1.18-5.27,2.49-10.52,3.93-15.72
				c3.41-12.29,3.3-24.36-1.88-36.19c-0.61-1.39-0.99-2.88-1.48-4.33c5.07,5.28,8.7,11.31,10.25,18.59
				c2.26,10.62,0.92,20.91-2.57,30.98C257.14,189.03,253.92,197.1,250.87,205.24"/>
			<path class="st14" d="M117.05,133.98c-0.26,2.94-1.74,5.45-3.86,7.16c-6.12,4.91-6.97,11.7-6.95,18.69
				c0.02,7.04-0.86,13.72-4.05,20.13c-2.06,4.14-4.79,6.69-9.53,6.71c-2.3-3.22-3.81-6.66-3.11-10.73
				c8.94-0.58,11.14-3.12,10.98-12.19C100.3,150.67,105.24,140.41,117.05,133.98"/>
			<path class="st12" d="M276.7,264.24c-4.26-5.58-5.48-12.25-6.72-18.91c-1.7-9.15-0.27-18.21,0.94-27.24
				c1.16-8.66,1.88-17.28,0.97-26.03c-0.45-4.39-0.15-8.85,0.66-13.24c4.11,6.69,3.06,14.04,2.95,21.35
				c-0.17,11.74-2.84,23.3-2.18,35.08c0.26,4.71,0.66,9.37,3.07,13.59c2.51,3.27,3.51,7.07,3.85,11.1
				C279.28,261.54,278.2,263.07,276.7,264.24"/>
			<path class="st14" d="M213.22,114.53c-4.44-1.01-8.9-1.94-13.31-3.05c-4.75-1.2-9.12-3.31-12.66-6.74
				c-4.83-4.69-10.37-8.19-16.56-10.76c5.89-1.98,11.71-2.27,17.37,0.78c3.42,0.79,6.31,2.43,8.83,4.95
				c3.16,3.16,7.22,4.95,11.28,6.66c1.64,0.69,3.39,1.18,4.64,2.57C213.44,110.77,213.39,112.65,213.22,114.53"/>
			<path class="st15" d="M266.65,173.08c0.57,16.01,0.4,31.99-1.8,47.9c-0.21,1.49-0.7,2.94-1.06,4.41
				c-0.92-4.42-4.31-7.27-6.81-10.69c-1.21-4.18-0.98-8.4,0.04-12.53c0.56-2.24,0.55-4.6,1.44-6.76c2.29-6.92,5.98-13.38,6.95-20.76
				C265.49,174.09,266.22,173.6,266.65,173.08"/>
			<path class="st13" d="M160.99,103.94c8.02,0.61,14.57,4.92,21.42,8.47c9.88,5.11,20.22,8.06,31.48,6.66
				c0.44,0.88,0.78,1.77,0.08,2.98c-3.13,0.12-6.27,1.04-9.43,1.89c-3.88,1.04-7.47,0.62-11.01-1.69c-7.1-4.63-15-6.76-23.53-6.32
				c-2.18-1.78-4.18-3.69-6.71-4.84C162.5,108.61,161.75,106.27,160.99,103.94"/>
			<path class="st12" d="M255.16,283.04c-2.7,2.12-5.46,4.13-9.17,5.72c-0.09-16.13,11.14-27.29,16.11-42.07
				c0.6,3.1,0.98,5.05,1.35,7.01C263.88,264.38,260.29,273.93,255.16,283.04"/>
			<path class="st14" d="M280.25,259.94c-1.82-3.51-3.1-7.21-3.84-11.1c2.25-2.09,0.98-4.62,0.74-6.94
				c-0.95-9.3-0.56-18.51,0.88-27.96c2.15,1.06,2.76,2.78,3.65,4.27c1.17,2.57,1.37,5.29,1.3,8.06c-0.2,8.54,0.2,17.04,1.38,25.51
				c0.2,0.48,0.22,0.97,0.07,1.47C283.41,255.71,282.09,257.99,280.25,259.94"/>
			<path class="st13" d="M248.84,138.7c2.79,9.97,0.07,19.7-1.18,29.52c-1.93,15.2-3.97,30.42-1.65,45.79
				c0.06,0.4-0.04,0.83-0.06,1.24c-4.37-7.48-4.81-15.77-4.52-24.07c0.44-12.48,3.43-24.61,5.54-36.86
				C247.87,149.16,248.24,143.91,248.84,138.7"/>
			<path class="st12" d="M133.79,154.84c-1.39,0.43-1.94-0.64-2.67-1.46c-7.41-8.22-9-19.97-3.95-29.78
				c1.26-2.45,2.68-4.81,4.4-7.88c1.5,3.65,2.78,6.75,4.05,9.85c0.17,2.62-1.22,4.78-2.26,6.97c-2.86,6.02-2.23,11.99-0.26,18.03
				C133.56,151.96,134.65,153.24,133.79,154.84"/>
			<path class="st13" d="M106.77,187.32c2.74-6.71,4.65-13.66,4.23-20.93c-0.4-7,1.8-13,5.76-18.52c2.22-3.09,3.92-6.33,3.87-10.25
				c0.77,3.48,1.53,6.96,2.35,10.71c-1.28,1.79-2.34,4.02-4.04,5.51c-4.06,3.55-4.83,7.98-4.67,13.01
				c0.18,5.76-0.41,11.55,1.22,17.18C112.64,185.97,109.65,186.5,106.77,187.32"/>
			<path class="st11" d="M155.9,224.28c0.06,0.44,0.28,0.9,0.15,1.22c-4.31,10.12-10.7,18.49-20.88,23.2
				c-5.79,2.68-14.57,0.22-17.77-4.69c3.42-0.97,6.63-0.06,9.77,0.37c5.53,0.77,10,0.01,14.03-4.71c3.65-4.28,7.93-8.05,11.15-12.77
				C153.15,225.71,154.06,224.37,155.9,224.28"/>
			<path class="st15" d="M255.16,283.04c3.28-9.63,7-19.14,8.29-29.33c2.53,5.24,3.79,10.81,4.42,16.56
				c0.19,1.75-0.07,3.31-1.55,4.41C262.59,277.46,259.31,280.83,255.16,283.04"/>
			<path class="st15" d="M284.22,252.26c-3.04-3.93-1.93-8.71-2.32-13.06c-0.63-6.94-0.2-13.98-0.22-20.98
				c2.99,3.61,4.52,7.9,5.71,12.34c2.24,7.36,0.25,14.24-2.37,21.05l-0.07,0.27C284.88,252.34,284.65,252.48,284.22,252.26"/>
			<path class="st11" d="M128.57,241.63c-3.01-0.39-6-0.85-9.02-1.14c-4.83-0.48-8.09-2.95-10.24-7.67
				c9.94-2.84,16.32,6.07,24.95,6.3c-0.1,2.05-1.49,1.93-2.34,2.46c-0.27,0.15-0.55,0.19-0.85,0.12c-0.55,0-1.1,0.01-1.64,0.01
				C129.14,241.75,128.85,241.73,128.57,241.63"/>
			<path class="st13" d="M133.79,154.84c-5.39-10.13-4.29-19.85,1.83-29.26c1.32,1.2,2.77,2.3,3.28,4.62
				c-5.51,8.02-8.03,16.63-1.57,25.83C135.58,157,134.82,155.52,133.79,154.84"/>
			<path class="st16" d="M212.81,108.94c-6.62-1.74-12.79-4.37-17.55-9.49c-2.04-2.2-4.98-2.85-7.19-4.7
				c3.53-1.04,6.48,0.69,9.43,2.11c5.08,2.45,9.46,6.15,14.55,7.96C213.29,106.25,213.31,107.55,212.81,108.94"/>
			<path class="st10" d="M126.09,169.28c-2.06-2.84-4.95-3.83-8.45-3.62c-0.89-2.21,0.07-3.78,1.28-5.66
				c5.03,0.65,6.46,4.57,8.14,8.23C127.18,168.99,126.82,169.3,126.09,169.28"/>
			<path class="st16" d="M258.47,195.41c-0.5,6.43-0.99,12.86-1.49,19.28c-1.47-0.55-2.34-1.8-3.65-3.04
				C254.53,206.12,256.01,200.62,258.47,195.41"/>
			<path class="st8" d="M285.03,251.61c-0.53-2.4,0.42-4.61,1.02-6.82c1.27-4.68,1.32-9.44,1.35-14.22
				C290.25,237.99,290.33,245.1,285.03,251.61"/>
			<path class="st17" d="M119.09,182.82c-3.56-6.6-3.06-12.72,1.17-13.6C118.36,173.8,120.71,178.42,119.09,182.82"/>
			<path class="st11" d="M124.21,176.29c-1.56,0.04-2.42-0.55-2.18-1.93c0.25-1.48,1.39-1.4,2.47-1.16
				C125.32,174.31,125.43,175.26,124.21,176.29"/>
			<path class="st8" d="M89.91,214.08c-1.3-0.74-1.76-2.06-2.32-3.31c0.51-0.46,1.02-0.92,1.54-1.38c0.99,1.49,1.97,2.98,2.96,4.47
				C91.36,213.94,90.63,214.01,89.91,214.08"/>
			<path class="st8" d="M231.99,138.11c0.15,0.77,0.3,1.53,0.47,2.42c-1.12-0.5-1.59-1.21-1.49-2.27
				C231.31,138.21,231.65,138.16,231.99,138.11"/>
			<path class="st8" d="M126.09,169.28c0.32-0.35,0.65-0.7,0.97-1.05c1.21,0.92,0.6,2.16,0.83,3.63
				C126.52,171.2,126.56,170.07,126.09,169.28"/>
			<path class="st8" d="M225.34,216.56c0.04-0.83,0.16-1.61,1.14-1.91c0.65,0.87,0.5,1.76,0.17,2.66
				C226.21,217.06,225.77,216.81,225.34,216.56"/>
			<path class="st8" d="M279.1,185.7c0.46,0.52,0.56,1.1,0.25,1.73C278.52,186.97,278.09,186.44,279.1,185.7"/>
			<path class="st8" d="M121.27,156.45c0.21,0.58,0.43,1.16,0.64,1.74c-0.46-0.12-0.93-0.24-1.27-0.34
				C120.41,156.98,120.7,156.63,121.27,156.45"/>
			<path class="st8" d="M279.25,205.61c0.18,0.85,0.36,1.7,0.54,2.55C278.85,207.47,278.96,206.56,279.25,205.61"/>
			<path class="st8" d="M284.22,252.26c0.25-0.12,0.49-0.25,0.74-0.38c-0.17,0.46-0.35,0.91-0.52,1.37
				C284.36,252.92,284.29,252.59,284.22,252.26"/>
			<polygon class="st8" points="113.38,246.08 113.12,246.19 113.15,245.92 			"/>
			<path class="st8" d="M128.57,241.63c0.29,0.02,0.57,0.05,0.86,0.07C129.09,242.28,128.81,242.17,128.57,241.63"/>
			<path class="st8" d="M131.07,241.69c0.28-0.04,0.57-0.08,0.85-0.12C131.71,242.11,131.45,242.29,131.07,241.69"/>
			<path class="st8" d="M279.25,203.12c0.08,0.21,0.18,0.41,0.22,0.63c0.01,0.07-0.15,0.16-0.23,0.25
				C279.24,203.7,279.24,203.41,279.25,203.12"/>
			<path class="st7" d="M269.27,302.64c-1.01,2.65-2.95,3.49-4.46,4.61c-1.81-0.3-1.95-1.57-2.38-2.95
				C264.62,303.47,265.96,300.07,269.27,302.64"/>
			<path class="st7" d="M264.93,297.78c-0.2,2.56-2.47,2.88-3.91,4.28C259.68,298.75,260.9,297.55,264.93,297.78"/>
			<path class="st7" d="M272.54,298c0.73-0.15,0.85,0.33,0.89,0.88C272.49,299.24,272.27,298.87,272.54,298"/>
			<path class="st7" d="M65.85,272.04c-2.76-0.98-4.24-2.9-5.46-5.43c2.14-1.73,4.28-3.46,6.38-5.16
				C72.03,265.83,71.73,269.38,65.85,272.04"/>
			<path class="st7" d="M72.85,273.86c0.3,0.89,0,1.18-0.88,0.88C71.9,274.09,72.19,273.8,72.85,273.86"/>
			<path class="st7" d="M72.02,274.7c0.3,0.89,0,1.18-0.88,0.88C71,274.86,71.37,274.64,72.02,274.7"/>
			<path class="st7" d="M167.94,329.56c-0.61-2.72-0.81-5.12,1.54-7.09c2.25-0.42,4.71-1.02,5.97,1.79c0.96,2.12,0.98,4.5-0.95,6.06
				C172.38,332.04,170.14,331.39,167.94,329.56"/>
			<path class="st7" d="M88.65,293.01c0.58,1.62-0.23,2.31-1.71,2.55C87,294.36,86.78,292.99,88.65,293.01"/>
			<path class="st7" d="M76.14,279.75c-0.69-1.06,0.12-1.38,0.85-1.73C77.93,279.2,77.12,279.52,76.14,279.75"/>
			<path class="st7" d="M87,295.5c0.17,0.76,0.09,1.28-0.89,0.88C86.08,295.76,86.3,295.4,87,295.5"/>
			<path class="st7" d="M110.59,310.11c0.92-1.62,2.16-2.57,3.82-3.61v5.15C112.73,311.79,111.78,310.81,110.59,310.11"/>
			<path class="st6" d="M151.19,183.76c0.24-11.24,10.44-23.92,20.93-26.01c8.18-1.63,15.28,2.62,17.78,10.55
				c1.49,4.73,1.48,9.56,1.04,14.39c-0.33,3.63-3.4,5.2-6.21,6.65C176.77,193.44,157.72,190.21,151.19,183.76"/>
			<path class="st6" d="M134.81,213.4c-1.91-2.61-1.23-4.9,0.35-7.01c1.51-2.02,3.66-2.14,5.96-1.69c2.13,0.42,4.29,0.69,6.42,1.02
				C143.82,211.49,139.43,214.21,134.81,213.4"/>
			<path class="st6" d="M141.1,200.66c-1.12,0.75-2.41,0.48-3.64,0.58c-6.89,0.56-9.88,3.51-10.44,10.34
				c-0.06,0.66-0.24,1.32-0.38,2.08c-4.41-3.99-2.05-10.98,4.49-13.87c0.46-0.41,1.03-0.39,1.59-0.44c1.13-0.04,2.27-0.08,3.41-0.12
				C137.63,200.2,140.05,198.04,141.1,200.66"/>
			<path class="st8" d="M141.1,200.66c-1.34-1.59-3.61,0.05-4.98-1.43c2.11-0.53,4.2-0.32,6.26-0.08
				C142.75,200.59,141.99,200.69,141.1,200.66"/>
			<path class="st8" d="M132.71,199.35c-0.42,0.55-0.98,0.59-1.59,0.44C131.55,199.3,132.06,199.06,132.71,199.35"/>
			<path class="st10" d="M159.59,171.54c3.65-6.02,8.32-10.41,15.76-10.83c4.75-0.27,7.61,2.22,10.28,6.78
				C175.91,164.93,167.58,166.73,159.59,171.54"/>
			<path class="st18" d="M162.58,185.64c-2.93-1.09-5.17-1.93-7.76-2.9c2.3-3.75,4.61-6.76,8.89-9.16
				C162.34,177.85,162.27,181.37,162.58,185.64"/>
			<path class="st11" d="M181.59,179.16c-2.13-0.36-3.09-1.75-2.84-3.8c0.24-1.96,1.28-3.47,3.53-3.21
				c1.84,0.21,3.08,1.39,3.01,3.32C185.2,177.71,183.93,179.01,181.59,179.16"/>
			<path class="st11" d="M172.57,179.02c1.84-0.12,2.71,0.68,2.57,2.15c-0.15,1.59-1.28,1.93-2.74,1.48
				C171.16,181.46,171.25,180.31,172.57,179.02"/>
			<polygon class="st7" points="60.2,248.78 77.82,264.2 109.31,293.67 141.27,307.38 171.67,314.43 200.75,313.11 232.47,306.5 
				253.18,295.04 273.45,277.86 290.19,264.2 298.56,254.07 308.25,255.83 313.54,267.73 303.41,286.67 277.41,306.5 251.42,326.33 
				207.36,338.22 167.7,338.22 135.98,331.17 106.9,320.6 77.82,299.89 62.84,283.59 51.38,268.17 49.62,258.47 			"/>
			<path class="st8" d="M54.25,267.35c3.97-2.89,7.95-5.77,11.92-8.66c0.92,1.19,2.97,3.79,4.49,5.66
				c3.02,3.73,4.31,8.68,0.65,12.34c-3.9,3.9-9.5,0.76-12.21-2.87C58.37,272.86,54.25,267.35,54.25,267.35 M59.34,269.54
				c2,2.75,5.41,6.98,8.99,3.83c3.43-3.02,0.4-6.74-1.8-9.4C63.65,266.2,62.21,267.31,59.34,269.54"/>
			<path class="st8" d="M69.92,285.84c-1.32-1.33-1.97-2.01-3.25-3.39c3.61-3.38,7.23-6.76,10.84-10.14
				c0.44,0.48,0.67,0.72,1.12,1.19c0.77,0.81,1.66,2.05,0.7,3.01C76.19,279.62,73.06,282.73,69.92,285.84"/>
			<path class="st8" d="M79.35,291.45c1.76,1.55,3,1.73,3,1.73c1.1-1.3,1.65-1.96,2.74-3.26c0.67,0.56,1,0.84,1.67,1.39
				c1.25,1.03,1.24,2.01,0.41,3.06c-0.9,1.13-1.34,1.7-2.24,2.83c-2.04-0.03-4.37-1.24-7.1-3.57c-3.86-3.3-6.06-8.22-2.01-12.24
				c3.68-3.66,8.56-2.44,12,0.83c3.09,2.94,3.94,5.7,2.98,6.91c-0.52,0.65-1.53,0.54-2.25,0.39c0.27-0.74-0.16-2.81-2.51-4.88
				c-2.27-2-4.68-2.56-7.11,0.04C76.88,286.89,77.2,289.55,79.35,291.45"/>
			<path class="st8" d="M88.4,301.88c-1.46-1.08-2.19-1.63-3.63-2.76c3.05-3.9,6.1-7.8,9.15-11.7c0.5,0.39,0.75,0.58,1.25,0.97
				c0.85,0.66,1.9,1.72,1.1,2.82C93.64,294.76,91.02,298.32,88.4,301.88"/>
			<path class="st8" d="M97.95,290.47c3.41,2.49,6.94,4.83,10.56,7c1.35,0.81,1.29,1.5,0.6,2.7c-0.18,0.3-0.26,0.45-0.44,0.75
				c-1.83-1.07-2.74-1.62-4.54-2.76c-2.13,3.37-4.26,6.74-6.39,10.12c-1.52-0.96-2.28-1.46-3.78-2.47c2.23-3.31,4.45-6.62,6.68-9.93
				c-1.1-0.74-1.65-1.12-2.73-1.89c-1.51-1.07-1.2-1.81-0.43-2.87C97.66,290.86,97.76,290.73,97.95,290.47"/>
			<path class="st8" d="M113.63,314.72c-2.58-1.26-3.86-1.92-6.39-3.31c-0.68,0.6-1.02,0.89-1.71,1.48
				c-1.59-0.88-2.39-1.34-3.96-2.27c4.01-3.21,7.93-6.5,11.77-9.9c1.09-0.15,5.3,1.52,5.14,3.52c-0.39,4.91-0.61,9.84-0.66,14.77
				c-1.73-0.77-2.59-1.17-4.3-1.99C113.56,316.1,113.58,315.64,113.63,314.72 M109.32,309.52c1.81,0.98,2.72,1.45,4.56,2.36
				c0.19-2.75,0.3-4.12,0.58-6.85C112.44,306.86,111.41,307.76,109.32,309.52"/>
			<path class="st8" d="M124.41,305.69c0.58,0.25,0.87,0.38,1.45,0.63c1.57,0.67,2.21,1.03,1.64,2.41
				c-1.32,3.24-2.65,6.48-3.97,9.72c3.27,1.33,4.92,1.94,8.25,3.08c-0.36,1.04-0.54,1.56-0.9,2.61c-4.23-1.44-8.39-3.06-12.48-4.86
				L124.41,305.69z"/>
			<path class="st8" d="M154.72,327.79c2.57,0.46,5.04-0.15,5.88-1.23c0,0,0.29,0.12,0.52,0.39c0.24,0.29,0.47,0.73,0.4,1.29
				c-0.29,2.16-4.86,2.45-7.76,2.06c-4.75-0.65-8.62-4.28-7.38-9.28c1.15-4.66,5.53-6.75,10.07-5.7c3.13,0.72,6.23,2.28,5.92,4.51
				c-0.15,1.09-1.65,1.39-1.65,1.39c-0.23-1-1.68-2.37-4.55-2.89c-2.53-0.46-4.83,0.15-5.58,3.65
				C149.73,325.91,152.23,327.35,154.72,327.79"/>
			<path class="st8" d="M171.65,317.17c4.37,0.5,8.38,3.25,8.14,8.14c-0.25,5.22-4.48,7.31-9.3,7.15c-4.9-0.17-8.71-3.26-8-8.41
				C163.15,319.24,166.92,316.63,171.65,317.17 M170.72,329.53c3.38,0.25,4.66-1.08,4.81-4.28c0.15-3.26-0.94-4.66-4.12-4.9
				c-3.08-0.23-4.37,1.04-4.71,4.24C166.37,327.79,167.44,329.29,170.72,329.53"/>
			<path class="st8" d="M180.84,317.81c0.62,0.01,0.94,0.01,1.56,0.01c1.68,0,2.4,0.09,2.43,1.57c0.06,3.5,0.11,6.99,0.17,10.49
				c3.49-0.06,5.23-0.13,8.71-0.38c0.08,1.1,0.12,1.65,0.2,2.75c-4.4,0.32-8.82,0.45-13.23,0.4
				C180.72,327.71,180.78,322.76,180.84,317.81"/>
			<path class="st8" d="M193.71,317.39c0.62-0.05,0.93-0.07,1.56-0.13c1.67-0.15,2.4-0.13,2.56,1.35c0.37,3.48,0.74,6.96,1.11,10.43
				c3.47-0.36,5.2-0.6,8.65-1.15c0.18,1.09,0.27,1.63,0.44,2.72c-4.36,0.7-8.75,1.23-13.15,1.57
				C194.49,327.25,194.1,322.32,193.71,317.39"/>
			<path class="st8" d="M206.51,315.82c4.33-0.73,8.63-1.65,12.87-2.77c0.47,0.82,1.1,2.71-1.21,3.29c-2.86,0.71-4.3,1.03-7.19,1.6
				c0.23,1.16,0.34,1.74,0.57,2.89c3.39-0.67,5.08-1.05,8.43-1.91c0.25,0.98,0.38,1.47,0.63,2.44c-3.41,0.88-5.13,1.26-8.58,1.94
				c0.29,1.46,0.44,2.2,0.73,3.66c3.04-0.6,4.56-0.93,7.57-1.68c2.74-0.68,3.28,1.1,3.2,2.02c-4.79,1.27-9.65,2.32-14.54,3.15
				C208.17,325.57,207.34,320.69,206.51,315.82"/>
			<path class="st8" d="M232.41,322.12c2.49-0.84,4.39-2.56,4.6-3.91c0,0,0.31-0.03,0.65,0.09c0.36,0.13,0.77,0.41,0.98,0.94
				c0.79,2.04-3.12,4.5-5.86,5.54c-4.49,1.72-9.65,0.41-10.99-4.59c-1.25-4.65,1.61-8.57,6.1-9.83c3.11-0.87,6.61-1.01,7.42,1.09
				c0.4,1.03-0.78,2.02-0.78,2.02c-0.69-0.76-2.64-1.27-5.43-0.34c-2.46,0.82-4.18,2.45-3.15,5.89
				C227.09,322.86,229.99,322.93,232.41,322.12"/>
			<path class="st8" d="M234.86,308.01c3.87-1.57,7.62-3.23,11.39-5.02c1.4-0.69,1.95-0.27,2.58,0.96c0.16,0.31,0.24,0.46,0.4,0.77
				c-1.88,0.96-2.82,1.42-4.73,2.31c1.69,3.61,3.38,7.23,5.06,10.84c-1.61,0.75-2.42,1.11-4.05,1.81
				c-1.59-3.66-3.17-7.32-4.76-10.98c-1.19,0.52-1.79,0.77-3,1.25c-1.68,0.68-2.12,0.02-2.6-1.2
				C235.04,308.46,234.98,308.31,234.86,308.01"/>
			<path class="st8" d="M259.52,312.8c-1.56,0.87-2.35,1.29-3.94,2.11c-2.28-4.39-4.57-8.78-6.85-13.18
				c0.55-0.28,0.82-0.43,1.37-0.72c0.93-0.5,2.31-0.99,2.97,0.19C255.22,305.07,257.37,308.94,259.52,312.8"/>
			<path class="st8" d="M253.14,299.45c1.08-0.73,4.39-2.79,6.1-3.87c4.34-2.75,6.89-2.49,8.2-0.63c1.22,1.74-0.13,3.35-0.36,3.61
				c0.27-0.11,3.03-1.34,4.82,1.24c2.2,3.18-1.58,6.62-4.05,8.11c-2.21,1.35-4.83,2.93-7.45,4.41
				C257.98,308.02,255.56,303.74,253.14,299.45 M259.52,302.16c1.06-0.64,1.59-0.97,2.64-1.63c1.93-1.22,2.14-2.14,1.66-2.86
				c-0.47-0.71-1.36-0.86-3.25,0.33c-1.03,0.65-1.55,0.97-2.59,1.6C258.59,300.62,258.9,301.14,259.52,302.16 M262.85,307.69
				c1.34-0.81,2-1.22,3.32-2.06c1.74-1.11,2.48-2.38,1.73-3.51c-0.78-1.16-2.18-0.95-3.88,0.13c-1.29,0.82-1.93,1.22-3.24,2.01
				C261.6,305.63,262.02,306.31,262.85,307.69"/>
			<path class="st8" d="M266.57,290.73c0.53-0.38,0.79-0.57,1.31-0.96c1.41-1.04,2.06-1.43,2.97-0.25l6.39,8.33
				c2.89-2.22,4.3-3.38,7.08-5.79c0.72,0.83,1.08,1.25,1.8,2.09c-3.49,3.03-7.11,5.91-10.85,8.62
				C272.37,298.76,269.47,294.74,266.57,290.73"/>
			<path class="st8" d="M277.12,282.3c3.51-3.09,6.86-6.35,10.04-9.76c0.84,0.43,2.39,1.7,0.62,3.54c-2.19,2.28-3.31,3.38-5.59,5.51
				c0.8,0.86,1.2,1.3,2.01,2.16c2.68-2.5,3.99-3.8,6.54-6.5c0.73,0.7,1.1,1.04,1.83,1.74c-2.59,2.74-3.93,4.06-6.65,6.61
				c1.02,1.09,1.52,1.64,2.54,2.73c2.4-2.24,3.58-3.4,5.88-5.8c2.09-2.18,3.5-0.96,3.9-0.11c-3.66,3.83-7.41,7.49-11.34,11.04
				C283.64,289.75,280.38,286.02,277.12,282.3"/>
			<path class="st8" d="M291.49,274.73c-2.81-2.43,0-7.3,2.04-9.72c1.28-1.52,4.98-5.68,7.18-4.06c0.62,0.45,0.95,1.11,0.43,2.16
				c-3.33-0.15-7.44,6.72-6.46,7.56c1.53,1.3,7.99-8.95,12.4-5.9c3.09,2.14-0.31,8.07-2.39,10.53c-2.39,2.82-6.34,6-7.9,4.56
				c-0.47-0.43-0.91-1.26-0.42-2.02c3.37,0.09,8.54-7.59,7.61-8.32C302.67,268.49,295.95,278.59,291.49,274.73"/>
		</g>
	</g>
</g>
<path class="st19" d="M344.35,280.16c0-4.47,2.62-14.72,1.12-15.64c-0.82-0.5-3.45,1.75-4.47,3.35c-2.06,3.23-2.03,3.63-4.47,7.82
	c-1.64,2.81-2.7,4.65-3.35,4.47c-1.15-0.32-0.3-6.76,0-8.94c1.24-9.1,1.89-13.65,5.59-22.35c7.25-17.05,5.3-47.83,12.29-50.28
	c2-0.7,3.35,0,3.35,0c0.6,0.97,1.32,0.12,2,2.81c0.36,3.69,1.63,8.21,2.47,8.36c1.57,0.28,4.33-7.58,5.59-11.17
	c2.23-6.35,2.96-10.12,3.35-10.06c0.56,0.09,0.16,7.9-1.12,16.76c-4.81,33.26-15.59,36.23-13.41,53.63
	c0.43,3.43,1.92,11.83-2.23,17.88c-0.44,0.64-3.52,5.13-5.59,4.47C344.99,281.13,344.35,280.79,344.35,280.16z"/>
</svg>
