<?xml version="1.0" encoding="utf-8"?>
<!-- Generator: Adobe Illustrator 23.0.3, SVG Export Plug-In . SVG Version: 6.00 Build 0)  -->
<svg version="1.1" xmlns="http://www.w3.org/2000/svg" xmlns:xlink="http://www.w3.org/1999/xlink" x="0px" y="0px"
	 viewBox="0 0 1024 1024" style="enable-background:new 0 0 1024 1024;" xml:space="preserve">
<style type="text/css">
	.st0{fill:#0A0C0C;}
	.st1{fill:#01CBE3;}
	.st2{fill:#353637;}
	.st3{fill:#0A0C0C;stroke:#000000;stroke-width:0.25;stroke-miterlimit:10;}
	.st4{fill:#9B8FE3;}
	.st5{fill:#FDFDFD;}
	.st6{fill:#BF1876;}
	.st7{fill:#1C3BB4;}
	.st8{fill:#21BB4C;}
	.st9{fill:#D16034;}
	.st10{fill:#9142AE;}
	.st11{fill:#C58484;}
	.st12{fill:#C68484;}
</style>
<g id="Layer_2">
</g>
<g id="Layer_3">
</g>
<g id="Layer_1">
	<g>
		<g>
			<path class="st0" d="M255.89,542.33c-0.2,0.04-0.41,0.05-0.61,0.07c-0.07,1.47-0.13,2.93-0.22,4.4c-0.1,1.81-0.94,3.26-2.12,4.28
				c0.15,0.43,0.29,0.85,0.44,1.28c0.38-2.19,1.93-3.79,3.81-4.55c-0.39-1.52-0.78-3.05-1.15-4.58
				C255.97,542.93,255.93,542.63,255.89,542.33z"/>
			<path class="st0" d="M996.03,445.7c-17.03-109.55-69.22-201.63-143.08-281.91C772.23,76.06,671.27,27.1,552.52,16.04
				C450.19,6.52,355.32,30.47,267.8,83.59c-59,35.81-105.16,84.95-145.51,140.56C42.5,334.13,7.99,455.84,27.41,590.69
				c18.68,129.75,79.86,236.41,183.44,317.45c87.53,68.48,187.89,101.73,298.64,103.6c65.29,1.1,128.2-12.27,188.42-36.86
				c113.68-46.43,197.73-125.85,253.13-234.84c35.88-70.58,50.19-146.81,51.03-225.66C1003.26,491.17,999.56,468.46,996.03,445.7z
				 M490.06,750.49c-1.56,4.94-3.25,9.84-5,14.71c3.45-0.33,7.25,2.02,6.87,5.93c-1.11,11.23-6.97,22.85-11.42,33.05
				c-2.21,5.08-6.46,17.14-12.88,21.6c-1.79,4.16-3.6,8.32-5.44,12.46c-1.84,4.16-6.1,3.69-8.86,1.35c-1.51,1.9-3.13,3.71-4.9,5.38
				c-3.64,3.43-10.74,1.19-10.41-4.31c0.07-1.15,0.21-2.29,0.39-3.43c-1.03,1.13-2.08,2.25-3.15,3.35
				c-4.79,4.88-13.5-1.59-9.58-7.39c1.3-1.92,2.56-3.89,3.8-5.87c-0.28-0.12-0.55-0.26-0.82-0.44c-0.11-0.07-0.21-0.15-0.32-0.22
				c-1.79,1.07-4.09,1.35-6.16,0.22c-0.25-0.14-0.5-0.29-0.76-0.43c-0.62-0.15-1.24-0.43-1.84-0.87c-0.41-0.3-0.81-0.62-1.22-0.92
				c-4.37-2.68-8.51-5.72-12.43-9.04c-1.18,0.99-2.71,1.59-4.32,1.57c-1.59,2.4-4.74,3.64-7.96,1.91c-4.64-2.51-9.06-5.35-13.3-8.42
				c-0.68,0.09-1.38,0.09-2.09-0.04c-1.66-0.31-3.28-0.76-4.87-1.31c-1.83,1.75-4.51,2.46-6.95,0.69
				c-9.46-6.83-18.28-14.36-26.85-22.18c-6.47,6.8-13.57,12.93-21.44,18.29c-5.3,3.61-11.09-3.31-8.35-8.35
				c1.52-2.8,3.15-5.53,4.88-8.19c-1.43,0.78-2.86,1.54-4.31,2.28c-6.46,3.28-11.65-4.29-7.39-9.58c3.05-3.78,6.19-7.52,9.39-11.23
				c-0.06-0.12-0.11-0.25-0.17-0.37c-1.04,0.58-2.07,1.18-3.12,1.74c-2.27,1.2-5.01,0.64-6.95-0.82c-1.57,1.14-3.13,2.28-4.71,3.41
				c-4.09,2.91-7.94-0.28-8.7-4.16c-5.67,3.84-13.2-4.16-7.76-9.31c0.07-0.06,0.13-0.13,0.2-0.19c-3.1-0.15-5.64-2.66-5.73-5.74
				c-0.57-1.8-0.22-3.88,1.64-5.74c1.07-1.07,2.16-2.15,3.25-3.22c-0.38-0.34-0.76-0.67-1.14-1c-0.4,0.28-0.79,0.57-1.2,0.85
				c-4.15,2.86-9.53-1.42-9.22-5.79c-0.38,0.2-0.76,0.41-1.15,0.61c-6.32,3.23-11.62-4.13-7.53-9.39c-1.49-1.5-2.95-3.04-4.38-4.59
				c-1.49-0.69-2.65-2-3.21-3.56c-2.55-2.88-5.06-5.81-7.58-8.73c-1.78-1.96-3.51-3.96-5.25-5.97c-2.66,1.3-6.04,0.94-7.62-2.34
				c-2.33-4.84-4.65-9.71-6.93-14.6c-0.61-0.63-1.12-1.42-1.46-2.42c-0.32-0.94-0.64-1.88-0.96-2.82
				c-15.67-34.04-29.58-69.28-36.63-106.07c-0.57-2.98,0.57-5.2,2.36-6.42c-2.15-0.68-3.88-2.52-3.87-5.57
				c0.01-3.81,0.05-7.62,0.12-11.43c-0.4-1.7-0.81-3.4-1.2-5.1c-0.42-1.85-0.08-3.43,0.7-4.66c-1.21-7.5-2.3-15.02-3.29-22.54
				c0-0.01,0-0.01,0-0.02c0,0,0,0,0,0c-0.07-0.54-0.15-1.08-0.22-1.62c-0.22-1.65,0.28-2.97,1.16-3.95
				c-1.06-0.51-1.98-1.31-2.57-2.35c-6.94-12.07-1.13-28.87,0.9-41.64c3.03-19.09,7.18-37.64,13.32-55.98
				c5.97-17.84,12.77-35.67,21.34-52.44c3.64-7.12,7.71-13.97,12.07-20.67c-1.23-1.63-1.55-3.86-0.02-6.23
				c4.88-7.54,10.67-14.58,16.98-21.22c-1.2-2.02-1.26-4.75,0.82-7.23c15.56-18.54,33.3-35.32,51.96-50.69
				c18.34-15.11,37.87-29.54,59.45-39.7c3.65-1.72,7.53,0.33,8.84,3.33c2.47,0.97,4.32,3.65,4.24,6.31
				c2.98-1.93,5.97-3.85,8.96-5.76c5.79-3.69,12.79,5.22,7.39,9.58c-2.78,2.24-5.56,4.49-8.35,6.73c1.28,2.12,1.47,4.93-0.2,6.95
				c0.06,1.07-0.19,2.18-0.87,3.23c-0.07,0.1-0.14,0.2-0.21,0.3c1.41,2.29,1.59,5.34-0.75,7.42c-1.97,1.75-3.95,3.49-5.92,5.24
				c0.25,0.64,0.43,1.33,0.52,2.04c0.32,2.69,0.02,5.84,0.34,8.75c1.58,0.93,2.69,2.6,2.62,5.02c-0.04,1.39-0.23,2.65-0.7,3.8
				c1.19,1.64,1.53,3.9,0.2,6.33c-7.18,13.14-14.64,26.13-22.08,39.13c2.66-1.95,5.57-3.45,8.71-4.02
				c7.69-1.38,10.96,10.38,3.24,11.76c-5.47,0.98-10.5,7.25-14.2,11.69c-6.29,7.54-11.66,15.86-16.87,24.16
				c-9.43,15-17.49,30.98-27.5,45.61c-2.14,3.12-5.29,3.51-7.7,2.3c-2.65,5.27-5.27,10.55-7.86,15.85c-1.22,2.5-3.31,3.34-5.35,3.08
				c-1.62,8.2-4.42,16.09-9.81,23.36c-0.01,0.01-0.02,0.03-0.03,0.04c0.28,11.75,0.46,23.5,0.47,35.26c0,1.61-0.5,2.89-1.3,3.84
				c0,0.45,0.01,0.9,0.01,1.35c0,2.67-1.74,4.55-3.89,5.43c0,0.35,0,0.7,0,1.05c0,3.23-2.5,5.31-5.23,5.84
				c-0.2,6.46-0.57,12.91-1.19,19.36c2.59-0.24,5.26,1.02,6.2,4.29c6.07,21.17,12.68,42.18,19.63,63.07
				c2.25-0.88,5.05-0.61,6.85,1.12c2.86,2.76,5.75,5.82,8.23,9.15c2.17,1.84,4.23,3.88,6.03,6.08c2.03-0.11,3.75,1.2,4.75,3.06
				c2.72-1.34,6.43-0.45,8.09,2.35c0.87,1.47,1.69,2.98,2.45,4.54c1.58,0.36,3.06,1.19,4.01,2.49c1.86,2.52,3.69,5.48,5.28,8.66
				c2.55,2.68,4.98,5.48,7.3,8.38c1.95,0.01,3.84,0.88,4.86,2.93c0.22,0.44,0.45,0.92,0.7,1.44c3.43-4.55,11.03-4.88,15.88-3.19
				c3.26,1.14,6.39,3.1,9.24,5.57c6.42-0.35,13.25,0.51,17.48,0.74c11.6,0.63,24.73,0.7,36,3.88c1.18,0.33,2.11,0.9,2.8,1.61
				c7.2-1.03,14.43-1.81,21.72-2.06c10.46-1.28,20.95-2.31,31.49-2.86c6.92-0.36,8.25,10.44,1.62,11.98
				c-1.25,0.29-2.5,0.56-3.76,0.84c0.98,0.24,1.94,0.75,2.79,1.62c4.26,4.35,3.82,11.23,3.47,16.87c-0.18,2.92-0.25,5.84-0.3,8.77
				c0.69,0.68,1.22,1.56,1.49,2.64c3.63,14.37,6.74,28.86,10.12,43.3C497.1,747.5,493.59,750.43,490.06,750.49z M606.88,233.28
				c-0.16,0.2-0.3,0.41-0.46,0.61c-0.49,0.82-1.04,1.6-1.68,2.33c-1.28,1.91-2.45,3.89-3.69,5.82c-1.06,2.06-2.18,4.08-3.43,6.04
				c-0.42,0.98-0.81,1.98-1.15,3c-1.17,3.51-4.42,4.64-7.26,4.07c-8.05-0.3-20.11-7.91-26.61-12.14c-6.1-2.91-11.9-6.41-18.24-8.85
				c-8.33-3.2-16.82-6.02-25.53-8c-9.07-2.07-18.04-2.9-27.32-3.01c-3.99-0.05-7.88-0.2-11.83,0.32c-1.4,0.18-2.81,0.48-4.21,0.61
				c-1.51,0.26-3.02,0.51-4.52,0.82c-3.54,1.31-7.15,2.3-10.86,3.05c-3.15,1.41-6.51,2.33-9.77,3.82
				c-5.37,2.46-9.61,6.77-15.92,6.54c-1.42-0.05-2.65-0.57-3.62-1.37c-0.03-0.01-0.06-0.01-0.1-0.01c-2.03-0.31-3.32-1.65-3.93-3.31
				c-1.43-1.73-2.17-3.98-2.36-6.22c-1.43-4.92-1.69-9.92,2.11-13.74c0.25-0.3,0.55-0.57,0.9-0.82c0.14-0.12,0.28-0.24,0.43-0.35
				c0.95-0.72,2.09-0.96,3.25-0.87c3.54-1.33,8.08-2.01,12.27-2.5c1.06-0.26,2.13-0.5,3.2-0.71c0.59-0.12,1.17-0.23,1.76-0.33
				c4.36-1.56,9.11-2.14,13.68-2.57c3.7-0.35,7.44-0.77,11.2-1.05c12.56-2.42,25.16-2.81,37.78-2.28c3.02-0.11,6.05-0.08,9.07,0.06
				c7.02-0.14,13.98,0.21,21.07,1.02c2.88,0.33,5.77,0.62,8.65,0.93c0.75-0.17,1.56-0.22,2.43-0.1c9.72,1.36,19.5,2.1,28.92,4.99
				c0.42,0.13,0.81,0.29,1.17,0.48c1.53,0.31,3.06,0.62,4.6,0.91c3.97,0.75,8.03,1.32,11.82,2.73c2.89,0.46,5.78,1.48,8.07,3.03
				c2.84,1.44,4.89,3.87,4.77,7.32C611.38,227.38,609.19,230.43,606.88,233.28z M832.06,531.5c-1.5,17.06-2.97,34.14-6.5,50.9
				c-0.27,1.52-0.62,3.03-1.01,4.53c-0.17,0.7-0.33,1.41-0.5,2.11c-0.11,0.45-0.26,0.86-0.43,1.24c-1.09,3.75-2.21,7.48-2.69,11.33
				c-0.28,2.27-1.54,3.88-3.16,4.82c-2.59,2.63-7.78,1.9-9.58-1.39c-2.66-4.88-5.45-9.66-7.68-14.71c-1.58-2.95-3.09-5.95-4.87-8.56
				c-2.31-3.38-4.67-6.72-6.9-10.14c-2.25-2.58-4.33-5.33-6.13-8.24c-2.27-2.68-4.33-5.51-5.66-8.8c-1.66-4.11-1.45-7.76-0.89-11.54
				c-0.2-6.33,0.8-12.87,1.52-19.17c0.32-16.71-2.48-33.45-6.96-49.57c-2.45-5.43-4.89-10.87-8.53-15.8
				c-1.34-1.81-3.29-4.02-5.18-6.39c-3.42-3.54-6.41-7.35-8.61-11.18c-2.73-4.76-2.95-10.01-3.37-15.35
				c-0.3-3.87-0.59-7.75-0.98-11.62c-1.7-5.76-1.95-11.78-3.04-17.72c-1.27-6.91-3.61-13.68-6.45-20.1
				c-4.04-9.11-10.13-17.19-13.67-26.43c-1.15-2.18-2.24-4.37-3.3-6.52c-5.07-10.32-10.42-20.62-14.9-31.25
				c-2.2-3.64-4.37-7.3-6.74-10.76c-2-2.3-4.04-4.57-5.77-7.08c-4.32-6.28-5-13.94-3.9-21.29c-0.15-2.15,0.07-4.28,1.16-5.99
				c-0.11-5.14,7.24-8.64,10.86-3.97c0.63,0.23,1.25,0.57,1.84,1.04c6.24,4.91,12.52,9.72,18.6,14.71c1.53,0.24,3.01,1.08,4.09,2.7
				c0.43,0.64,0.88,1.26,1.35,1.87c3.01,2.6,5.95,5.26,8.79,8.04c0.1,0.08,0.2,0.15,0.3,0.24c2.33,2.07,4.57,4.21,6.73,6.4
				c3.12,2.76,6.05,5.7,8.84,8.76c4.59,4.3,8.43,9.13,12.31,14.27c3.94,5.2,8.22,10.13,11.76,15.59
				c7.06,8.66,13.43,17.94,18.97,27.87c8.71,15.62,16.07,32.31,22.59,48.95c2.81,7.15,5.18,14.37,7.35,21.73
				c1.09,3.72,2.73,8.11,2.82,12.27c2.63,8.58,4.36,17.39,4.51,26.56c1.93,9.89,3.15,19.88,3.26,29.87
				c0.07,6.32-0.16,12.65-0.52,18.97c-0.05,1.99-0.11,3.98-0.17,5.98C831.98,529.47,832.16,530.4,832.06,531.5z"/>
			<path class="st1" d="M948.7,353.08c-7.65-29.74-18.7-58.43-36.17-84.15l-0.22-0.8c1.53-1.77-0.1-2.12-1.17-2.73
				c-0.8-1.49-0.41-3.64-2.37-4.49c-0.24-1.27-1.14-2.1-1.98-2.98c-1.3-1.89-2.66-3.75-3.89-5.68
				C801.46,92.54,657.09,15.56,467.46,30.04c-100.55,7.68-187.45,49.42-261.81,117.34c-36.61,33.44-65.65,72.87-91.12,115.13
				c-1.14,1.04-2.16,2.15-2.21,3.82l-0.19,0.77c-1.06,1.09-2.08,2.19-2.14,3.84l-0.23,0.79c-4.17,5.09-7.12,10.95-9.91,16.8
				c-37.38,78.43-48.54,161.12-38.47,246.82c5.27,44.85,18,87.78,36.71,129.08c37.52,82.81,94.57,148.75,171.09,197.18
				c90.85,57.5,190.66,80.32,297.23,67.16c117.68-14.53,216.73-66.98,292.52-158.53C960.74,647.29,988.3,506.97,948.7,353.08z
				 M461.81,761.4c-0.43,1.34-1.22,2.37-2.19,3.09c1.29,4.67,1.6,9.37,1.61,14.44c0.01,2.37-1.23,4.08-2.9,5.04
				c-0.12,1.25-0.28,2.51-0.5,3.76c-0.07,0.4-0.2,0.76-0.35,1.1c0.34,2.27,0.73,4.54,1.14,6.82c0.76,4.18-2.3,7.07-5.52,7.56
				c-0.31,1.6-1.17,3.12-2.46,4c-0.1,2.76-2.03,5.36-5.67,5.71c-0.67,0.63-1.52,1.13-2.58,1.41c-0.35,0.09-0.69,0.16-1.04,0.24
				c-0.93,2.07-2.82,3.77-5.37,3.96c-9.67,0.73-19.22-0.17-28.75-1.81c-3.36-0.58-4.64-3.46-4.31-6.25c-0.42,0-0.84-0.04-1.28-0.13
				c-12.95-2.77-25.25-8.15-36.57-14.98c-1.72-1.04-2.61-2.43-2.9-3.88c-7.79-3.5-15.65-6.82-23.62-9.88
				c-7.78-2.41-15.48-5.04-23.09-7.96c-4.49-1.72-5.09-6.79-3.04-9.78c-9.47-6.34-18.47-13.33-26.67-21.23
				c-0.04-0.03-0.07-0.05-0.11-0.08c-1.54-1.31-3.03-2.66-4.52-4.03c-2.06,1.55-4.97,1.77-7.45-0.76
				c-4.84-4.94-9.23-10.24-12.96-16.01c-0.35-0.43-0.7-0.86-1.05-1.3c-1.56,0.13-3.14-0.39-4.34-1.84
				c-4.97-5.99-9.9-12.08-14.43-18.43c-0.32-0.33-0.62-0.71-0.89-1.15c-0.16-0.26-0.31-0.52-0.47-0.78
				c-2.65-3.82-5.15-7.74-7.41-11.81c-5.85-8.52-11.36-17.25-16.06-26.51c-0.45-0.89-0.7-1.75-0.77-2.57
				c-2.26-4.13-4.42-8.31-6.41-12.59c-1.04-2.24-0.77-4.36,0.21-6c-0.75-2.13-1.46-4.26-2.11-6.41c-3.06,0.03-6.4-1.97-6.91-5.82
				c-0.35-2.62-0.61-5.26-0.82-7.9c-0.38-3.09-0.81-6.18-1.2-9.27c-2.57,0.08-5.1-1.25-5.73-4.34c-1.99-9.72-2.88-19.53-3.5-29.37
				c-2.32-12.12-4.07-24.51-3.36-36.79c-0.5-4.55-0.97-9.1-1.35-13.66c-0.27-3.22,1.55-5.08,3.87-5.65c0.26-2.07,0.54-4.13,0.82-6.2
				c-2.98-0.7-5.46-3.4-4.47-7.33c2.23-8.92,4.51-17.83,7.5-26.53c0.46-2.56,0.84-5.14,1.06-7.75c0.17-2.1,1.2-3.64,2.58-4.61
				c-0.15-0.81-0.15-1.7,0.05-2.67c0.62-3.05,1.31-6.07,2.07-9.06c-0.43-1.08-0.52-2.38-0.14-3.86c2.33-8.89,4.99-17.69,7.81-26.43
				c-1.04-1.26-1.46-3.04-0.71-5.22c3.54-10.28,8.28-20.04,12.89-29.88c0.1-0.21,0.21-0.41,0.33-0.6
				c4.01-8.85,8.16-17.63,12.49-26.33c-0.3-1-0.31-2.1,0.13-3.26c2.45-6.42,5.96-12.1,9.87-17.55c1.62-6.71,6.93-10.88,11.73-15.5
				c1.08-1.04,2.36-1.52,3.66-1.6c0.57-0.59,1.14-1.17,1.7-1.76c0.15-0.49,0.35-0.98,0.67-1.45c15.99-24.2,39.9-42.77,64.43-58.07
				c-0.02-1.02,0.24-2.07,0.87-3.06c0.32-0.51,0.66-1,1.01-1.47c0.19-1.1,0.75-2.15,1.8-3c1.13-0.91,2.27-1.82,3.41-2.71
				c3.69-3.33,7.87-6.11,11.87-9.33c1.64-1.32,3.46-1.65,5.14-1.34c0.96-0.84,1.96-1.65,3.04-2.39c3.07-2.09,8.28-0.09,8.96,3.65
				c1.37,7.55,5.53,13.9,8.4,20.9c2.99,7.28,3.07,13.52,0.32,20.93c-5.01,13.48-11.03,26.44-18.82,38.48
				c0.09,1.53-0.39,3.09-1.65,4.35c-5.42,5.41-11.01,10.88-17.91,14.38c-1.58,0.81-3.2,0.85-4.64,0.4
				c-4.64,3.24-9.42,6.22-14.87,8.09c-1.45,0.5-2.78,0.39-3.91-0.11c-0.14,0.1-0.27,0.2-0.41,0.3c-3.54,4.18-7.06,8.36-10.64,12.5
				c-1.45,2.1-2.88,4.2-4.31,6.32c-4.36,16.78-8.99,33.5-12.63,50.44c-0.6,9.2-1.26,18.54-7.17,25.92
				c-0.55,0.69-1.29,1.16-2.12,1.45c-0.59,1.92-1.28,3.82-2.1,5.72c-1.72,3.97-8.83,4.02-10.53,0c-0.54-1.29-0.96-2.56-1.31-3.84
				c-1.58-0.89-2.84-2.34-3.25-4.21c-0.55-0.45-1.01-1.03-1.36-1.74c-1.39,7.98-3.12,15.9-4.89,23.83c-0.04,0.18-0.11,0.33-0.16,0.5
				c0.06,0.16,0.13,0.31,0.18,0.48c1.12,3.72,2.34,7.42,3.58,11.11c1.01,0.71,1.76,1.79,2.01,3.25c0.3,1.8,0.59,3.61,0.9,5.42
				c2.52,7.65,4.86,15.35,6.28,23.31c0.48,2.69-0.96,5.18-2.99,6.61c0.12,2.85,0.14,5.71,0.02,8.57c-0.18,4.03-3.4,6.1-6.52,5.91
				c0.24,7.51,0.34,15.03,0.12,22.53c9.74,16.77,18.43,34.12,27.11,51.47c1.07,2.15,0.92,4.16,0.07,5.73
				c0.04,0.02,0.09,0.04,0.13,0.06c9.32,5.21,17.94,11.48,25.97,18.51c1,0.87,1.56,1.88,1.79,2.91c0.19,0.46,0.39,0.92,0.58,1.37
				c0,0,0,0,0,0c0,0.01,0,0.01,0.01,0.02c1.78,4.24,3.47,8.49,4.97,12.79c0.26,0.56,0.52,1.13,0.79,1.69
				c0.42,0.9,0.62,1.79,0.64,2.64c2.06,6.61,3.58,13.36,4.19,20.38c0.05,0.64-0.03,1.24-0.19,1.8c0.55,0.26,1.08,0.61,1.6,1.07
				c2.8,2.5,5.68,4.89,8.6,7.24c6.55,5.03,13.55,9.35,20.93,13.03c1.26-1.53,3.34-2.43,6.08-1.9c0.19,0.04,0.38,0.08,0.57,0.12
				c1.14-2.18,3.47-3.57,6.61-2.52c11.47,3.84,22.81,7.98,33.96,12.64c1.08-0.91,2.53-1.43,3.99-1.53
				c-0.36-4.14-0.7-8.27-0.99-12.41c-0.56-7.91,11.44-7.69,12.2,0c0.46,4.7,0.9,9.42,1.35,14.14c0-0.19,0-0.38,0.01-0.58
				c0.15-4.51,4.03-6.41,7.38-5.75c0.85-3.33,3.75-5,6.5-4.89c0.43-1.79,0.92-3.58,1.49-5.35c1.01-3.1,3.55-4.42,6.03-4.3
				c0.27-2.55,0.58-5.09,0.93-7.63c0,0,0-0.01,0-0.01c0,0,0,0,0,0c0.07-0.54,0.14-1.08,0.22-1.62c0.82-5.62,8.52-5.46,11.12-1.54
				c3.48-3.31,11.13,0.11,10.22,6.38c-0.03,0.17-0.05,0.35-0.08,0.52c3.31-0.37,6.81,1.63,6.68,5.82c2.21,0.68,3.99,2.57,3.99,5.6
				c0,1.89-0.01,3.79-0.03,5.69c1.29,0.99,2.24,2.56,2.42,4.68C467.71,721.85,467.81,742.56,461.81,761.4z M606.88,233.28
				c-0.16,0.2-0.3,0.41-0.46,0.61c-0.49,0.82-1.04,1.6-1.68,2.33c-1.28,1.91-2.45,3.89-3.69,5.82c-1.06,2.06-2.18,4.08-3.43,6.04
				c-0.42,0.98-0.81,1.98-1.15,3c-1.17,3.51-4.42,4.64-7.26,4.07c-8.05-0.3-20.11-7.91-26.61-12.14c-6.1-2.91-11.9-6.41-18.24-8.85
				c-8.33-3.2-16.82-6.02-25.53-8c-9.07-2.07-18.04-2.9-27.32-3.01c-3.99-0.05-7.88-0.2-11.83,0.32c-1.4,0.18-2.81,0.48-4.21,0.61
				c-1.51,0.26-3.02,0.51-4.52,0.82c-3.54,1.31-7.15,2.3-10.86,3.05c-3.15,1.41-6.51,2.33-9.77,3.82
				c-5.37,2.46-9.61,6.77-15.92,6.54c-1.42-0.05-2.65-0.57-3.62-1.37c-0.03-0.01-0.06-0.01-0.1-0.01c-2.03-0.31-3.32-1.65-3.93-3.31
				c-1.43-1.73-2.17-3.98-2.36-6.22c-1.43-4.92-1.69-9.92,2.11-13.74c0.25-0.3,0.55-0.57,0.9-0.82c0.14-0.12,0.28-0.24,0.43-0.35
				c0.95-0.72,2.09-0.96,3.25-0.87c3.54-1.33,8.08-2.01,12.27-2.5c1.06-0.26,2.13-0.5,3.2-0.71c0.59-0.12,1.17-0.23,1.76-0.33
				c4.36-1.56,9.11-2.14,13.68-2.57c3.7-0.35,7.44-0.77,11.2-1.05c12.56-2.42,25.16-2.81,37.78-2.28c3.02-0.11,6.05-0.08,9.07,0.06
				c7.02-0.14,13.98,0.21,21.07,1.02c2.88,0.33,5.77,0.62,8.65,0.93c0.75-0.17,1.56-0.22,2.43-0.1c9.72,1.36,19.5,2.1,28.92,4.99
				c0.42,0.13,0.81,0.29,1.17,0.48c1.53,0.31,3.06,0.62,4.6,0.91c3.97,0.75,8.03,1.32,11.82,2.73c2.89,0.46,5.78,1.48,8.07,3.03
				c2.84,1.44,4.89,3.87,4.77,7.32C611.38,227.38,609.19,230.43,606.88,233.28z M832.06,531.5c-1.5,17.06-2.97,34.14-6.5,50.9
				c-0.27,1.52-0.62,3.03-1.01,4.53c-0.17,0.7-0.33,1.41-0.5,2.11c-0.11,0.45-0.26,0.86-0.43,1.24c-1.09,3.75-2.21,7.48-2.69,11.33
				c-0.28,2.27-1.54,3.88-3.16,4.82c-2.59,2.63-7.78,1.9-9.58-1.39c-2.66-4.88-5.45-9.66-7.68-14.71c-1.58-2.95-3.09-5.95-4.87-8.56
				c-2.31-3.38-4.67-6.72-6.9-10.14c-2.25-2.58-4.33-5.33-6.13-8.24c-2.27-2.68-4.33-5.51-5.66-8.8c-1.66-4.11-1.45-7.76-0.89-11.54
				c-0.2-6.33,0.8-12.87,1.52-19.17c0.32-16.71-2.48-33.45-6.96-49.57c-2.45-5.43-4.89-10.87-8.53-15.8
				c-1.34-1.81-3.29-4.02-5.18-6.39c-3.42-3.54-6.41-7.35-8.61-11.18c-2.73-4.76-2.95-10.01-3.37-15.35
				c-0.3-3.87-0.59-7.75-0.98-11.62c-1.7-5.76-1.95-11.78-3.04-17.72c-1.27-6.91-3.61-13.68-6.45-20.1
				c-4.04-9.11-10.13-17.19-13.67-26.43c-1.15-2.18-2.24-4.37-3.3-6.52c-5.07-10.32-10.42-20.62-14.9-31.25
				c-2.2-3.64-4.37-7.3-6.74-10.76c-2-2.3-4.04-4.57-5.77-7.08c-4.32-6.28-5-13.94-3.9-21.29c-0.15-2.15,0.07-4.28,1.16-5.99
				c-0.11-5.14,7.24-8.64,10.86-3.97c0.63,0.23,1.25,0.57,1.84,1.04c6.24,4.91,12.52,9.72,18.6,14.71c1.53,0.24,3.01,1.08,4.09,2.7
				c0.43,0.64,0.88,1.26,1.35,1.87c3.01,2.6,5.95,5.26,8.79,8.04c0.1,0.08,0.2,0.15,0.3,0.24c2.33,2.07,4.57,4.21,6.73,6.4
				c3.12,2.76,6.05,5.7,8.84,8.76c4.59,4.3,8.43,9.13,12.31,14.27c3.94,5.2,8.22,10.13,11.76,15.59
				c7.06,8.66,13.43,17.94,18.97,27.87c8.71,15.62,16.07,32.31,22.59,48.95c2.81,7.15,5.18,14.37,7.35,21.73
				c1.09,3.72,2.73,8.11,2.82,12.27c2.63,8.58,4.36,17.39,4.51,26.56c1.93,9.89,3.15,19.88,3.26,29.87
				c0.07,6.32-0.16,12.65-0.52,18.97c-0.05,1.99-0.11,3.98-0.17,5.98C831.98,529.47,832.16,530.4,832.06,531.5z"/>
			<path class="st2" d="M109.77,271.73c-8.8,22.43-20.08,43.88-26.73,67.15C30.74,521.89,71.9,680.82,209.87,811.86
				c72.93,69.27,162.35,105.85,262.94,115.06c218.7,20.04,423.47-124.65,476.26-338.03c26.51-107.15,15.81-210.91-32.62-310.45
				c-1.5-3.08-2.61-6.34-3.91-9.51c10.03,4.85,12.54,15.53,17.16,23.98c28.21,51.51,45.89,106.54,53.61,164.86
				c3.41,25.79,6.17,51.74,6,77.58c-0.24,36.73-7.33,72.72-16.68,108.41c-19.01,72.6-54.21,136.51-102.46,193.16
				c-26.36,30.95-57.71,56.77-91.68,79.59c-34.29,23.03-70.52,41.95-109.52,54.82c-38.09,12.57-77.13,21.03-117.46,24.86
				c-70.04,6.66-137.59-4.13-202.99-27.1c-58.23-20.45-110.26-52.45-156.4-94.26c-47.9-43.4-84.44-94.57-112.19-152.53
				c-20.34-42.49-31.62-87.65-39.31-133.78c-4.92-29.52-6.42-59.47-4.5-89.28C40,438.87,53.06,380.54,78.21,325.21
				c7.46-16.41,15.99-32.21,25.07-47.75C104.82,274.82,105.98,271.8,109.77,271.73z"/>
			<path class="st2" d="M911.17,265.47c-2.23-0.79-2.55-2.62-2.54-4.63C911.29,261.39,911.65,263.2,911.17,265.47z"/>
			<path class="st2" d="M114.53,262.51c0.15,1.78-0.58,3.06-2.21,3.82C112.19,264.56,112.99,263.32,114.53,262.51z"/>
			<path class="st2" d="M112.13,267.1c0.2,1.78-0.47,3.08-2.13,3.83C109.83,269.17,110.62,267.94,112.13,267.1z"/>
			<path class="st2" d="M908.8,261.01c-1.55-0.44-2.09-1.55-2.01-3.06C907.46,258.96,908.13,259.98,908.8,261.01z"/>
			<path class="st2" d="M912.32,268.14c-0.41-0.92-0.82-1.84-1.24-2.76C912.71,265.75,913.35,266.57,912.32,268.14z"/>
			<path class="st3" d="M843.51,458.37c-17.67-91.24-67.63-162.55-143.52-215.74c-7.26-5.09-12.23-10.38-14.4-19.48
				c-6.86-28.75-27.75-37.7-54.09-23.79c-5.33,2.82-10.2,4.29-16.34,2.14c-63.14-22.1-126.93-21.88-191.14-5.12
				c-12.4,3.24-22.37-1.56-27.79-13.7c-1.72-3.85-2.36-8.17-4.44-11.84c-5.03-8.86-8.75-18.93-19.55-22.9
				c-1.26-0.67-3.42-1.12-3.63-2.03c-5.28-22.23-24.9-33.88-37.37-50.77c-0.34-0.46-2.04,0.1-4.1,0.26
				c1.88,23.85-1.48,47.97,8.48,70.68c-5.4,6.97-3,14.63-1.74,22.08c2.23,13.16,6.07,25.85,12.89,36.13
				c-2.78,5.83-6.82,7.56-10.31,9.81C277.98,271.85,233,321.3,204.04,385.03c-30.42,66.93-36.07,136.33-21.98,207.88
				c5.75,29.22,16.73,56.49,31.18,82.43c0.89,0.73,1.88,1.39,1.86,2.72c2.27,0.65,1.54,3.23,2.82,4.53
				c64.4,92.29,153.33,143.09,264.76,153.24c71.91,6.55,139.94-8.21,203.42-44.05c48.34-27.3,89.05-62.29,119.71-108.71
				c0.25-1.38,1.12-2.34,2.18-3.17l-0.07,0.1c1.26-1.25,0.72-3.65,2.75-4.41c0.71-1.51,0.07-3.86,2.54-4.29
				c-0.33-1.55,0.81-2.14,1.85-2.8C849.14,601.78,857.57,530.97,843.51,458.37z M462.1,730.61c-0.07,1.37-0.14,2.73-0.26,4.11
				c-0.08,0.99-0.35,1.85-0.76,2.59c-0.49,4.22-1.17,8.42-1.9,12.64c-0.49,4.43-0.34,13.01-2.53,18.71
				c-0.16,1.46-0.38,2.91-0.74,4.33c0.16,1.28,0,2.61-0.54,3.77c-0.83,7.41-2.1,14.75-3.68,22.04c-0.83,7.04-3.25,14.11-10.21,16.56
				c-1.84,0.65-3.42,0.41-4.64-0.35c-7.95,1.72-16.6-2.76-24.4-5.52c-12.06-4.25-24.51-6.7-35.83-12.65
				c-1.47-0.61-2.89-1.23-4.21-1.78c-9.34-3.91-18.39-8.49-27.29-13.3c-6.18-3.34-12.34-6.79-18.34-10.47
				c-7.35-3.41-14.07-8.59-20.2-13.49c-9.68-7.73-19.42-15.6-28.5-24.09c-2.14-1.81-4.16-3.84-6.07-5.88
				c-0.32-0.33-0.66-0.65-0.98-0.98c-0.27-0.28-0.5-0.56-0.7-0.86c-1.48-1.63-2.89-3.21-4.24-4.63
				c-9.51-10.02-18.07-20.76-25.97-32.04c-2.55-3.38-4.89-6.95-7.19-10.49c-7-10.78-13.13-22.1-17.99-33.99
				c-5-12.22-8.77-24.96-12.43-37.64c-1.59-5.52-3.11-11.09-4.31-16.72c-0.5-2.11-1.15-4.65-1.32-7.16
				c-0.47-3.04-0.82-6.1-1.01-9.17c-1.92-11.59-3.19-23.28-3.27-34.99c-0.37-4.24-0.15-8.56-0.34-12.85
				c-0.43-6.5-0.37-13,0.76-19.43c0.01-2.73,0.14-5.45,0.62-8.12c0.14-2.66,0.34-5.26,0.57-7.73c0.39-6.91,0.93-13.81,2.41-20.56
				c1.4-9.34,3.22-18.6,5.35-27.84c1.5-6.52,2.83-13.08,5.22-19.35c0.5-1.31,1.08-2.58,1.67-3.84c0.16-0.66,0.33-1.31,0.48-1.97
				c0.75-3.38,1.69-6.72,3.36-9.72c0.28-0.77,0.57-1.52,0.85-2.26c3.11-7.95,6.54-15.86,10.27-23.52
				c7.06-14.48,14.58-29.77,25.14-42.21c1.65-2.41,3.38-4.77,5.13-7.15c4.91-7.59,11.7-14.17,17.51-21.03
				c3.53-4.17,7.77-8.95,12.37-12.95c3.99-4.38,8.48-8.21,12.63-12.5c0.66-0.67,1.36-1.13,2.07-1.42c3.2-2.97,6.45-5.9,9.74-8.79
				c0.66-0.58,1.35-0.97,2.05-1.23c8.88-7.16,17.79-14.27,26.94-21.08c0.68-0.51,1.36-0.83,2.02-1c1.34-0.98,2.69-1.94,4.03-2.91
				c0.77-0.55,1.65-0.82,2.55-0.87c2.58-0.89,5.19-0.84,7.33,1.47c0.31,0.34,0.56,0.7,0.79,1.07c0.42,0.58,0.77,1.28,1.01,2.12
				c0.56,1.96,1.21,3.87,1.68,5.83c0.42,0.96,0.73,1.96,0.9,3c0.02,0.11,0.04,0.21,0.05,0.31c0.28,0.8,0.57,1.61,0.86,2.42
				c0.05,0.14,0.1,0.28,0.15,0.42c0.24,0.67,0.48,1.33,0.69,2c0.07,0.16,0.14,0.32,0.21,0.49c0.92,1.54,1.93,3.02,2.79,4.64
				c2.74,5.17,3.4,10.98-1.06,14.83c-2.77,6.19-7.09,11.91-10.19,17.96c-3.55,6.94-6.88,13.98-10.64,20.81
				c-0.3,0.54-0.64,0.98-1.01,1.37c-0.14,1.67-1.04,3.29-2.96,4.38c-5.51,3.12-11.15,6.16-16.95,8.78
				c-4.67,4.3-10.64,7.1-15.58,11.06c-5.65,4.54-11.14,10.04-15.89,15.78c-2.91,4.52-5.42,9.3-7.75,14.14
				c-0.64,1.33-1.54,2.16-2.54,2.64c-0.49,1.24-1.01,2.48-1.54,3.71c-3.4,9.21-6.4,18.67-6.91,28.24c-0.2,3.78,0.56,9.34,0.19,14.32
				c0.5,6.42,0.47,12.78-2.74,18.62c-2.25,4.09-8.22,3.82-10.53,0c-0.12-0.2-0.23-0.41-0.34-0.61c-2.06-2.55-2.32-6.59-3.48-9.81
				c-0.59-0.5-1.2-0.93-1.85-1.21c-2.58-1.11-4.86,0.25-7.19,1.36c-0.49,0.73-0.94,1.5-1.35,2.3c-4.63,13.95-4.86,28.81-1.12,43.37
				c0.05,0.21,0.09,0.41,0.12,0.61c2.22,5.43,5.08,10.63,7.16,16.11c0.35,0.61,0.68,1.23,0.99,1.86c0.63,0.67,1.15,1.26,1.37,1.66
				c1.35,2.48,1.94,5.59,1.93,8.4c-0.01,5.58-3.16,8.91-6.05,12.84c-1.61,2.81-3.58,5.47-5.68,7.99c-1.53,5.94-2.3,12-0.79,18.12
				c0.04,0.15,0.06,0.29,0.08,0.43c0.78,2.45,1.69,4.81,2.48,7.22c5.18,9.03,12.57,16.85,16.9,26.41
				c4.59,10.14,6.09,21.09,9.85,31.46c2.17,2.01,4.42,3.91,6.75,5.74c3.76,1.48,7.48,2.91,11.04,4.66c4.41,1.08,8.44,3.3,10.82,7.35
				c3.84,3.73,6.48,8.36,5.96,13.04c0.36,1.59,0.62,3.21,0.74,4.84c0.04,0.5,0.02,0.97-0.04,1.4c0.39,3.09,0.67,6.21,1.55,9.2
				c1.4,4.77,3.49,9.3,6.05,13.55c5.27,8.74,12.6,15.58,21.81,19.97c0,0,0,0,0,0c4.83,1.14,9.65,1.96,14.46,2.88
				c1.32-0.31,2.57,0.01,3.6,0.72c0.46,0.1,0.92,0.2,1.38,0.3c3.32,0.45,6.8,1.67,9.04,2.21c1.5,0.36,3.02,0.71,4.55,1.07
				c5.61,0.81,11.24,1.44,16.92,1.6c7.1,0.2,14.1-0.5,21.05-1.68c7.6-3.2,16.05-9.37,23.89-13.22c0.21-0.1,0.43-0.21,0.65-0.32
				c2.12-1.4,4.47-2.53,6.74-3.57c2.25-1.02-1.19,0.5,0.17-0.11c0.31-0.14,0.62-0.28,0.94-0.42c1.05-0.46,2.11-0.91,3.19-1.29
				c1.89-0.66,3.97-1.16,5.98-1.15c3.14,0.01,5.38,1.32,6.75,3.32c1.81,1.67,3.05,3.93,3.77,6.35c0.15,0.37,0.27,0.75,0.41,1.13
				c0.12,0.25,0.24,0.51,0.34,0.79c0.43,1.25,0.87,2.48,1.3,3.69c0.42,0.63,0.73,1.4,0.87,2.35c0.02,0.11,0.03,0.21,0.04,0.32
				c1.44,4.33,2.52,8.6,2.33,13.27C463.24,721.17,463.42,726.8,462.1,730.61z M606.88,233.28c-0.16,0.2-0.3,0.41-0.46,0.61
				c-0.49,0.82-1.04,1.6-1.68,2.33c-1.28,1.91-2.45,3.89-3.69,5.82c-1.06,2.06-2.18,4.08-3.43,6.04c-0.42,0.98-0.81,1.98-1.15,3
				c-1.17,3.51-4.42,4.64-7.26,4.07c-8.05-0.3-20.11-7.91-26.61-12.14c-6.1-2.91-11.9-6.41-18.24-8.85c-8.33-3.2-16.82-6.02-25.53-8
				c-9.07-2.07-18.04-2.9-27.32-3.01c-3.99-0.05-7.88-0.2-11.83,0.32c-1.4,0.18-2.81,0.48-4.21,0.61c-1.51,0.26-3.02,0.51-4.52,0.82
				c-3.54,1.31-7.15,2.3-10.86,3.05c-3.15,1.41-6.51,2.33-9.77,3.82c-5.37,2.46-9.61,6.77-15.92,6.54
				c-1.42-0.05-2.65-0.57-3.62-1.37c-0.03-0.01-0.06-0.01-0.1-0.01c-2.03-0.31-3.32-1.65-3.93-3.31c-1.43-1.73-2.17-3.98-2.36-6.22
				c-1.43-4.92-1.69-9.92,2.11-13.74c0.25-0.3,0.55-0.57,0.9-0.82c0.14-0.12,0.28-0.24,0.43-0.35c0.95-0.72,2.09-0.96,3.25-0.87
				c3.54-1.33,8.08-2.01,12.27-2.5c1.06-0.26,2.13-0.5,3.2-0.71c0.59-0.12,1.17-0.23,1.76-0.33c4.36-1.56,9.11-2.14,13.68-2.57
				c3.7-0.35,7.44-0.77,11.2-1.05c12.56-2.42,25.16-2.81,37.78-2.28c3.02-0.11,6.05-0.08,9.07,0.06c7.02-0.14,13.98,0.21,21.07,1.02
				c2.88,0.33,5.77,0.62,8.65,0.93c0.75-0.17,1.56-0.22,2.43-0.1c9.72,1.36,19.5,2.1,28.92,4.99c0.42,0.13,0.81,0.29,1.17,0.48
				c1.53,0.31,3.06,0.62,4.6,0.91c3.97,0.75,8.03,1.32,11.82,2.73c2.89,0.46,5.78,1.48,8.07,3.03c2.84,1.44,4.89,3.87,4.77,7.32
				C611.38,227.38,609.19,230.43,606.88,233.28z M832.06,531.5c-1.5,17.06-2.97,34.14-6.5,50.9c-0.27,1.52-0.62,3.03-1.01,4.53
				c-0.17,0.7-0.33,1.41-0.5,2.11c-0.11,0.45-0.26,0.86-0.43,1.24c-1.09,3.75-2.21,7.48-2.69,11.33c-0.28,2.27-1.54,3.88-3.16,4.82
				c-2.59,2.63-7.78,1.9-9.58-1.39c-2.66-4.88-5.45-9.66-7.68-14.71c-1.58-2.95-3.09-5.95-4.87-8.56c-2.31-3.38-4.67-6.72-6.9-10.14
				c-2.25-2.58-4.33-5.33-6.13-8.24c-2.27-2.68-4.33-5.51-5.66-8.8c-1.66-4.11-1.45-7.76-0.89-11.54c-0.2-6.33,0.8-12.87,1.52-19.17
				c0.32-16.71-2.48-33.45-6.96-49.57c-2.45-5.43-4.89-10.87-8.53-15.8c-1.34-1.81-3.29-4.02-5.18-6.39
				c-3.42-3.54-6.41-7.35-8.61-11.18c-2.73-4.76-2.95-10.01-3.37-15.35c-0.3-3.87-0.59-7.75-0.98-11.62
				c-1.7-5.76-1.95-11.78-3.04-17.72c-1.27-6.91-3.61-13.68-6.45-20.1c-4.04-9.11-10.13-17.19-13.67-26.43
				c-1.15-2.18-2.24-4.37-3.3-6.52c-5.07-10.32-10.42-20.62-14.9-31.25c-2.2-3.64-4.37-7.3-6.74-10.76c-2-2.3-4.04-4.57-5.77-7.08
				c-4.32-6.28-5-13.94-3.9-21.29c-0.15-2.15,0.07-4.28,1.16-5.99c-0.11-5.14,7.24-8.64,10.86-3.97c0.63,0.23,1.25,0.57,1.84,1.04
				c6.24,4.91,12.52,9.72,18.6,14.71c1.53,0.24,3.01,1.08,4.09,2.7c0.43,0.64,0.88,1.26,1.35,1.87c3.01,2.6,5.95,5.26,8.79,8.04
				c0.1,0.08,0.2,0.15,0.3,0.24c2.33,2.07,4.57,4.21,6.73,6.4c3.12,2.76,6.05,5.7,8.84,8.76c4.59,4.3,8.43,9.13,12.31,14.27
				c3.94,5.2,8.22,10.13,11.76,15.59c7.06,8.66,13.43,17.94,18.97,27.87c8.71,15.62,16.07,32.31,22.59,48.95
				c2.81,7.15,5.18,14.37,7.35,21.73c1.09,3.72,2.73,8.11,2.82,12.27c2.63,8.58,4.36,17.39,4.51,26.56
				c1.93,9.89,3.15,19.88,3.26,29.87c0.07,6.32-0.16,12.65-0.52,18.97c-0.05,1.99-0.11,3.98-0.17,5.98
				C831.98,529.47,832.16,530.4,832.06,531.5z"/>
			<path class="st2" d="M814.99,668.6c-0.11-9.6,5.6-17.25,8.67-25.78c11.83-32.87,19.37-66.28,21.64-101.53
				c3.88-60.12-8.17-116.32-35.13-169.46c-28.49-56.18-70.52-100.34-124.11-134.72c-5.4-13.09-3-31.04-21.08-38.67
				c-17.12-7.22-30.08,2.69-41.66,8.92c-71.47-25.87-141.1-24.88-211.94-4.51c-5.48-4.49-11.32-9.29-17.81-14.62
				c-1.35-15.95-11.56-28-21.34-40.28c26.93-13.81,55.99-21.23,85.59-25.09c124.67-16.27,231.73,20.2,318.06,111.92
				c58.34,61.99,89.54,136.71,94.63,222.02c4.37,73.41-12.54,141.6-49.82,204.85C819.17,664.21,818.2,667.36,814.99,668.6z"/>
			<path class="st2" d="M335.61,166.09c0.3,20.85,2.24,41.26,16.94,58.71c-6.18,9.81-16.7,13.6-25.23,19.39
				c-64.75,43.95-109.42,103.05-133.98,177.12c-9.16,27.62-13.77,56.12-14.95,85.53c-2.26,56.23,7.86,109.41,32.95,159.75
				c1.4,2.81,2.55,5.59,1.92,8.8c-21.9-28.69-36.47-61.21-45.61-95.67c-37.5-141.33-3.47-263.55,101.03-365.71
				C288.38,194.77,310.43,178.05,335.61,166.09z"/>
			<path class="st2" d="M759.39,806.49c1.8,22.91-18.43,26.75-32.58,38.35c-6.75-12.41-12.98-23.87-19.73-36.28
				c8.11-5.33,15.07-10.67,22.71-14.73c10.69-5.68,15.81-2.57,17.64,9.75c3.27,0.05,6.35,2.32,9.81,0.83c0,0,1.04,0.3,1.04,0.29
				c0,0,0.78,0.75,0.78,0.75C759.06,805.45,759.39,806.49,759.39,806.49z"/>
			<path class="st2" d="M199.55,742.02c-12.76,4.51-22.09-0.64-29.58-10.64c-4.79-6.39-9.35-12.95-14.82-20.57
				c10.5-7.93,20.69-15.62,31.61-23.86c10.9,15.52,26.63,28.57,17.26,50.58c0,0-0.18,0.94-0.17,0.95c-0.27,0.59-0.63,1.12-1.09,1.59
				c0.01,0.01-0.69,0.67-0.68,0.68c-0.46,0.46-0.99,0.83-1.58,1.11C200.51,741.87,199.55,742.02,199.55,742.02z"/>
			<path class="st2" d="M838.85,697.88c-7.87,6.4-18.22,10.69-17.4,23.72c12.84-2.13,16.84-23.53,34.11-14.86
				c3.52,17.45-6.51,28-17.41,37.82c-3.17,2.85-7.6,7.53-12.9,0.41c8.72-6.51,18.2-12.4,20.76-25.7
				c-13.19,2.82-17.78,22.37-33.31,15.26c-5.76-12.39-0.03-27.3,13.94-37.77C830.82,693.61,834.83,691.29,838.85,697.88z"/>
			<path class="st2" d="M478.85,903.84c-17.53-0.36-24.49-6.15-24.21-20.15c0.33-16.82,6.58-22.89,23.09-22.41
				c17.35,0.5,24.12,7.24,23.64,23.55C500.96,898.83,494.64,904.17,478.85,903.84z"/>
			<path class="st2" d="M796.46,785.91c-7.21-9.27-14.42-18.55-22.28-28.67c9.8-8.72,19.29-17.17,29.05-25.86
				c4.5,6.72-3.55,9.38-6.24,13.92c-2.42,4.07-9.9,6.11-5.88,14.35c8.43-4.13,11.68-12.18,18.17-16.72
				c2.59,0.04,3.77,1.87,5.15,4.39c-5.35,6.01-10.61,11.92-15.63,17.56c0.12,4.23,3.42,5.27,5.14,7.43
				c9.67-4.16,12.27-17.61,24.99-17.21c-7.69,12.35-17.8,22.37-28.49,31.84c-0.57,0.51-2.69-0.74-4.1-1.17L796.46,785.91z"/>
			<path class="st2" d="M215.49,749.11c17.21-5.16,29.96,0.94,38.78,15.89c2.56,4.34,5.52,9.76-3,13.13
				c-4.08-8.51-7.75-17.19-18.41-19.57c-6.63,1.49-11.66,5.54-12.39,12.78c-0.75,7.43,4.04,11.93,10.27,14.84
				c4.81-0.17,5.63-5.17,9.2-6.85c5.45,1.64,7.34,5.93,7.85,11.21c-0.13,0.42-0.25,0.84-0.37,1.26c-0.58,1.17-1.17,2.35-1.78,3.52
				c-0.36,0.81-0.8,1.57-1.3,2.31c-0.56,0.7-1.24,1.27-2.02,1.73c-0.44,0.09-0.87,0.18-1.31,0.26c-8.75-1.37-15.53-6.27-21.65-12.25
				c-10.06-9.81-13.71-20.81-5.91-33.78c-0.01-0.43-0.03-0.87-0.05-1.31c0.2-0.86,0.55-1.65,1.05-2.38
				C214.8,749.64,215.14,749.38,215.49,749.11z"/>
			<path class="st2" d="M594.19,878.35c-1.45,3.55-0.43,5.97,0.2,8.13c9.69,4.36,19.61-8.26,30.12,1.61
				c-13.45,5.29-26.13,7.38-40.41,10c-2.31-13.14-4.58-26.09-7.02-40c12.25-2.74,23.83-5.32,36.65-8.19
				c-2.24,15.24-19.6,6.47-23.18,17.92c8.09,4.31,15.03-2.84,22.29-1.12C613.12,872.07,613.12,872.07,594.19,878.35z"/>
			<path class="st2" d="M317.29,813.04c6.54,0.21,10.3,2.51,13.42,6.54c0,13.92,0,28,0,43.28c-13.85-0.98-14.69-19.27-30.13-18.25
				c-3.6,2.68-8.32,0.13-13.71-4.94C297.11,830.71,307.25,821.83,317.29,813.04z"/>
			<path class="st2" d="M655.68,841.17c-0.12,1.9-0.25,3.81-0.41,6.33c-8.22,1.21-17.92-1.69-24.41,8.08
				c-1.9,6.09-2.01,13.61,5.2,17.16c10.54,5.19,17.88-2.47,24.44-9.2c3.78,1.1,4.82,3.09,3.46,6.19
				c-3.87,8.79-22.89,16.22-33.32,13.05c-8.84-2.69-14.53-14.53-12.33-25.64c2.7-13.63,20.66-21.21,37.51-15.83L655.68,841.17z"/>
			<path class="st2" d="M451.23,871.5c-8.03-4.76-16.03-12.57-25.51-4.45c-4.71,4.03-5.59,10.77-2.4,15.87
				c6.6,10.54,16.85,7.45,29.1,3.67c-3.94,12.52-12.11,11.35-19.35,10.7c-16.47-1.49-25.3-10.71-23.24-23.57
				c2.49-15.56,11.89-21.72,28.18-18.46C449.68,857.59,453.39,861.88,451.23,871.5z"/>
			<path class="st2" d="M655.81,841.3c2.69-2.03-1.68-5.29,1.44-7.25c30.7-16.23,30.7-16.23,36.11-9.55
				c-3.4,2.37-6.78,4.72-10.99,7.66c3.96,9.42,7.92,18.83,11.88,28.25c-1.78,4.21-6.36,3.79-10.09,6.87
				c-4.53-10.37-8.76-20.06-12.98-29.72c-5.48,1.28-10.49,2.44-15.5,3.61C655.68,841.17,655.81,841.3,655.81,841.3z"/>
			<path class="st2" d="M266.38,825.24c5.43-8.68,10.85-17.34,16.01-25.59c-1.17-6-12.91-7.09-6.53-15.8
				c21.72,10.87,31.38,19.7,29.86,27.25c-5.1,1.34-7.52-5.05-13.24-4.24c-2.27,3.69-4.85,7.87-7.43,12.06
				c-2.59,4.2-5.16,8.41-7.77,12.66C272.29,831.72,269.56,828.74,266.38,825.24z"/>
			<path class="st2" d="M515.83,864.96c0.59,10.81,1.14,20.68,1.68,30.51c7.37,3.55,14.84-0.35,21.8,1.66
				c-0.59,7.58-9.3,9.54-33.42,7.29c0-13,0-26.14,0-39.28C508.84,863.18,511.75,864.09,515.83,864.96z"/>
			<path class="st2" d="M757.23,804.41c-1.06-8.4-9.02-12.96-11.53-20.85c0.85-3.72,3.97-4.97,7.64-6.18
				c8.69,5.74,11.73,16.64,19.93,23.24c8.91-3.33,13.02-13.9,23.18-14.71c0,0-0.13-0.13-0.13-0.13
				c-0.43,8.82-7.51,12.73-13.16,17.62c-4.86,4.2-9.97,8.1-14.5,11.76c-3.38-3.16-6.34-5.92-9.29-8.68c0,0,0.18,0.21,0.18,0.21
				c-0.78-0.85-1.6-1.67-2.46-2.44L757.23,804.41z"/>
			<path class="st2" d="M332.61,864.52c5.27-12.45,10.3-24.33,15.25-36.01c3.92,0.02,6.45,1.51,9.13,3.9
				c-0.73,10.83-7.61,19.75-9.75,30.86c6.8,3.04,13.65,6.11,20.55,9.2C363.58,879.6,358.96,878.53,332.61,864.52z"/>
			<path class="st2" d="M544.23,902.65c-0.92-13.5-1.8-26.33-2.66-39.06c3.68-2.38,6.79-2.1,9.88-0.2
				c4.3,9.66,1.27,20.52,5.01,30.06c7.6,2.3,14.56-1.9,21.68-1.15C578.22,900.39,569.17,903.14,544.23,902.65z"/>
			<path class="st2" d="M204.02,737.53c6.87,0.88,8.04-7.19,13.93-8.62c3.94,1.07,5.1,4.61,6.24,8.71
				c-2.84,3.75-5.77,7.62-8.7,11.49c0,0,0.17-0.2,0.17-0.2c-1.43,1.28-1.03,3.47-2.36,4.8c0,0,0.15-0.13,0.15-0.13
				c-7.45-0.05-9.06,7.94-14.96,10.7c-4.02-1.17-5.48-5.24-8.02-7.65c0.38-7.08,10.24-7.31,9.08-14.62c0,0-0.11,0.15-0.11,0.15
				c0.9-0.72,1.63-1.62,2.44-2.45l-0.14,0.14c0.83-0.8,1.71-1.55,2.45-2.45L204.02,737.53z"/>
			<path class="st2" d="M247.78,790.54c8.58-1.91,9.45-11.55,16-15.84c3.89,0.04,5.4,3.18,7.81,6.96
				c-5.6,11.07-13.94,20.76-21.09,31.09c-7.28-2.03-9.49-6.81-9.48-13.13c0,0-0.11,0.15-0.11,0.15c0.9-0.73,1.65-1.62,2.46-2.44
				l-0.14,0.16c1.91-2.13,2.43-5.2,4.73-7.07L247.78,790.54z"/>
			<path class="st2" d="M705.48,813.54c5.8,10.96,11.32,21.4,16.81,31.77c-2.23,4.03-6.02,4.94-10.29,6.77
				c-5.69-11.16-11.37-22.29-17.22-33.76C696.32,813.21,700.12,812.8,705.48,813.54z"/>
			<path class="st2" d="M810.61,675.69c-0.43-2.29-0.33-4.25,2.71-4.43C813.31,673.29,812.72,674.95,810.61,675.69z"/>
			<path class="st2" d="M807.91,679.99c-0.2-2.19,0.28-3.95,2.79-4.44C810.7,677.62,810.03,679.26,807.91,679.99z"/>
			<path class="st2" d="M214.96,678.01c2.77,0.37,3.02,2.36,2.95,4.57C215.95,681.69,215.02,680.13,214.96,678.01z"/>
			<path class="st2" d="M213.21,675.31c1.48,0.38,2.1,1.33,1.89,2.84C214.46,677.2,213.84,676.26,213.21,675.31z"/>
			<path class="st2" d="M805.79,683.06c0.73-1.06,1.45-2.11,2.18-3.17C807.24,680.95,806.52,682,805.79,683.06z"/>
			<path class="st2" d="M813.2,671.34c-0.34-1.57,0.36-2.47,1.85-2.86C815.23,669.95,814.7,670.96,813.2,671.34z"/>
			<path class="st4" d="M644.83,361.52c-2.89-38.57,8.6-73.3,29.9-108.64c-2.01,25.19-0.24,47.52,4.3,69.4
				c8.21,39.62-0.62,77.64-8.46,116.04c-6.98,34.19-13.82,68.68-7.8,103.86c3.99,23.27,10.83,45.6,27.12,63.71
				c2.71,3.02,4.87,6.98,11.41,8.02c3.76-12.66-5.99-25.77,0.73-39.5c15.16,13.38,24.59,28.58,24.15,48.61
				c-0.49,22.75-7.99,43.64-18.46,63.53c-16.77,31.88-35.68,62.86-39.16,98.93c-41.61,33.68-181.73,54.77-204.84,30.96
				c0.26-25.37,4.99-50.65,8.5-76.03c3.08-22.22,0.43-41.65-10.06-62.45c13.29-16.34,32.43-23.77,51.91-28.53
				c32.61-7.97,64.18-17.83,93.15-35.17c12.88-7.71,22.35-17.42,22.79-33.44c-1.11-0.88-0.41-4.89-3.63-2.09
				c-7.82,18.63-23.29,29.03-40.66,37c-19.88,9.12-40.4,16.16-61.99,20.64c-27.66,5.73-52.58,18.64-76.75,33.03
				c-15.14,9.01-30.67,17.37-46.06,25.95c-6.79,3.78-14.06,4.28-21.1,1.32c-11.47-4.83-23.28-6.92-35.71-7.59
				c-11.63-0.62-20.54-6.59-26.53-20.41c10.62,4.81,18.27,9.92,27.48,11.45c30.84,5.12,51.91-11.08,70.91-31.83
				c10.33-11.28,17.5-24.83,25.44-37.76c9.52-15.51,13.96-35.9,38.71-36.21c-17.95-4.79-33.64-2.72-47.17,9.23
				c-8.39,7.41-15.03,16.29-21.3,25.55c-16.22,23.95-33.52,28.85-59.06,15.34c-18.51-9.79-36.76-13.78-57.44-7.63
				c-14.27,4.24-21.11-1.53-23.05-17.37c-1.4-11.4-3.39-22.1-14.67-28.17c-5.21-2.49-8.01-6.57-8.19-12.39
				c-4.67-20.03-2.19-25.63,14.16-31.34c-0.32,4.58-0.75,9.04-0.87,13.5c-0.05,1.81,0.59,3.64,1.29,7.5
				c5.49-6.24,4.03-13.37,7.48-18.55c9.42-14.15,22.55-22.7,38.52-27.36c12.23-3.57,23.81-8.61,34.46-15.58
				c15.09-9.86,23.29-26.31,18.12-39.74c-4.55-11.83-10.06-23.78-22.39-30.23c-1.25-1.36-1.92-2.93-1.77-4.8
				c3.3-3.64,5.06-8.71,11.97-11.72c12.73,13.44,26.95,27.07,48.55,25.28c3.01-0.25,6.14-0.95,7.2-4.56
				c-24.18-20.77-30.99-44.34-18.49-65.24c5.13,2.43,5.64,7.88,7.43,12.1c7.98,18.81,19.8,23.44,41.42,17.87
				c25.86-6.66,44.8-32.36,45.97-59.32c0.21-4.73,0.89-9.14,5.46-13.67c16.61-2.07,32.31,2.76,45.68,13.97
				c13.48,11.3,28.25,12.36,42.91,5.22c12.06-5.87,22.27-8.32,32.49,4.72c1.99-5.97-0.01-9.64-0.98-13.39
				c-6.72-25.79-8.49-51.23,2.78-76.54c6.22-13.97,15.7-25.04,27.25-34.33c5.64-4.54,13.28-7.62,20.42-3.35
				c7.8,4.66,8.82,12.97,8.16,21.34c-1.62,20.29-11.72,37.84-18.47,56.47c-8.83,24.41-14.32,49.04-6.04,74.81
				c1.13,0.77,1.43,2.41,3.06,3.05C644.38,363.69,644.68,362.61,644.83,361.52z"/>
			<path class="st5" d="M353.47,245.23"/>
			<path class="st5" d="M350.48,245.86"/>
			<path class="st5" d="M384.5,203.7c19.73-1.78,29.94,18.86,23.09,45.29c29.7,1.84,41.01,24.7,29.01,58.98
				c3.6,1.57,5.44-1.71,7.92-2.94c2.37-1.17,4.49-2.84,6.48-4.14c21.23,7.54,28.47,30.57,15.55,48.33
				c-9.37,12.87-19.32,25.19-36.67,27.01c-17.99,1.88-27.24-5.42-29.71-23.45c-0.77-5.62-0.12-11.43-0.12-16.5
				c3.91-4.93,10.2-5.47,13.45-11.74c-14.01,0.68-27.64,0.6-32.84-15.81c-4.14-13.06-6.56-25.96,1.7-38.5
				c-16.62-4.01-20.78-23.37-15.79-50.74c-19.71-14.95-20.41-35.77-17.74-59.27c-13.77-10.2-10.12-26.43-11.6-43.64
				c12,11.68,22.53,21.58,23.23,37.95C380.04,164.75,385.29,182.3,384.5,203.7z"/>
			<path class="st6" d="M691.47,363.15c0-12.26,0-24.52,0-39.35c3.94,7.67,6.78,13.21,9.63,18.75
				c21.87,34.74,21.25,72.36,13.58,110.62c-3.08,15.33-6.44,30.66-11.13,45.65c-4.95,15.81-1.08,32.82-6.46,48.59
				c-4.51,11.72-7.47,23.8-7.47,37.63c-4.89-2.66-4.58-6.87-6.13-9.91c-9.05-25.31-7.24-51.67-4.95-77.42
				c2.74-30.83,5.49-61.78,12.19-92.22C693.75,391.74,691.72,377.29,691.47,363.15z"/>
			<path class="st6" d="M448.22,266.9c-3.06-5.21-6.86-10.25-3.16-18.13c8.75-4.88,19.14-7.92,30.06-9.44
				c15.65,1.45,28.56,9.5,38.91,20.03c17.91,18.22,39.81,26.3,63.98,30.81c5.14,0.96,11.76-0.38,14.85,6.08
				c0.62,4.18,1.25,8.36,1.87,12.54c-12.52,8.91-26.04,3.6-38.76,1.65c-18.15-2.78-35.33-9.29-51.66-18.2
				c-16.06-8.76-32.11-17.91-50.35-21.8C451.65,269.94,449.65,268.86,448.22,266.9z"/>
			<path class="st7" d="M768.62,710.76c-2.01,2.17-3.24,5.3-8.13,5.6c-16.68-22.13-22.92-48.13-24.42-75.7
				c-0.68-12.53,1.22-25.27-3.18-37.48c-1.33-13.43,0.9-26.73,2.5-39.91c3.89-31.97,0.11-64.13,3.28-96.08
				c0.31-3.08,0.73-6.06,2.12-8.84c0.49-1.32,0.98-2.64,1.71-4.63c8.21,5.08,11.99,12.39,14.65,20.52c1.19,1.64,1.32,3.6,1.38,5.47
				c1.36,43.17,2.44,86.29-5.19,129.15c-5.46,30.63,0.15,60.15,11.39,88.8C766.4,701.91,768.66,706,768.62,710.76z"/>
			<path class="st6" d="M326.56,350.11c2.32-1.88,4.41-4.23,8.44-4.23c2.69,4.53,0.43,9.66,1.5,14.29
				c1.36,11.12-1.52,20.84-8.18,30.01c-10.85,14.93-16.36,31.64-15.07,50.44c1.09,15.87-3.51,30.96-7.52,46.07
				c-1.22,4.59-3.79,8.28-7.62,11.09c-7.08,4.24-14.17,8.49-21.11,12.65c-8.6-2.11-14.93-6.22-17.96-14.44
				c28.38-12.96,33.27-38.28,34-65.48c0.29-10.73,0.64-21.37,2.72-31.92c2.12-10.76,6.04-20.38,14.99-27.55
				C317.72,365.46,321.26,357.07,326.56,350.11z"/>
			<path class="st8" d="M697.09,547.4c-2.35-16.54-1.17-32.95,2.44-49.14c3.26-14.6,6.9-29.12,10.89-43.53
				c9.44-34.03,9.14-67.44-5.21-100.21c-1.69-3.85-2.75-7.98-4.11-11.98c14.05,14.62,24.08,31.31,28.37,51.46
				c6.26,29.4,2.54,57.9-7.13,85.77C714.46,502.51,705.55,524.88,697.09,547.4z"/>
			<path class="st8" d="M326.56,350.11c-0.72,8.14-4.81,15.1-10.69,19.82c-16.94,13.61-19.3,32.41-19.25,51.74
				c0.05,19.5-2.39,37.99-11.21,55.75c-5.7,11.47-13.25,18.52-26.38,18.57c-6.38-8.91-10.55-18.43-8.62-29.71
				c24.74-1.61,30.85-8.63,30.41-33.74C280.19,396.3,293.88,367.91,326.56,350.11z"/>
			<path class="st6" d="M768.62,710.76c-11.8-15.46-15.19-33.91-18.6-52.36c-4.69-25.33-0.74-50.42,2.61-75.43
				c3.21-23.98,5.2-47.85,2.7-72.08c-1.25-12.15-0.4-24.51,1.83-36.65c11.38,18.52,8.46,38.88,8.17,59.12
				c-0.47,32.5-7.87,64.52-6.04,97.13c0.73,13.03,1.83,25.95,8.51,37.63c6.96,9.06,9.71,19.58,10.65,30.73
				C775.75,703.3,772.78,707.52,768.62,710.76z"/>
			<path class="st8" d="M592.85,296.25c-12.29-2.8-24.63-5.36-36.84-8.45c-13.16-3.33-25.26-9.17-35.04-18.67
				c-13.38-12.99-28.72-22.69-45.84-29.8c16.31-5.49,32.41-6.27,48.11,2.15c9.48,2.19,17.48,6.74,24.44,13.7
				c8.75,8.75,19.98,13.7,31.22,18.45c4.53,1.92,9.37,3.27,12.83,7.12C593.47,285.82,593.31,291.02,592.85,296.25z"/>
			<path class="st9" d="M740.79,458.35c1.57,44.33,1.12,88.59-4.97,132.62c-0.57,4.13-1.93,8.14-2.93,12.21
				c-2.55-12.25-11.94-20.13-18.86-29.6c-3.34-11.57-2.72-23.26,0.11-34.69c1.54-6.21,1.53-12.73,4-18.71
				c6.35-19.17,16.57-37.04,19.24-57.47C737.59,461.14,739.61,459.8,740.79,458.35z"/>
			<path class="st7" d="M448.22,266.9c22.19,1.69,40.34,13.62,59.32,23.44c27.37,14.15,56,22.3,87.18,18.45
				c1.21,2.44,2.17,4.89,0.22,8.25c-8.68,0.32-17.35,2.89-26.1,5.22c-10.75,2.87-20.68,1.72-30.48-4.68
				c-19.65-12.82-41.52-18.71-65.15-17.51c-6.03-4.94-11.58-10.22-18.57-13.39C452.43,279.86,450.32,273.38,448.22,266.9z"/>
			<path class="st6" d="M708.97,762.81c-7.47,5.86-15.11,11.45-25.4,15.84c-0.25-44.67,30.84-75.55,44.6-116.48
				c1.66,8.58,2.7,14,3.75,19.41C733.13,711.16,723.17,737.58,708.97,762.81z"/>
			<path class="st8" d="M778.44,698.85c-5.03-9.73-8.58-19.97-10.65-30.72c6.22-5.79,2.71-12.79,2.06-19.21
				c-2.62-25.74-1.54-51.26,2.45-77.4c5.94,2.93,7.64,7.7,10.12,11.83c3.24,7.11,3.78,14.65,3.61,22.31
				c-0.55,23.64,0.55,47.19,3.82,70.62c0.54,1.34,0.61,2.7,0.19,4.08C787.19,687.15,783.55,693.46,778.44,698.85z"/>
			<path class="st7" d="M691.47,363.15c7.72,27.61,0.19,54.55-3.26,81.74c-5.34,42.1-11.01,84.24-4.56,126.79
				c0.17,1.11-0.1,2.29-0.16,3.43c-12.11-20.72-13.31-43.68-12.5-66.64c1.22-34.55,9.49-68.15,15.34-102.07
				C688.79,392.12,689.8,377.58,691.47,363.15z"/>
			<path class="st6" d="M372.92,407.84c-3.85,1.19-5.38-1.78-7.4-4.03c-20.53-22.77-24.92-55.29-10.95-82.46
				c3.49-6.78,7.43-13.32,12.2-21.81c4.16,10.11,7.69,18.69,11.22,27.27c0.48,7.25-3.38,13.25-6.25,19.29
				c-7.92,16.68-6.17,33.21-0.72,49.91C372.28,399.87,375.31,403.41,372.92,407.84z"/>
			<path class="st7" d="M298.11,497.78c7.57-18.58,12.87-37.82,11.72-57.96c-1.11-19.38,4.98-35.98,15.96-51.28
				c6.13-8.55,10.85-17.53,10.72-28.38c2.12,9.64,4.24,19.28,6.52,29.65c-3.54,4.96-6.47,11.13-11.19,15.26
				c-11.24,9.83-13.38,22.09-12.94,36.01c0.5,15.95-1.14,31.98,3.39,47.57C314.37,494.04,306.08,495.51,298.11,497.78z"/>
			<path class="st5" d="M434.13,600.13c0.17,1.21,0.78,2.5,0.41,3.37c-11.93,28.01-29.62,51.18-57.81,64.24
				c-16.02,7.42-40.35,0.61-49.21-12.99c9.48-2.68,18.37-0.18,27.05,1.03c15.31,2.14,27.7,0.03,38.86-13.05
				c10.11-11.86,21.95-22.3,30.86-35.35C426.53,604.09,429.05,600.36,434.13,600.13z"/>
			<path class="st9" d="M708.97,762.81c9.08-26.67,19.37-52.99,22.95-81.22c7,14.5,10.5,29.93,12.23,45.86
				c0.53,4.86-0.2,9.17-4.28,12.22C729.56,747.36,720.46,756.69,708.97,762.81z"/>
			<path class="st9" d="M789.44,677.59c-8.41-10.87-5.33-24.13-6.42-36.15c-1.74-19.22-0.55-38.71-0.6-58.09
				c8.27,10,12.52,21.86,15.82,34.17c6.2,20.37,0.7,39.42-6.56,58.28l-0.18,0.75C791.28,677.81,790.62,678.21,789.44,677.59z"/>
			<path class="st5" d="M358.47,648.16c-8.32-1.07-16.62-2.34-24.97-3.16c-13.36-1.32-22.4-8.17-28.36-21.25
				c27.53-7.85,45.19,16.82,69.09,17.44c-0.27,5.68-4.13,5.34-6.47,6.8c-0.74,0.42-1.53,0.52-2.35,0.34
				c-1.52,0.01-3.03,0.02-4.55,0.03C360.04,648.5,359.24,648.43,358.47,648.16z"/>
			<path class="st7" d="M372.92,407.84c-14.93-28.05-11.88-54.97,5.07-81.03c3.66,3.32,7.67,6.37,9.07,12.8
				c-15.25,22.2-22.23,46.04-4.34,71.52C377.89,413.84,375.76,409.75,372.92,407.84z"/>
			<path class="st10" d="M591.72,280.75c-18.33-4.82-35.42-12.11-48.59-26.27c-5.66-6.09-13.8-7.88-19.91-13
				c9.78-2.89,17.95,1.9,26.12,5.84c14.06,6.77,26.2,17.03,40.3,22.03C593.05,273.3,593.11,276.92,591.72,280.75z"/>
			<path class="st4" d="M351.6,447.84c-5.69-7.86-13.72-10.61-23.39-10.02c-2.46-6.11,0.18-10.47,3.55-15.68
				c13.93,1.79,17.88,12.66,22.53,22.8C354.63,447.04,353.62,447.9,351.6,447.84z"/>
			<path class="st10" d="M718.14,520.19c-1.37,17.8-2.75,35.59-4.12,53.39c-4.08-1.53-6.48-4.98-10.11-8.42
				C707.23,549.83,711.34,534.61,718.14,520.19z"/>
			<path class="st2" d="M791.67,675.79c-1.48-6.65,1.16-12.77,2.82-18.89c3.53-12.96,3.66-26.15,3.74-39.38
				C806.14,638.07,806.36,657.77,791.67,675.79z"/>
			<path class="st11" d="M332.21,485.32c-9.85-18.27-8.49-35.22,3.24-37.67C330.18,460.34,336.7,473.15,332.21,485.32z"/>
			<path class="st5" d="M346.4,467.24c-4.32,0.11-6.69-1.52-6.04-5.34c0.7-4.1,3.83-3.87,6.85-3.21
				C349.48,461.77,349.77,464.39,346.4,467.24z"/>
			<path class="st2" d="M251.41,571.89c-3.59-2.04-4.88-5.69-6.41-9.17c1.42-1.27,2.83-2.55,4.25-3.82
				c2.73,4.13,5.46,8.26,8.2,12.39C255.44,571.49,253.43,571.69,251.41,571.89z"/>
			<path class="st2" d="M644.83,361.52c0.41,2.12,0.82,4.24,1.3,6.71c-3.1-1.38-4.4-3.35-4.13-6.28
				C642.94,361.81,643.88,361.67,644.83,361.52z"/>
			<path class="st2" d="M351.6,447.84c0.9-0.97,1.79-1.94,2.69-2.91c3.36,2.55,1.67,5.99,2.29,10.05
				C352.8,453.14,352.89,450.01,351.6,447.84z"/>
			<path class="st2" d="M626.4,578.73c0.11-2.29,0.45-4.45,3.15-5.28c1.79,2.41,1.4,4.87,0.48,7.36
				C628.82,580.12,627.61,579.43,626.4,578.73z"/>
			<path class="st2" d="M775.25,493.31c1.28,1.44,1.54,3.03,0.7,4.79C773.64,496.8,772.47,495.35,775.25,493.31z"/>
			<path class="st2" d="M338.27,412.3c0.59,1.6,1.18,3.2,1.77,4.8c-1.28-0.34-2.56-0.68-3.52-0.93
				C335.87,413.77,336.68,412.8,338.27,412.3z"/>
			<path class="st2" d="M775.69,548.42c0.5,2.35,1,4.7,1.5,7.05C774.58,553.57,774.88,551.05,775.69,548.42z"/>
			<path class="st2" d="M789.44,677.59c0.68-0.34,1.36-0.69,2.05-1.04c-0.48,1.26-0.97,2.53-1.45,3.8
				C789.84,679.43,789.64,678.51,789.44,677.59z"/>
			<polygon class="st2" points="316.4,660.49 315.68,660.78 315.78,660.03 			"/>
			<path class="st2" d="M358.47,648.16c0.79,0.06,1.59,0.13,2.38,0.19C359.92,649.97,359.14,649.66,358.47,648.16z"/>
			<path class="st2" d="M365.4,648.32c0.78-0.11,1.57-0.23,2.35-0.34C367.17,649.49,366.44,649.99,365.4,648.32z"/>
			<path class="st2" d="M775.67,541.53c0.22,0.58,0.5,1.14,0.61,1.74c0.03,0.18-0.42,0.45-0.65,0.68
				C775.64,543.14,775.66,542.33,775.67,541.53z"/>
			<path class="st1" d="M748.05,817.09c-2.8,7.33-8.18,9.65-12.36,12.76c-5.01-0.84-5.4-4.35-6.59-8.17
				C735.17,819.38,738.88,809.99,748.05,817.09z"/>
			<path class="st1" d="M736.04,803.63c-0.57,7.1-6.83,7.97-10.83,11.85C721.49,806.31,724.87,802.99,736.04,803.63z"/>
			<path class="st1" d="M757.11,804.25c2.03-0.41,2.36,0.91,2.46,2.44C756.97,807.67,756.36,806.65,757.11,804.25z"/>
			<path class="st1" d="M184.79,732.37c-7.65-2.73-11.74-8.02-15.11-15.03c5.94-4.8,11.84-9.57,17.67-14.28
				C201.92,715.17,201.08,724.99,184.79,732.37z"/>
			<path class="st1" d="M204.18,737.41c0.83,2.46,0.01,3.27-2.45,2.45C201.54,738.04,202.36,737.22,204.18,737.41z"/>
			<path class="st1" d="M201.88,739.72c0.84,2.46,0.01,3.26-2.44,2.45C199.06,740.16,200.09,739.57,201.88,739.72z"/>
			<path class="st1" d="M467.48,891.63c-1.68-7.53-2.24-14.18,4.26-19.63c6.24-1.15,13.03-2.82,16.53,4.96
				c2.65,5.87,2.72,12.45-2.63,16.79C479.78,898.49,473.55,896.69,467.48,891.63z"/>
			<path class="st1" d="M247.94,790.41c1.62,4.49-0.64,6.39-4.73,7.07C243.35,794.17,242.76,790.36,247.94,790.41z"/>
			<path class="st1" d="M213.3,753.72c-1.9-2.93,0.34-3.81,2.36-4.8C218.26,752.18,216.02,753.07,213.3,753.72z"/>
			<path class="st1" d="M243.36,797.33c0.47,2.11,0.25,3.54-2.46,2.44C240.82,798.05,241.44,797.03,243.36,797.33z"/>
			<path class="st1" d="M308.67,837.76c2.55-4.49,5.99-7.12,10.57-10.01c0,5.41,0,9.8,0,14.26
				C314.6,842.44,311.98,839.7,308.67,837.76z"/>
			<path class="st0" d="M421.1,487.94c0.65-31.11,28.92-66.22,57.96-72c22.66-4.51,42.31,7.24,49.22,29.21
				c4.11,13.08,4.11,26.48,2.89,39.83c-0.92,10.06-9.41,14.4-17.2,18.41C491.92,514.73,439.19,505.77,421.1,487.94z"/>
			<path class="st0" d="M375.76,570c-5.28-7.23-3.41-13.57,0.97-19.42c4.18-5.59,10.12-5.93,16.51-4.68
				c5.9,1.15,11.89,1.9,17.77,2.82C400.7,564.7,388.52,572.23,375.76,570z"/>
			<path class="st0" d="M393.15,534.73c-3.11,2.06-6.68,1.34-10.07,1.61c-19.09,1.54-27.35,9.72-28.92,28.63
				c-0.15,1.84-0.67,3.65-1.07,5.76c-12.22-11.04-5.68-30.4,12.43-38.4c1.27-1.13,2.86-1.07,4.4-1.22c3.14-0.11,6.28-0.22,9.43-0.33
				C383.56,533.45,390.26,527.46,393.15,534.73z"/>
			<path class="st2" d="M393.15,534.73c-3.72-4.4-10,0.15-13.8-3.96c5.84-1.46,11.64-0.88,17.33-0.22
				C397.74,534.52,395.61,534.79,393.15,534.73z"/>
			<path class="st2" d="M369.93,531.1c-1.16,1.52-2.71,1.64-4.4,1.22C366.73,530.95,368.13,530.3,369.93,531.1z"/>
			<path class="st4" d="M444.36,454.1c10.09-16.67,23.04-28.82,43.63-29.97c13.16-0.73,21.07,6.16,28.45,18.78
				C489.55,435.8,466.49,440.77,444.36,454.1z"/>
			<path class="st12" d="M452.63,493.13c-8.1-3.03-14.31-5.35-21.48-8.02c6.37-10.38,12.77-18.71,24.62-25.37
				C451.98,471.56,451.79,481.3,452.63,493.13z"/>
			<path class="st5" d="M505.26,475.2c-5.9-0.99-8.56-4.83-7.88-10.51c0.65-5.42,3.54-9.6,9.77-8.88c5.09,0.59,8.53,3.86,8.34,9.2
				C515.28,471.18,511.75,474.77,505.26,475.2z"/>
			<path class="st5" d="M480.29,474.79c5.1-0.35,7.51,1.88,7.13,5.95c-0.41,4.41-3.55,5.33-7.58,4.09
				C476.38,481.55,476.63,478.37,480.29,474.79z"/>
		</g>
	</g>
	<polygon class="st1" points="169.15,667.96 217.94,710.66 305.13,792.25 393.62,830.21 477.8,849.73 558.31,846.07 646.15,827.77 
		703.49,796.05 759.61,748.47 805.97,710.66 829.14,682.6 855.98,687.48 870.62,720.42 842.56,772.87 770.59,827.77 698.61,882.67 
		576.61,915.61 466.82,915.61 378.98,896.09 298.46,866.81 217.94,809.47 176.47,764.33 144.75,721.64 139.87,694.8 	"/>
	<g>
		<g>
			<path class="st2" d="M152.69,719.36c11-7.99,22-15.99,33-23.98c2.53,3.29,8.22,10.48,12.43,15.68
				c8.36,10.33,11.94,24.03,1.8,34.17c-10.8,10.79-26.3,2.11-33.81-7.94C164.11,734.62,152.69,719.36,152.69,719.36z M166.77,725.43
				c5.54,7.61,14.97,19.33,24.89,10.6c9.51-8.37,1.12-18.66-4.98-26.02C178.72,716.18,174.73,719.27,166.77,725.43z"/>
			<path class="st2" d="M196.07,770.58c-3.64-3.69-5.44-5.57-9-9.4c10.01-9.36,20.01-18.71,30.02-28.07
				c1.23,1.32,1.85,1.98,3.09,3.29c2.12,2.23,4.61,5.69,1.94,8.33C213.44,753.35,204.76,761.96,196.07,770.58z"/>
			<path class="st2" d="M222.19,786.1c4.86,4.3,8.32,4.78,8.32,4.78c3.04-3.61,4.56-5.42,7.6-9.03c1.84,1.56,2.77,2.33,4.63,3.86
				c3.46,2.84,3.44,5.58,1.14,8.48c-2.48,3.13-3.72,4.69-6.2,7.82c-5.66-0.08-12.1-3.43-19.65-9.88
				c-10.7-9.13-16.77-22.76-5.57-33.9c10.18-10.13,23.71-6.77,33.24,2.31c8.54,8.14,10.92,15.77,8.25,19.12
				c-1.43,1.79-4.23,1.5-6.22,1.09c0.74-2.05-0.44-7.79-6.95-13.51c-6.3-5.53-12.95-7.09-19.69,0.11
				C215.34,773.48,216.24,780.84,222.19,786.1z"/>
			<path class="st2" d="M247.23,814.97c-4.05-3-6.06-4.53-10.04-7.65c8.44-10.8,16.89-21.59,25.33-32.39
				c1.38,1.08,2.07,1.62,3.46,2.68c2.37,1.82,5.26,4.77,3.03,7.8C261.74,795.27,254.49,805.12,247.23,814.97z"/>
			<path class="st2" d="M273.68,783.38c9.45,6.89,19.22,13.37,29.25,19.39c3.75,2.25,3.58,4.16,1.66,7.46
				c-0.48,0.83-0.73,1.25-1.21,2.08c-5.07-2.95-7.59-4.48-12.57-7.63c-5.9,9.34-11.8,18.67-17.7,28.01
				c-4.22-2.67-6.31-4.03-10.46-6.83c6.16-9.16,12.32-18.33,18.49-27.49c-3.05-2.05-4.56-3.1-7.57-5.23c-4.19-2.97-3.33-5-1.19-7.94
				C272.89,784.47,273.15,784.11,273.68,783.38z"/>
			<path class="st2" d="M317.11,850.53c-7.15-3.49-10.69-5.32-17.7-9.16c-1.88,1.65-2.83,2.47-4.73,4.1
				c-4.41-2.44-6.6-3.7-10.96-6.28c11.11-8.88,21.94-17.98,32.6-27.4c3.03-0.42,14.67,4.21,14.23,9.75
				c-1.08,13.6-1.69,27.24-1.84,40.89c-4.79-2.13-7.17-3.23-11.9-5.51C316.92,854.36,316.98,853.08,317.11,850.53z M305.17,836.15
				c5.02,2.71,7.54,4.02,12.63,6.54c0.52-7.61,0.84-11.4,1.59-18.95C313.8,828.77,310.95,831.26,305.17,836.15z"/>
			<path class="st2" d="M346.95,825.53c1.61,0.71,2.41,1.05,4.02,1.74c4.34,1.85,6.11,2.86,4.55,6.67
				c-3.66,8.97-7.33,17.94-10.99,26.92c9.06,3.68,13.63,5.39,22.85,8.53c-0.99,2.89-1.49,4.33-2.48,7.22
				c-11.7-3.99-23.23-8.48-34.55-13.46C335.88,850.6,341.41,838.06,346.95,825.53z"/>
			<path class="st2" d="M430.88,886.74c7.12,1.27,13.97-0.41,16.27-3.4c0,0,0.79,0.34,1.43,1.09c0.68,0.79,1.31,2.02,1.1,3.59
				c-0.81,5.99-13.47,6.79-21.48,5.7c-13.16-1.79-23.88-11.84-20.45-25.7c3.19-12.91,15.31-18.68,27.87-15.8
				c8.66,1.99,17.25,6.31,16.4,12.47c-0.42,3.02-4.56,3.86-4.56,3.86c-0.64-2.76-4.66-6.57-12.61-8
				c-7.02-1.27-13.37,0.42-15.46,10.12C417.05,881.52,423.97,885.5,430.88,886.74z"/>
			<path class="st2" d="M477.75,857.31c12.11,1.37,23.21,9,22.55,22.53c-0.7,14.46-12.41,20.25-25.74,19.79
				c-13.56-0.47-24.11-9.04-22.16-23.28C454.21,863.05,464.64,855.82,477.75,857.31z M475.16,891.55
				c9.35,0.7,12.91-2.99,13.31-11.84c0.41-9.03-2.6-12.9-11.39-13.56c-8.52-0.64-12.1,2.87-13.03,11.75
				C463.13,886.71,466.1,890.88,475.16,891.55z"/>
			<path class="st2" d="M503.18,859.1c1.73,0.02,2.59,0.02,4.32,0.02c4.65,0,6.65,0.24,6.72,4.35c0.16,9.68,0.32,19.37,0.48,29.05
				c9.65-0.16,14.48-0.37,24.11-1.06c0.22,3.04,0.33,4.57,0.55,7.61c-12.19,0.87-24.41,1.24-36.63,1.11
				C502.87,886.49,503.03,872.8,503.18,859.1z"/>
			<path class="st2" d="M538.83,857.92c1.72-0.13,2.58-0.21,4.31-0.36c4.64-0.41,6.65-0.35,7.08,3.74
				c1.03,9.63,2.05,19.26,3.08,28.89c9.61-1.01,14.4-1.65,23.95-3.19c0.49,3.01,0.74,4.52,1.23,7.53
				c-12.07,1.95-24.23,3.4-36.42,4.35C540.98,885.22,539.9,871.57,538.83,857.92z"/>
			<path class="st2" d="M574.27,853.57c11.99-2.01,23.89-4.57,35.65-7.67c1.3,2.27,3.05,7.51-3.36,9.1
				c-7.93,1.97-11.92,2.86-19.92,4.43c0.64,3.2,0.95,4.8,1.59,8.01c9.39-1.84,14.06-2.9,23.35-5.29c0.7,2.71,1.05,4.06,1.75,6.76
				c-9.44,2.43-14.2,3.5-23.75,5.38c0.8,4.05,1.21,6.08,2.01,10.13c8.42-1.65,12.62-2.58,20.96-4.66c7.58-1.88,9.08,3.05,8.85,5.61
				c-13.27,3.53-26.71,6.43-40.25,8.71C578.86,880.58,576.56,867.08,574.27,853.57z"/>
			<path class="st2" d="M645.98,871.01c6.9-2.31,12.15-7.09,12.73-10.82c0,0,0.87-0.09,1.8,0.26c0.98,0.37,2.14,1.13,2.71,2.61
				c2.19,5.64-8.63,12.45-16.23,15.35c-12.43,4.75-26.73,1.12-30.44-12.71c-3.45-12.88,4.46-23.73,16.88-27.22
				c8.61-2.42,18.31-2.79,20.55,3.02c1.1,2.85-2.17,5.59-2.17,5.59c-1.9-2.11-7.31-3.5-15.03-0.93c-6.81,2.27-11.58,6.79-8.72,16.3
				C631.27,873.08,639.29,873.26,645.98,871.01z"/>
			<path class="st2" d="M652.76,831.97c10.71-4.36,21.09-8.93,31.53-13.89c3.88-1.92,5.4-0.74,7.14,2.66
				c0.44,0.86,0.66,1.29,1.1,2.14c-5.2,2.65-7.82,3.93-13.09,6.39c4.67,10.01,9.35,20.01,14.02,30.02
				c-4.46,2.08-6.7,3.08-11.21,5.03c-4.39-10.13-8.78-20.26-13.18-30.4c-3.31,1.43-4.97,2.12-8.3,3.47
				c-4.64,1.88-5.87,0.06-7.2-3.33C653.25,833.21,653.09,832.8,652.76,831.97z"/>
			<path class="st2" d="M721.05,845.22c-4.33,2.41-6.51,3.58-10.9,5.85c-6.32-12.16-12.64-24.32-18.97-36.49
				c1.52-0.79,2.27-1.19,3.78-1.99c2.58-1.37,6.4-2.75,8.23,0.54C709.15,823.83,715.1,834.52,721.05,845.22z"/>
			<path class="st2" d="M703.37,808.25c3-2.03,12.15-7.72,16.9-10.72c12.03-7.62,19.07-6.9,22.69-1.76c3.38,4.8-0.35,9.26-0.99,9.99
				c0.75-0.3,8.38-3.71,13.34,3.44c6.1,8.79-4.38,18.32-11.2,22.47c-6.13,3.73-13.37,8.1-20.63,12.2
				C716.77,831.99,710.07,820.12,703.37,808.25z M721.04,815.77c2.94-1.77,4.41-2.68,7.32-4.52c5.36-3.38,5.91-5.92,4.59-7.93
				c-1.29-1.96-3.76-2.39-9.01,0.93c-2.85,1.8-4.29,2.69-7.17,4.43C718.48,811.51,719.33,812.93,721.04,815.77z M730.26,831.06
				c3.7-2.23,5.55-3.37,9.2-5.71c4.82-3.08,6.87-6.6,4.78-9.72c-2.15-3.22-6.05-2.64-10.75,0.36c-3.56,2.27-5.36,3.39-8.97,5.56
				C726.82,825.36,727.96,827.26,730.26,831.06z"/>
			<path class="st2" d="M740.58,784.12c1.45-1.05,2.18-1.59,3.63-2.66c3.89-2.89,5.71-3.95,8.21-0.68
				c5.9,7.69,11.79,15.38,17.69,23.07c7.99-6.15,11.92-9.36,19.61-16.05c2,2.31,3,3.47,4.99,5.78c-9.66,8.4-19.69,16.37-30.05,23.87
				C756.62,806.34,748.6,795.23,740.58,784.12z"/>
			<path class="st2" d="M769.77,760.77c9.7-8.55,18.99-17.58,27.81-27.03c2.33,1.2,6.6,4.71,1.7,9.81
				c-6.06,6.31-9.16,9.36-15.48,15.26c2.22,2.39,3.33,3.59,5.56,5.98c7.41-6.93,11.03-10.52,18.1-17.99
				c2.02,1.93,3.04,2.89,5.06,4.82c-7.18,7.59-10.87,11.25-18.4,18.3c2.81,3.03,4.22,4.54,7.03,7.57
				c6.65-6.21,9.91-9.42,16.29-16.05c5.8-6.03,9.69-2.65,10.8-0.31c-10.12,10.61-20.52,20.74-31.39,30.58
				C787.83,781.39,778.8,771.08,769.77,760.77z"/>
			<path class="st2" d="M809.56,739.81c-7.79-6.73,0.01-20.22,5.65-26.92c3.55-4.22,13.78-15.72,19.89-11.24
				c1.7,1.25,2.64,3.07,1.19,5.98c-9.23-0.41-20.6,18.62-17.88,20.94c4.25,3.61,22.11-24.79,34.33-16.34
				c8.57,5.92-0.86,22.35-6.61,29.16c-6.61,7.82-17.55,16.6-21.86,12.62c-1.29-1.2-2.53-3.49-1.17-5.6
				c9.32,0.24,23.64-21.01,21.06-23.03C840.53,722.53,821.92,750.49,809.56,739.81z"/>
		</g>
	</g>
</g>
</svg>
